<ttFont>
    <TTGlyph name=".ttfautohint" xMin="0" yMin="0" xMax="0" yMax="0">
      <contour>
        <pt x="0" y="0" on="1"/>
      </contour>
    </TTGlyph>
    <TTGlyph name="A" xMin="10" yMin="-1" xMax="426" yMax="705">
      <contour>
        <pt x="426" y="5" on="1"/>
        <pt x="426" y="-1" on="0"/>
        <pt x="417" y="-1" on="1"/>
        <pt x="406" y="-1" on="0"/>
        <pt x="401" y="0" on="1"/>
        <pt x="341" y="212" on="1"/>
        <pt x="95" y="212" on="1"/>
        <pt x="38" y="6" on="1"/>
        <pt x="36" y="-1" on="0"/>
        <pt x="24" y="-1" on="1"/>
        <pt x="10" y="0" on="1"/>
        <pt x="210" y="703" on="1"/>
        <pt x="210" y="705" on="0"/>
        <pt x="215" y="705" on="1"/>
        <pt x="222" y="705" on="0"/>
        <pt x="224" y="703" on="1"/>
        <pt x="425" y="10" on="1"/>
      </contour>
      <contour>
        <pt x="268" y="470" on="1"/>
        <pt x="219" y="649" on="0"/>
        <pt x="217" y="669" on="1"/>
        <pt x="214" y="645" on="0"/>
        <pt x="166" y="470" on="1"/>
        <pt x="101" y="236" on="1"/>
        <pt x="334" y="236" on="1"/>
      </contour>
    </TTGlyph>
    <TTGlyph name="AE" xMin="19" yMin="-1" xMax="640" yMax="700">
      <contour>
        <pt x="640" y="8" on="0"/>
        <pt x="638" y="0" on="0"/>
        <pt x="632" y="0" on="1"/>
        <pt x="389" y="0" on="1"/>
        <pt x="389" y="212" on="1"/>
        <pt x="157" y="212" on="1"/>
        <pt x="47" y="6" on="1"/>
        <pt x="44" y="-1" on="0"/>
        <pt x="33" y="-1" on="1"/>
        <pt x="19" y="0" on="1"/>
        <pt x="388" y="694" on="1"/>
        <pt x="391" y="700" on="0"/>
        <pt x="396" y="700" on="1"/>
        <pt x="638" y="700" on="1"/>
        <pt x="638" y="684" on="0"/>
        <pt x="636" y="676" on="0"/>
        <pt x="632" y="676" on="1"/>
        <pt x="413" y="676" on="1"/>
        <pt x="413" y="396" on="1"/>
        <pt x="618" y="396" on="1"/>
        <pt x="618" y="380" on="0"/>
        <pt x="616" y="372" on="0"/>
        <pt x="610" y="372" on="1"/>
        <pt x="413" y="372" on="1"/>
        <pt x="413" y="24" on="1"/>
        <pt x="640" y="24" on="1"/>
      </contour>
      <contour>
        <pt x="389" y="657" on="1"/>
        <pt x="334" y="544" on="0"/>
        <pt x="292" y="466" on="1"/>
        <pt x="170" y="236" on="1"/>
        <pt x="389" y="236" on="1"/>
      </contour>
    </TTGlyph>
    <TTGlyph name="Aacute" xMin="10" yMin="-1" xMax="426" yMax="912">
      <component glyphName=".ttfautohint" x="10" y="0" flags="0x0"/>
      <component glyphName="A" x="0" y="0" flags="0x1000"/>
      <component glyphName="acute" x="93" y="200" flags="0x1000"/>
    </TTGlyph>
    <TTGlyph name="Abreve" xMin="10" yMin="-1" xMax="426" yMax="907">
      <component glyphName=".ttfautohint" x="10" y="0" flags="0x0"/>
      <component glyphName="A" x="0" y="0" flags="0x1000"/>
      <component glyphName="breve" x="93" y="200" flags="0x1000"/>
    </TTGlyph>
    <TTGlyph name="Acircumflex" xMin="10" yMin="-1" xMax="426" yMax="899">
      <component glyphName=".ttfautohint" x="10" y="0" flags="0x0"/>
      <component glyphName="A" x="0" y="0" flags="0x1000"/>
      <component glyphName="circumflex" x="93" y="200" flags="0x1000"/>
    </TTGlyph>
    <TTGlyph name="Adieresis" xMin="10" yMin="-1" xMax="426" yMax="870">
      <component glyphName=".ttfautohint" x="10" y="0" flags="0x0"/>
      <component glyphName="A" x="0" y="0" flags="0x1000"/>
      <component glyphName="dieresis" x="93" y="200" flags="0x1000"/>
    </TTGlyph>
    <TTGlyph name="Agrave" xMin="10" yMin="-1" xMax="426" yMax="912">
      <component glyphName=".ttfautohint" x="10" y="0" flags="0x0"/>
      <component glyphName="A" x="0" y="0" flags="0x1000"/>
      <component glyphName="grave" x="93" y="200" flags="0x1000"/>
    </TTGlyph>
    <TTGlyph name="Amacron" xMin="10" yMin="-1" xMax="426" yMax="848">
      <component glyphName=".ttfautohint" x="10" y="0" flags="0x0"/>
      <component glyphName="A" x="0" y="0" flags="0x1000"/>
      <component glyphName="macron" x="93" y="200" flags="0x1000"/>
    </TTGlyph>
    <TTGlyph name="Aogonek" xMin="10" yMin="-195" xMax="426" yMax="705">
      <contour>
        <pt x="210" y="705" on="0"/>
        <pt x="215" y="705" on="1"/>
        <pt x="222" y="705" on="0"/>
        <pt x="224" y="703" on="1"/>
        <pt x="425" y="11" on="1"/>
        <pt x="426" y="7" on="1"/>
        <pt x="426" y="3" on="0"/>
        <pt x="420" y="0" on="1"/>
        <pt x="385" y="-21" on="0"/>
        <pt x="337" y="-84" on="0"/>
        <pt x="337" y="-117" on="1"/>
        <pt x="337" y="-172" on="0"/>
        <pt x="384" y="-172" on="1"/>
        <pt x="402" y="-172" on="0"/>
        <pt x="418" y="-162" on="1"/>
        <pt x="424" y="-172" on="0"/>
        <pt x="424" y="-178" on="1"/>
        <pt x="424" y="-195" on="0"/>
        <pt x="383" y="-195" on="1"/>
        <pt x="350" y="-195" on="0"/>
        <pt x="313" y="-155" on="0"/>
        <pt x="313" y="-118" on="1"/>
        <pt x="313" y="-80" on="0"/>
        <pt x="364" y="-12" on="0"/>
        <pt x="398" y="11" on="1"/>
        <pt x="341" y="212" on="1"/>
        <pt x="95" y="212" on="1"/>
        <pt x="38" y="6" on="1"/>
        <pt x="36" y="-1" on="0"/>
        <pt x="24" y="-1" on="1"/>
        <pt x="10" y="0" on="1"/>
        <pt x="210" y="703" on="1"/>
      </contour>
      <contour>
        <pt x="219" y="649" on="0"/>
        <pt x="217" y="669" on="1"/>
        <pt x="214" y="645" on="0"/>
        <pt x="166" y="470" on="1"/>
        <pt x="101" y="236" on="1"/>
        <pt x="334" y="236" on="1"/>
        <pt x="268" y="470" on="1"/>
      </contour>
    </TTGlyph>
    <TTGlyph name="Aring" xMin="10" yMin="-1" xMax="426" yMax="934">
      <component glyphName=".ttfautohint" x="10" y="0" flags="0x0"/>
      <component glyphName="A" x="0" y="0" flags="0x1000"/>
      <component glyphName="ring" x="93" y="200" flags="0x1000"/>
    </TTGlyph>
    <TTGlyph name="Atilde" xMin="10" yMin="-1" xMax="426" yMax="874">
      <component glyphName=".ttfautohint" x="10" y="0" flags="0x0"/>
      <component glyphName="A" x="0" y="0" flags="0x1000"/>
      <component glyphName="tilde" x="93" y="200" flags="0x1000"/>
    </TTGlyph>
    <TTGlyph name="B" xMin="68" yMin="0" xMax="380" yMax="700">
      <contour>
        <pt x="68" y="700" on="0"/>
        <pt x="92" y="700" on="1"/>
        <pt x="193" y="700" on="1"/>
        <pt x="262" y="700" on="0"/>
        <pt x="359" y="635" on="0"/>
        <pt x="359" y="550" on="1"/>
        <pt x="359" y="466" on="0"/>
        <pt x="297" y="393" on="0"/>
        <pt x="257" y="387" on="1"/>
        <pt x="301" y="386" on="0"/>
        <pt x="380" y="322" on="0"/>
        <pt x="380" y="239" on="1"/>
        <pt x="380" y="88" on="0"/>
        <pt x="255" y="0" on="0"/>
        <pt x="185" y="0" on="1"/>
        <pt x="68" y="0" on="1"/>
        <pt x="68" y="684" on="1"/>
      </contour>
      <contour>
        <pt x="335" y="395" on="0"/>
        <pt x="335" y="549" on="1"/>
        <pt x="335" y="677" on="0"/>
        <pt x="188" y="677" on="1"/>
        <pt x="92" y="677" on="1"/>
        <pt x="92" y="395" on="1"/>
        <pt x="197" y="395" on="1"/>
      </contour>
      <contour>
        <pt x="356" y="24" on="0"/>
        <pt x="356" y="237" on="1"/>
        <pt x="356" y="297" on="0"/>
        <pt x="312" y="356" on="0"/>
        <pt x="242" y="371" on="0"/>
        <pt x="183" y="371" on="1"/>
        <pt x="92" y="371" on="1"/>
        <pt x="92" y="24" on="1"/>
        <pt x="184" y="24" on="1"/>
      </contour>
    </TTGlyph>
    <TTGlyph name="C" xMin="48" yMin="-9" xMax="339" yMax="709">
      <contour>
        <pt x="265" y="709" on="0"/>
        <pt x="307" y="693" on="0"/>
        <pt x="331" y="671" on="0"/>
        <pt x="331" y="663" on="1"/>
        <pt x="331" y="652" on="0"/>
        <pt x="324" y="647" on="1"/>
        <pt x="315" y="658" on="0"/>
        <pt x="266" y="686" on="0"/>
        <pt x="236" y="686" on="1"/>
        <pt x="189" y="686" on="0"/>
        <pt x="120" y="635" on="0"/>
        <pt x="73" y="468" on="0"/>
        <pt x="73" y="306" on="1"/>
        <pt x="73" y="185" on="0"/>
        <pt x="114" y="57" on="0"/>
        <pt x="175" y="16" on="0"/>
        <pt x="214" y="16" on="1"/>
        <pt x="251" y="16" on="0"/>
        <pt x="318" y="54" on="0"/>
        <pt x="332" y="76" on="1"/>
        <pt x="339" y="64" on="0"/>
        <pt x="339" y="58" on="1"/>
        <pt x="339" y="46" on="0"/>
        <pt x="303" y="14" on="0"/>
        <pt x="245" y="-9" on="0"/>
        <pt x="213" y="-9" on="1"/>
        <pt x="168" y="-9" on="0"/>
        <pt x="100" y="26" on="0"/>
        <pt x="48" y="167" on="0"/>
        <pt x="48" y="311" on="1"/>
        <pt x="48" y="481" on="0"/>
        <pt x="103" y="657" on="0"/>
        <pt x="184" y="709" on="0"/>
        <pt x="239" y="709" on="1"/>
      </contour>
    </TTGlyph>
    <TTGlyph name="Cacute" xMin="48" yMin="-9" xMax="339" yMax="912">
      <component glyphName=".ttfautohint" x="48" y="0" flags="0x0"/>
      <component glyphName="C" x="0" y="0" flags="0x1000"/>
      <component glyphName="acute" x="90" y="200" flags="0x1000"/>
    </TTGlyph>
    <TTGlyph name="Ccaron" xMin="48" yMin="-9" xMax="339" yMax="922">
      <component glyphName=".ttfautohint" x="48" y="0" flags="0x0"/>
      <component glyphName="C" x="0" y="0" flags="0x1000"/>
      <component glyphName="caron" x="90" y="200" flags="0x1000"/>
    </TTGlyph>
    <TTGlyph name="Ccedilla" xMin="48" yMin="-177" xMax="339" yMax="709">
      <contour>
        <pt x="163" y="-8" on="0"/>
        <pt x="97" y="31" on="0"/>
        <pt x="48" y="172" on="0"/>
        <pt x="48" y="311" on="1"/>
        <pt x="48" y="481" on="0"/>
        <pt x="103" y="657" on="0"/>
        <pt x="184" y="709" on="0"/>
        <pt x="239" y="709" on="1"/>
        <pt x="265" y="709" on="0"/>
        <pt x="307" y="693" on="0"/>
        <pt x="331" y="671" on="0"/>
        <pt x="331" y="663" on="1"/>
        <pt x="331" y="652" on="0"/>
        <pt x="324" y="647" on="1"/>
        <pt x="315" y="658" on="0"/>
        <pt x="266" y="686" on="0"/>
        <pt x="236" y="686" on="1"/>
        <pt x="189" y="686" on="0"/>
        <pt x="120" y="635" on="0"/>
        <pt x="73" y="468" on="0"/>
        <pt x="73" y="306" on="1"/>
        <pt x="73" y="185" on="0"/>
        <pt x="114" y="57" on="0"/>
        <pt x="175" y="16" on="0"/>
        <pt x="214" y="16" on="1"/>
        <pt x="251" y="16" on="0"/>
        <pt x="318" y="54" on="0"/>
        <pt x="332" y="76" on="1"/>
        <pt x="339" y="64" on="0"/>
        <pt x="339" y="58" on="1"/>
        <pt x="339" y="47" on="0"/>
        <pt x="310" y="18" on="0"/>
        <pt x="260" y="-5" on="0"/>
        <pt x="231" y="-8" on="1"/>
        <pt x="220" y="-61" on="1"/>
        <pt x="221" y="-61" on="0"/>
        <pt x="231" y="-59" on="0"/>
        <pt x="239" y="-59" on="1"/>
        <pt x="258" y="-59" on="0"/>
        <pt x="286" y="-84" on="0"/>
        <pt x="286" y="-110" on="1"/>
        <pt x="286" y="-177" on="0"/>
        <pt x="224" y="-177" on="1"/>
        <pt x="208" y="-177" on="0"/>
        <pt x="179" y="-172" on="0"/>
        <pt x="175" y="-171" on="1"/>
        <pt x="175" y="-166" on="0"/>
        <pt x="180" y="-146" on="0"/>
        <pt x="186" y="-146" on="1"/>
        <pt x="189" y="-146" on="0"/>
        <pt x="215" y="-154" on="0"/>
        <pt x="224" y="-154" on="1"/>
        <pt x="262" y="-154" on="0"/>
        <pt x="262" y="-116" on="1"/>
        <pt x="262" y="-80" on="0"/>
        <pt x="225" y="-80" on="1"/>
        <pt x="215" y="-80" on="0"/>
        <pt x="193" y="-84" on="0"/>
        <pt x="190" y="-85" on="1"/>
        <pt x="206" y="-9" on="1"/>
      </contour>
    </TTGlyph>
    <TTGlyph name="D" xMin="70" yMin="0" xMax="389" yMax="700">
      <contour>
        <pt x="291" y="700" on="0"/>
        <pt x="389" y="549" on="0"/>
        <pt x="389" y="388" on="1"/>
        <pt x="389" y="228" on="0"/>
        <pt x="333" y="57" on="0"/>
        <pt x="246" y="0" on="0"/>
        <pt x="187" y="0" on="1"/>
        <pt x="70" y="0" on="1"/>
        <pt x="70" y="684" on="1"/>
        <pt x="70" y="700" on="0"/>
        <pt x="94" y="700" on="1"/>
        <pt x="195" y="700" on="1"/>
      </contour>
      <contour>
        <pt x="239" y="24" on="0"/>
        <pt x="316" y="78" on="0"/>
        <pt x="365" y="238" on="0"/>
        <pt x="365" y="388" on="1"/>
        <pt x="365" y="537" on="0"/>
        <pt x="282" y="676" on="0"/>
        <pt x="190" y="676" on="1"/>
        <pt x="94" y="676" on="1"/>
        <pt x="94" y="24" on="1"/>
        <pt x="186" y="24" on="1"/>
      </contour>
    </TTGlyph>
    <TTGlyph name="Dcaron" xMin="70" yMin="0" xMax="389" yMax="922">
      <component glyphName=".ttfautohint" x="70" y="0" flags="0x0"/>
      <component glyphName="D" x="0" y="0" flags="0x1000"/>
      <component glyphName="caron" x="65" y="200" flags="0x1000"/>
    </TTGlyph>
    <TTGlyph name="Dcroat" xMin="69" yMin="0" xMax="389" yMax="848">
      <component glyphName=".ttfautohint" x="69" y="0" flags="0x0"/>
      <component glyphName="D" x="0" y="0" flags="0x1000"/>
      <component glyphName="macron" x="65" y="200" flags="0x1000"/>
    </TTGlyph>
    <TTGlyph name="Delta" xMin="33" yMin="0" xMax="435" yMax="703">
      <contour>
        <pt x="219" y="703" on="0"/>
        <pt x="235" y="703" on="1"/>
        <pt x="241" y="703" on="0"/>
        <pt x="245" y="701" on="1"/>
        <pt x="435" y="0" on="1"/>
        <pt x="33" y="0" on="1"/>
        <pt x="214" y="684" on="1"/>
      </contour>
      <contour>
        <pt x="233" y="654" on="1"/>
        <pt x="231" y="654" on="1"/>
        <pt x="65" y="24" on="1"/>
        <pt x="404" y="24" on="1"/>
      </contour>
    </TTGlyph>
    <TTGlyph name="E" xMin="71" yMin="0" xMax="322" yMax="700">
      <contour>
        <pt x="322" y="8" on="0"/>
        <pt x="320" y="0" on="0"/>
        <pt x="314" y="0" on="1"/>
        <pt x="71" y="0" on="1"/>
        <pt x="71" y="690" on="1"/>
        <pt x="71" y="693" on="0"/>
        <pt x="75" y="700" on="0"/>
        <pt x="81" y="700" on="1"/>
        <pt x="320" y="700" on="1"/>
        <pt x="320" y="684" on="0"/>
        <pt x="318" y="676" on="0"/>
        <pt x="314" y="676" on="1"/>
        <pt x="95" y="676" on="1"/>
        <pt x="95" y="396" on="1"/>
        <pt x="300" y="396" on="1"/>
        <pt x="300" y="380" on="0"/>
        <pt x="298" y="372" on="0"/>
        <pt x="292" y="372" on="1"/>
        <pt x="95" y="372" on="1"/>
        <pt x="95" y="24" on="1"/>
        <pt x="322" y="24" on="1"/>
      </contour>
    </TTGlyph>
    <TTGlyph name="Eacute" xMin="71" yMin="0" xMax="322" yMax="912">
      <component glyphName=".ttfautohint" x="71" y="0" flags="0x0"/>
      <component glyphName="E" x="0" y="0" flags="0x1000"/>
      <component glyphName="acute" x="72" y="200" flags="0x1000"/>
    </TTGlyph>
    <TTGlyph name="Ecaron" xMin="71" yMin="0" xMax="322" yMax="922">
      <component glyphName=".ttfautohint" x="71" y="0" flags="0x0"/>
      <component glyphName="E" x="0" y="0" flags="0x1000"/>
      <component glyphName="caron" x="72" y="200" flags="0x1000"/>
    </TTGlyph>
    <TTGlyph name="Ecircumflex" xMin="71" yMin="0" xMax="322" yMax="899">
      <component glyphName=".ttfautohint" x="71" y="0" flags="0x0"/>
      <component glyphName="E" x="0" y="0" flags="0x1000"/>
      <component glyphName="circumflex" x="72" y="200" flags="0x1000"/>
    </TTGlyph>
    <TTGlyph name="Edieresis" xMin="71" yMin="0" xMax="322" yMax="870">
      <component glyphName=".ttfautohint" x="71" y="0" flags="0x0"/>
      <component glyphName="E" x="0" y="0" flags="0x1000"/>
      <component glyphName="dieresis" x="72" y="200" flags="0x1000"/>
    </TTGlyph>
    <TTGlyph name="Edotaccent" xMin="71" yMin="0" xMax="322" yMax="870">
      <component glyphName=".ttfautohint" x="71" y="0" flags="0x0"/>
      <component glyphName="E" x="0" y="0" flags="0x1000"/>
      <component glyphName="dotaccent" x="72" y="200" flags="0x1000"/>
    </TTGlyph>
    <TTGlyph name="Egrave" xMin="71" yMin="0" xMax="322" yMax="912">
      <component glyphName=".ttfautohint" x="71" y="0" flags="0x0"/>
      <component glyphName="E" x="0" y="0" flags="0x1000"/>
      <component glyphName="grave" x="72" y="200" flags="0x1000"/>
    </TTGlyph>
    <TTGlyph name="Emacron" xMin="71" yMin="0" xMax="322" yMax="848">
      <component glyphName=".ttfautohint" x="71" y="0" flags="0x0"/>
      <component glyphName="E" x="0" y="0" flags="0x1000"/>
      <component glyphName="macron" x="72" y="200" flags="0x1000"/>
    </TTGlyph>
    <TTGlyph name="Eogonek" xMin="71" yMin="-195" xMax="322" yMax="700">
      <contour>
        <pt x="322" y="11" on="0"/>
        <pt x="319" y="3" on="0"/>
        <pt x="312" y="-2" on="1"/>
        <pt x="278" y="-24" on="0"/>
        <pt x="233" y="-86" on="0"/>
        <pt x="233" y="-119" on="1"/>
        <pt x="233" y="-172" on="0"/>
        <pt x="279" y="-172" on="1"/>
        <pt x="297" y="-172" on="0"/>
        <pt x="314" y="-162" on="1"/>
        <pt x="320" y="-172" on="0"/>
        <pt x="320" y="-178" on="1"/>
        <pt x="320" y="-195" on="0"/>
        <pt x="278" y="-195" on="1"/>
        <pt x="246" y="-195" on="0"/>
        <pt x="209" y="-156" on="0"/>
        <pt x="209" y="-119" on="1"/>
        <pt x="209" y="-86" on="0"/>
        <pt x="249" y="-22" on="0"/>
        <pt x="279" y="0" on="1"/>
        <pt x="71" y="0" on="1"/>
        <pt x="71" y="690" on="1"/>
        <pt x="71" y="693" on="0"/>
        <pt x="75" y="700" on="0"/>
        <pt x="81" y="700" on="1"/>
        <pt x="320" y="700" on="1"/>
        <pt x="320" y="684" on="0"/>
        <pt x="318" y="676" on="0"/>
        <pt x="314" y="676" on="1"/>
        <pt x="95" y="676" on="1"/>
        <pt x="95" y="396" on="1"/>
        <pt x="300" y="396" on="1"/>
        <pt x="300" y="380" on="0"/>
        <pt x="298" y="372" on="0"/>
        <pt x="292" y="372" on="1"/>
        <pt x="95" y="372" on="1"/>
        <pt x="95" y="24" on="1"/>
        <pt x="322" y="24" on="1"/>
      </contour>
    </TTGlyph>
    <TTGlyph name="Eth" xMin="20" yMin="0" xMax="389" yMax="700">
      <contour>
        <pt x="291" y="700" on="0"/>
        <pt x="389" y="549" on="0"/>
        <pt x="389" y="388" on="1"/>
        <pt x="389" y="228" on="0"/>
        <pt x="333" y="57" on="0"/>
        <pt x="246" y="0" on="0"/>
        <pt x="187" y="0" on="1"/>
        <pt x="70" y="0" on="1"/>
        <pt x="70" y="359" on="1"/>
        <pt x="20" y="359" on="1"/>
        <pt x="20" y="376" on="0"/>
        <pt x="23" y="384" on="0"/>
        <pt x="30" y="384" on="1"/>
        <pt x="70" y="384" on="1"/>
        <pt x="70" y="684" on="1"/>
        <pt x="70" y="700" on="0"/>
        <pt x="94" y="700" on="1"/>
        <pt x="195" y="700" on="1"/>
      </contour>
      <contour>
        <pt x="239" y="24" on="0"/>
        <pt x="316" y="78" on="0"/>
        <pt x="365" y="238" on="0"/>
        <pt x="365" y="388" on="1"/>
        <pt x="365" y="537" on="0"/>
        <pt x="282" y="676" on="0"/>
        <pt x="190" y="676" on="1"/>
        <pt x="94" y="676" on="1"/>
        <pt x="94" y="384" on="1"/>
        <pt x="227" y="384" on="1"/>
        <pt x="227" y="367" on="0"/>
        <pt x="224" y="359" on="0"/>
        <pt x="217" y="359" on="1"/>
        <pt x="94" y="359" on="1"/>
        <pt x="94" y="24" on="1"/>
        <pt x="186" y="24" on="1"/>
      </contour>
    </TTGlyph>
    <TTGlyph name="Euro" xMin="28" yMin="-10" xMax="410" yMax="605">
      <contour>
        <pt x="151" y="133" on="0"/>
        <pt x="195" y="41" on="0"/>
        <pt x="256" y="14" on="0"/>
        <pt x="296" y="14" on="1"/>
        <pt x="327" y="14" on="0"/>
        <pt x="388" y="43" on="0"/>
        <pt x="403" y="62" on="1"/>
        <pt x="410" y="53" on="0"/>
        <pt x="410" y="42" on="1"/>
        <pt x="410" y="35" on="0"/>
        <pt x="375" y="9" on="0"/>
        <pt x="322" y="-10" on="0"/>
        <pt x="294" y="-10" on="1"/>
        <pt x="247" y="-10" on="0"/>
        <pt x="177" y="21" on="0"/>
        <pt x="127" y="124" on="0"/>
        <pt x="122" y="224" on="1"/>
        <pt x="28" y="224" on="1"/>
        <pt x="28" y="237" on="0"/>
        <pt x="33" y="246" on="0"/>
        <pt x="42" y="246" on="1"/>
        <pt x="121" y="246" on="1"/>
        <pt x="121" y="266" on="1"/>
        <pt x="121" y="318" on="0"/>
        <pt x="126" y="368" on="1"/>
        <pt x="28" y="368" on="1"/>
        <pt x="28" y="381" on="0"/>
        <pt x="33" y="390" on="0"/>
        <pt x="42" y="390" on="1"/>
        <pt x="128" y="390" on="1"/>
        <pt x="145" y="519" on="0"/>
        <pt x="241" y="605" on="0"/>
        <pt x="310" y="605" on="1"/>
        <pt x="335" y="605" on="0"/>
        <pt x="377" y="590" on="0"/>
        <pt x="402" y="572" on="0"/>
        <pt x="402" y="569" on="1"/>
        <pt x="402" y="555" on="0"/>
        <pt x="394" y="551" on="1"/>
        <pt x="383" y="560" on="0"/>
        <pt x="339" y="581" on="0"/>
        <pt x="313" y="581" on="1"/>
        <pt x="274" y="581" on="0"/>
        <pt x="213" y="556" on="0"/>
        <pt x="164" y="472" on="0"/>
        <pt x="153" y="390" on="1"/>
        <pt x="340" y="390" on="1"/>
        <pt x="340" y="377" on="0"/>
        <pt x="335" y="368" on="0"/>
        <pt x="326" y="368" on="1"/>
        <pt x="151" y="368" on="1"/>
        <pt x="146" y="316" on="0"/>
        <pt x="146" y="262" on="1"/>
        <pt x="146" y="246" on="1"/>
        <pt x="298" y="246" on="1"/>
        <pt x="298" y="233" on="0"/>
        <pt x="293" y="224" on="0"/>
        <pt x="284" y="224" on="1"/>
        <pt x="147" y="224" on="1"/>
      </contour>
    </TTGlyph>
    <TTGlyph name="F" xMin="71" yMin="0" xMax="320" yMax="700">
      <contour>
        <pt x="320" y="684" on="0"/>
        <pt x="318" y="676" on="0"/>
        <pt x="314" y="676" on="1"/>
        <pt x="95" y="676" on="1"/>
        <pt x="95" y="397" on="1"/>
        <pt x="300" y="397" on="1"/>
        <pt x="300" y="381" on="0"/>
        <pt x="298" y="373" on="0"/>
        <pt x="292" y="373" on="1"/>
        <pt x="95" y="373" on="1"/>
        <pt x="95" y="10" on="1"/>
        <pt x="95" y="8" on="0"/>
        <pt x="91" y="0" on="0"/>
        <pt x="85" y="0" on="1"/>
        <pt x="71" y="0" on="1"/>
        <pt x="71" y="690" on="1"/>
        <pt x="71" y="693" on="0"/>
        <pt x="75" y="700" on="0"/>
        <pt x="81" y="700" on="1"/>
        <pt x="320" y="700" on="1"/>
      </contour>
    </TTGlyph>
    <TTGlyph name="G" xMin="48" yMin="-10" xMax="367" yMax="710">
      <contour>
        <pt x="357" y="37" on="0"/>
        <pt x="293" y="-10" on="0"/>
        <pt x="233" y="-10" on="1"/>
        <pt x="176" y="-10" on="0"/>
        <pt x="96" y="45" on="0"/>
        <pt x="48" y="201" on="0"/>
        <pt x="48" y="346" on="1"/>
        <pt x="48" y="489" on="0"/>
        <pt x="99" y="649" on="0"/>
        <pt x="188" y="710" on="0"/>
        <pt x="253" y="710" on="1"/>
        <pt x="294" y="710" on="0"/>
        <pt x="356" y="686" on="0"/>
        <pt x="356" y="671" on="1"/>
        <pt x="356" y="663" on="0"/>
        <pt x="351" y="655" on="1"/>
        <pt x="311" y="686" on="0"/>
        <pt x="256" y="686" on="1"/>
        <pt x="198" y="686" on="0"/>
        <pt x="118" y="630" on="0"/>
        <pt x="72" y="481" on="0"/>
        <pt x="72" y="346" on="1"/>
        <pt x="72" y="205" on="0"/>
        <pt x="115" y="60" on="0"/>
        <pt x="184" y="14" on="0"/>
        <pt x="235" y="14" on="1"/>
        <pt x="277" y="14" on="0"/>
        <pt x="336" y="50" on="0"/>
        <pt x="343" y="67" on="1"/>
        <pt x="343" y="360" on="1"/>
        <pt x="218" y="360" on="1"/>
        <pt x="218" y="374" on="1"/>
        <pt x="218" y="384" on="0"/>
        <pt x="228" y="384" on="1"/>
        <pt x="367" y="384" on="1"/>
        <pt x="367" y="60" on="1"/>
      </contour>
    </TTGlyph>
    <TTGlyph name="Gamma" xMin="77" yMin="0" xMax="307" yMax="700">
      <component glyphName=".ttfautohint" x="77" y="0" flags="0x0"/>
      <component glyphName="uni0413" x="0" y="0" flags="0x1000"/>
    </TTGlyph>
    <TTGlyph name="Gbreve" xMin="48" yMin="-10" xMax="367" yMax="907">
      <component glyphName=".ttfautohint" x="48" y="0" flags="0x0"/>
      <component glyphName="G" x="0" y="0" flags="0x1000"/>
      <component glyphName="breve" x="103" y="200" flags="0x1000"/>
    </TTGlyph>
    <TTGlyph name="Gcommaaccent" xMin="48" yMin="-235" xMax="367" yMax="710">
      <component glyphName=".ttfautohint" x="48" y="0" flags="0x0"/>
      <component glyphName="G" x="0" y="0" flags="0x1000"/>
      <component glyphName="commaaccentcomb" x="93" y="0" flags="0x1000"/>
    </TTGlyph>
    <TTGlyph name="H" xMin="68" yMin="0" xMax="391" yMax="700">
      <contour>
        <pt x="367" y="697" on="0"/>
        <pt x="374" y="700" on="0"/>
        <pt x="391" y="700" on="1"/>
        <pt x="391" y="10" on="1"/>
        <pt x="391" y="3" on="0"/>
        <pt x="385" y="0" on="0"/>
        <pt x="367" y="0" on="1"/>
        <pt x="367" y="373" on="1"/>
        <pt x="92" y="373" on="1"/>
        <pt x="92" y="10" on="1"/>
        <pt x="92" y="3" on="0"/>
        <pt x="86" y="0" on="0"/>
        <pt x="68" y="0" on="1"/>
        <pt x="68" y="690" on="1"/>
        <pt x="68" y="697" on="0"/>
        <pt x="74" y="700" on="0"/>
        <pt x="92" y="700" on="1"/>
        <pt x="92" y="397" on="1"/>
        <pt x="367" y="397" on="1"/>
        <pt x="367" y="690" on="1"/>
      </contour>
    </TTGlyph>
    <TTGlyph name="I" xMin="68" yMin="0" xMax="93" yMax="700">
      <contour>
        <pt x="68" y="696" on="0"/>
        <pt x="75" y="700" on="0"/>
        <pt x="93" y="700" on="1"/>
        <pt x="93" y="10" on="1"/>
        <pt x="93" y="3" on="0"/>
        <pt x="86" y="0" on="0"/>
        <pt x="68" y="0" on="1"/>
        <pt x="68" y="684" on="1"/>
      </contour>
    </TTGlyph>
    <TTGlyph name="IJ" xMin="68" yMin="-10" xMax="390" yMax="700">
      <component glyphName=".ttfautohint" x="68" y="0" flags="0x0"/>
      <component glyphName="I" x="0" y="0" flags="0x1000"/>
      <component glyphName="J" x="161" y="0" flags="0x1000"/>
    </TTGlyph>
    <TTGlyph name="Iacute" xMin="5" yMin="0" xMax="157" yMax="912">
      <component glyphName=".ttfautohint" x="5" y="0" flags="0x0"/>
      <component glyphName="I" x="0" y="0" flags="0x1000"/>
      <component glyphName="acute" x="-44" y="200" flags="0x1000"/>
    </TTGlyph>
    <TTGlyph name="Icircumflex" xMin="-33" yMin="0" xMax="195" yMax="899">
      <component glyphName=".ttfautohint" x="0" y="0" flags="0x0"/>
      <component glyphName="I" x="0" y="0" flags="0x1000"/>
      <component glyphName="circumflex" x="-44" y="200" flags="0x1000"/>
    </TTGlyph>
    <TTGlyph name="Idieresis" xMin="13" yMin="0" xMax="150" yMax="870">
      <component glyphName=".ttfautohint" x="13" y="0" flags="0x0"/>
      <component glyphName="I" x="0" y="0" flags="0x1000"/>
      <component glyphName="dieresis" x="-44" y="200" flags="0x1000"/>
    </TTGlyph>
    <TTGlyph name="Idotaccent" xMin="63" yMin="0" xMax="100" yMax="870">
      <component glyphName=".ttfautohint" x="63" y="0" flags="0x0"/>
      <component glyphName="I" x="0" y="0" flags="0x1000"/>
      <component glyphName="dotaccent" x="-44" y="200" flags="0x1000"/>
    </TTGlyph>
    <TTGlyph name="Igrave" xMin="5" yMin="0" xMax="157" yMax="912">
      <component glyphName=".ttfautohint" x="5" y="0" flags="0x0"/>
      <component glyphName="I" x="0" y="0" flags="0x1000"/>
      <component glyphName="grave" x="-44" y="200" flags="0x1000"/>
    </TTGlyph>
    <TTGlyph name="Imacron" xMin="-40" yMin="0" xMax="202" yMax="848">
      <component glyphName=".ttfautohint" x="0" y="0" flags="0x0"/>
      <component glyphName="I" x="0" y="0" flags="0x1000"/>
      <component glyphName="macron" x="-44" y="200" flags="0x1000"/>
    </TTGlyph>
    <TTGlyph name="Iogonek" xMin="-7" yMin="-195" xMax="104" yMax="700">
      <contour>
        <pt x="92" y="3" on="0"/>
        <pt x="79" y="-6" on="1"/>
        <pt x="54" y="-26" on="0"/>
        <pt x="17" y="-89" on="0"/>
        <pt x="17" y="-122" on="1"/>
        <pt x="17" y="-171" on="0"/>
        <pt x="64" y="-171" on="1"/>
        <pt x="80" y="-171" on="0"/>
        <pt x="98" y="-162" on="1"/>
        <pt x="104" y="-168" on="0"/>
        <pt x="104" y="-177" on="1"/>
        <pt x="105" y="-185" on="0"/>
        <pt x="82" y="-195" on="0"/>
        <pt x="64" y="-195" on="1"/>
        <pt x="29" y="-195" on="0"/>
        <pt x="-7" y="-156" on="0"/>
        <pt x="-7" y="-121" on="1"/>
        <pt x="-7" y="-51" on="0"/>
        <pt x="68" y="12" on="1"/>
        <pt x="68" y="684" on="1"/>
        <pt x="68" y="696" on="0"/>
        <pt x="74" y="700" on="0"/>
        <pt x="92" y="700" on="1"/>
        <pt x="92" y="10" on="1"/>
      </contour>
    </TTGlyph>
    <TTGlyph name="J" xMin="21" yMin="-10" xMax="229" yMax="700">
      <contour>
        <pt x="205" y="696" on="0"/>
        <pt x="211" y="700" on="0"/>
        <pt x="229" y="700" on="1"/>
        <pt x="229" y="172" on="1"/>
        <pt x="229" y="120" on="0"/>
        <pt x="217" y="45" on="0"/>
        <pt x="167" y="-10" on="0"/>
        <pt x="116" y="-10" on="1"/>
        <pt x="77" y="-10" on="0"/>
        <pt x="21" y="19" on="0"/>
        <pt x="21" y="35" on="1"/>
        <pt x="21" y="46" on="0"/>
        <pt x="29" y="54" on="1"/>
        <pt x="62" y="14" on="0"/>
        <pt x="115" y="14" on="1"/>
        <pt x="156" y="14" on="0"/>
        <pt x="195" y="61" on="0"/>
        <pt x="205" y="130" on="0"/>
        <pt x="205" y="184" on="1"/>
        <pt x="205" y="685" on="1"/>
      </contour>
    </TTGlyph>
    <TTGlyph name="K" xMin="68" yMin="-1" xMax="372" yMax="700">
      <contour>
        <pt x="267" y="314" on="0"/>
        <pt x="370" y="13" on="1"/>
        <pt x="372" y="7" on="0"/>
        <pt x="372" y="6" on="1"/>
        <pt x="372" y="-1" on="0"/>
        <pt x="363" y="-1" on="1"/>
        <pt x="354" y="-1" on="0"/>
        <pt x="350" y="0" on="1"/>
        <pt x="312" y="102" on="0"/>
        <pt x="243" y="233" on="0"/>
        <pt x="186" y="305" on="0"/>
        <pt x="151" y="339" on="1"/>
        <pt x="131" y="359" on="0"/>
        <pt x="92" y="376" on="1"/>
        <pt x="92" y="10" on="1"/>
        <pt x="92" y="3" on="0"/>
        <pt x="86" y="0" on="0"/>
        <pt x="68" y="0" on="1"/>
        <pt x="68" y="690" on="1"/>
        <pt x="68" y="698" on="0"/>
        <pt x="74" y="700" on="0"/>
        <pt x="92" y="700" on="1"/>
        <pt x="92" y="399" on="1"/>
        <pt x="342" y="699" on="1"/>
        <pt x="347" y="700" on="0"/>
        <pt x="357" y="700" on="1"/>
        <pt x="368" y="700" on="0"/>
        <pt x="368" y="694" on="1"/>
        <pt x="368" y="692" on="0"/>
        <pt x="363" y="685" on="1"/>
        <pt x="115" y="392" on="1"/>
      </contour>
    </TTGlyph>
    <TTGlyph name="Kcommaaccent" xMin="68" yMin="-235" xMax="372" yMax="700">
      <component glyphName=".ttfautohint" x="68" y="0" flags="0x0"/>
      <component glyphName="K" x="0" y="0" flags="0x1000"/>
      <component glyphName="commaaccentcomb" x="71" y="0" flags="0x1000"/>
    </TTGlyph>
    <TTGlyph name="L" xMin="68" yMin="0" xMax="323" yMax="700">
      <contour>
        <pt x="323" y="10" on="1"/>
        <pt x="323" y="0" on="0"/>
        <pt x="313" y="0" on="1"/>
        <pt x="68" y="0" on="1"/>
        <pt x="68" y="685" on="1"/>
        <pt x="68" y="696" on="0"/>
        <pt x="75" y="700" on="0"/>
        <pt x="94" y="700" on="1"/>
        <pt x="94" y="23" on="1"/>
        <pt x="323" y="23" on="1"/>
      </contour>
    </TTGlyph>
    <TTGlyph name="Lacute" xMin="68" yMin="0" xMax="323" yMax="912">
      <component glyphName=".ttfautohint" x="68" y="0" flags="0x0"/>
      <component glyphName="L" x="0" y="0" flags="0x1000"/>
      <component glyphName="acute" x="47" y="200" flags="0x1000"/>
    </TTGlyph>
    <TTGlyph name="Lcaron" xMin="68" yMin="0" xMax="323" yMax="700">
      <contour>
        <pt x="323" y="10" on="1"/>
        <pt x="323" y="0" on="0"/>
        <pt x="313" y="0" on="1"/>
        <pt x="68" y="0" on="1"/>
        <pt x="68" y="685" on="1"/>
        <pt x="68" y="696" on="0"/>
        <pt x="75" y="700" on="0"/>
        <pt x="94" y="700" on="1"/>
        <pt x="94" y="23" on="1"/>
        <pt x="323" y="23" on="1"/>
      </contour>
      <contour>
        <pt x="242" y="663" on="0"/>
        <pt x="268" y="663" on="1"/>
        <pt x="281" y="663" on="0"/>
        <pt x="293" y="649" on="0"/>
        <pt x="293" y="629" on="1"/>
        <pt x="293" y="603" on="0"/>
        <pt x="277" y="522" on="0"/>
        <pt x="256" y="460" on="0"/>
        <pt x="249" y="460" on="1"/>
        <pt x="245" y="460" on="0"/>
        <pt x="237" y="468" on="0"/>
        <pt x="236" y="472" on="1"/>
        <pt x="247" y="497" on="0"/>
        <pt x="258" y="577" on="0"/>
        <pt x="257" y="606" on="1"/>
        <pt x="242" y="615" on="0"/>
        <pt x="242" y="635" on="1"/>
      </contour>
    </TTGlyph>
    <TTGlyph name="Lcommaaccent" xMin="68" yMin="-235" xMax="323" yMax="700">
      <component glyphName=".ttfautohint" x="68" y="0" flags="0x0"/>
      <component glyphName="L" x="0" y="0" flags="0x1000"/>
      <component glyphName="commaaccentcomb" x="47" y="0" flags="0x1000"/>
    </TTGlyph>
    <TTGlyph name="Ldot" xMin="68" yMin="0" xMax="323" yMax="700">
      <contour>
        <pt x="323" y="10" on="1"/>
        <pt x="323" y="0" on="0"/>
        <pt x="313" y="0" on="1"/>
        <pt x="68" y="0" on="1"/>
        <pt x="68" y="685" on="1"/>
        <pt x="68" y="696" on="0"/>
        <pt x="75" y="700" on="0"/>
        <pt x="94" y="700" on="1"/>
        <pt x="94" y="23" on="1"/>
        <pt x="323" y="23" on="1"/>
      </contour>
      <contour>
        <pt x="202" y="336" on="0"/>
        <pt x="217" y="353" on="0"/>
        <pt x="229" y="353" on="1"/>
        <pt x="241" y="353" on="0"/>
        <pt x="258" y="335" on="0"/>
        <pt x="258" y="323" on="1"/>
        <pt x="258" y="309" on="0"/>
        <pt x="242" y="292" on="0"/>
        <pt x="229" y="292" on="1"/>
        <pt x="216" y="292" on="0"/>
        <pt x="202" y="309" on="0"/>
        <pt x="202" y="323" on="1"/>
      </contour>
    </TTGlyph>
    <TTGlyph name="Lslash" xMin="11" yMin="0" xMax="323" yMax="700">
      <contour>
        <pt x="323" y="10" on="1"/>
        <pt x="323" y="8" on="0"/>
        <pt x="319" y="0" on="0"/>
        <pt x="313" y="0" on="1"/>
        <pt x="68" y="0" on="1"/>
        <pt x="68" y="349" on="1"/>
        <pt x="17" y="328" on="1"/>
        <pt x="11" y="343" on="0"/>
        <pt x="11" y="348" on="1"/>
        <pt x="11" y="352" on="0"/>
        <pt x="17" y="355" on="1"/>
        <pt x="68" y="376" on="1"/>
        <pt x="68" y="685" on="1"/>
        <pt x="68" y="696" on="0"/>
        <pt x="75" y="700" on="0"/>
        <pt x="94" y="700" on="1"/>
        <pt x="94" y="386" on="1"/>
        <pt x="200" y="429" on="1"/>
        <pt x="206" y="413" on="0"/>
        <pt x="206" y="409" on="1"/>
        <pt x="206" y="405" on="0"/>
        <pt x="200" y="402" on="1"/>
        <pt x="94" y="359" on="1"/>
        <pt x="94" y="23" on="1"/>
        <pt x="323" y="23" on="1"/>
      </contour>
    </TTGlyph>
    <TTGlyph name="M" xMin="68" yMin="0" xMax="442" yMax="700">
      <contour>
        <pt x="418" y="692" on="0"/>
        <pt x="423" y="700" on="0"/>
        <pt x="428" y="700" on="1"/>
        <pt x="442" y="700" on="1"/>
        <pt x="442" y="10" on="1"/>
        <pt x="442" y="3" on="0"/>
        <pt x="436" y="0" on="0"/>
        <pt x="418" y="0" on="1"/>
        <pt x="418" y="342" on="1"/>
        <pt x="418" y="608" on="1"/>
        <pt x="330" y="328" on="1"/>
        <pt x="267" y="139" on="1"/>
        <pt x="264" y="129" on="0"/>
        <pt x="256" y="129" on="1"/>
        <pt x="241" y="129" on="1"/>
        <pt x="180" y="328" on="1"/>
        <pt x="92" y="603" on="1"/>
        <pt x="92" y="352" on="1"/>
        <pt x="92" y="10" on="1"/>
        <pt x="92" y="3" on="0"/>
        <pt x="86" y="0" on="0"/>
        <pt x="68" y="0" on="1"/>
        <pt x="68" y="690" on="1"/>
        <pt x="68" y="700" on="0"/>
        <pt x="78" y="700" on="1"/>
        <pt x="89" y="700" on="1"/>
        <pt x="214" y="293" on="1"/>
        <pt x="254" y="163" on="1"/>
        <pt x="293" y="289" on="1"/>
        <pt x="418" y="690" on="1"/>
      </contour>
    </TTGlyph>
    <TTGlyph name="N" xMin="68" yMin="0" xMax="402" yMax="700">
      <contour>
        <pt x="378" y="697" on="0"/>
        <pt x="384" y="700" on="0"/>
        <pt x="402" y="700" on="1"/>
        <pt x="402" y="10" on="1"/>
        <pt x="402" y="0" on="0"/>
        <pt x="392" y="0" on="1"/>
        <pt x="380" y="0" on="1"/>
        <pt x="249" y="288" on="1"/>
        <pt x="92" y="637" on="1"/>
        <pt x="92" y="257" on="1"/>
        <pt x="92" y="10" on="1"/>
        <pt x="92" y="2" on="0"/>
        <pt x="86" y="0" on="0"/>
        <pt x="68" y="0" on="1"/>
        <pt x="68" y="690" on="1"/>
        <pt x="68" y="700" on="0"/>
        <pt x="78" y="700" on="1"/>
        <pt x="90" y="700" on="1"/>
        <pt x="218" y="417" on="1"/>
        <pt x="378" y="63" on="1"/>
        <pt x="378" y="450" on="1"/>
        <pt x="378" y="690" on="1"/>
      </contour>
    </TTGlyph>
    <TTGlyph name="Nacute" xMin="68" yMin="0" xMax="402" yMax="912">
      <component glyphName=".ttfautohint" x="68" y="0" flags="0x0"/>
      <component glyphName="N" x="0" y="0" flags="0x1000"/>
      <component glyphName="acute" x="110" y="200" flags="0x1000"/>
    </TTGlyph>
    <TTGlyph name="Ncaron" xMin="68" yMin="0" xMax="402" yMax="922">
      <component glyphName=".ttfautohint" x="68" y="0" flags="0x0"/>
      <component glyphName="N" x="0" y="0" flags="0x1000"/>
      <component glyphName="caron" x="110" y="200" flags="0x1000"/>
    </TTGlyph>
    <TTGlyph name="Ncommaaccent" xMin="68" yMin="-235" xMax="402" yMax="700">
      <component glyphName=".ttfautohint" x="68" y="0" flags="0x0"/>
      <component glyphName="N" x="0" y="0" flags="0x1000"/>
      <component glyphName="commaaccentcomb" x="110" y="0" flags="0x1000"/>
    </TTGlyph>
    <TTGlyph name="Ntilde" xMin="68" yMin="0" xMax="402" yMax="874">
      <component glyphName=".ttfautohint" x="68" y="0" flags="0x0"/>
      <component glyphName="N" x="0" y="0" flags="0x1000"/>
      <component glyphName="tilde" x="110" y="200" flags="0x1000"/>
    </TTGlyph>
    <TTGlyph name="O" xMin="48" yMin="-10" xMax="418" yMax="710">
      <contour>
        <pt x="48" y="543" on="0"/>
        <pt x="142" y="710" on="0"/>
        <pt x="241" y="710" on="1"/>
        <pt x="306" y="710" on="0"/>
        <pt x="383" y="641" on="0"/>
        <pt x="418" y="486" on="0"/>
        <pt x="418" y="355" on="1"/>
        <pt x="418" y="223" on="0"/>
        <pt x="379" y="63" on="0"/>
        <pt x="297" y="-10" on="0"/>
        <pt x="230" y="-10" on="1"/>
        <pt x="165" y="-10" on="0"/>
        <pt x="86" y="59" on="0"/>
        <pt x="48" y="218" on="0"/>
        <pt x="48" y="355" on="1"/>
      </contour>
      <contour>
        <pt x="72" y="222" on="0"/>
        <pt x="105" y="78" on="0"/>
        <pt x="173" y="14" on="0"/>
        <pt x="229" y="14" on="1"/>
        <pt x="288" y="14" on="0"/>
        <pt x="360" y="81" on="0"/>
        <pt x="394" y="231" on="0"/>
        <pt x="394" y="358" on="1"/>
        <pt x="394" y="481" on="0"/>
        <pt x="362" y="624" on="0"/>
        <pt x="295" y="686" on="0"/>
        <pt x="240" y="686" on="1"/>
        <pt x="183" y="686" on="0"/>
        <pt x="109" y="619" on="0"/>
        <pt x="72" y="468" on="0"/>
        <pt x="72" y="343" on="1"/>
      </contour>
    </TTGlyph>
    <TTGlyph name="OE" xMin="48" yMin="-10" xMax="635" yMax="710">
      <contour>
        <pt x="635" y="8" on="0"/>
        <pt x="633" y="0" on="0"/>
        <pt x="627" y="0" on="1"/>
        <pt x="384" y="0" on="1"/>
        <pt x="384" y="115" on="1"/>
        <pt x="365" y="49" on="0"/>
        <pt x="290" y="-10" on="0"/>
        <pt x="230" y="-10" on="1"/>
        <pt x="165" y="-10" on="0"/>
        <pt x="86" y="59" on="0"/>
        <pt x="48" y="218" on="0"/>
        <pt x="48" y="355" on="1"/>
        <pt x="48" y="543" on="0"/>
        <pt x="140" y="710" on="0"/>
        <pt x="239" y="710" on="1"/>
        <pt x="296" y="710" on="0"/>
        <pt x="366" y="657" on="0"/>
        <pt x="384" y="598" on="1"/>
        <pt x="384" y="690" on="1"/>
        <pt x="384" y="693" on="0"/>
        <pt x="388" y="700" on="0"/>
        <pt x="394" y="700" on="1"/>
        <pt x="633" y="700" on="1"/>
        <pt x="633" y="684" on="0"/>
        <pt x="631" y="676" on="0"/>
        <pt x="627" y="676" on="1"/>
        <pt x="408" y="676" on="1"/>
        <pt x="408" y="396" on="1"/>
        <pt x="613" y="396" on="1"/>
        <pt x="613" y="380" on="0"/>
        <pt x="611" y="372" on="0"/>
        <pt x="605" y="372" on="1"/>
        <pt x="408" y="372" on="1"/>
        <pt x="408" y="24" on="1"/>
        <pt x="635" y="24" on="1"/>
      </contour>
      <contour>
        <pt x="287" y="14" on="0"/>
        <pt x="354" y="80" on="0"/>
        <pt x="384" y="229" on="0"/>
        <pt x="384" y="358" on="1"/>
        <pt x="384" y="483" on="0"/>
        <pt x="357" y="625" on="0"/>
        <pt x="294" y="686" on="0"/>
        <pt x="240" y="686" on="1"/>
        <pt x="183" y="686" on="0"/>
        <pt x="109" y="619" on="0"/>
        <pt x="72" y="468" on="0"/>
        <pt x="72" y="343" on="1"/>
        <pt x="72" y="222" on="0"/>
        <pt x="105" y="78" on="0"/>
        <pt x="173" y="14" on="0"/>
        <pt x="229" y="14" on="1"/>
      </contour>
    </TTGlyph>
    <TTGlyph name="Oacute" xMin="48" yMin="-10" xMax="418" yMax="912">
      <component glyphName=".ttfautohint" x="48" y="0" flags="0x0"/>
      <component glyphName="O" x="0" y="0" flags="0x1000"/>
      <component glyphName="acute" x="108" y="200" flags="0x1000"/>
    </TTGlyph>
    <TTGlyph name="Ocircumflex" xMin="48" yMin="-10" xMax="418" yMax="899">
      <component glyphName=".ttfautohint" x="48" y="0" flags="0x0"/>
      <component glyphName="O" x="0" y="0" flags="0x1000"/>
      <component glyphName="circumflex" x="108" y="200" flags="0x1000"/>
    </TTGlyph>
    <TTGlyph name="Odieresis" xMin="48" yMin="-10" xMax="418" yMax="870">
      <component glyphName=".ttfautohint" x="48" y="0" flags="0x0"/>
      <component glyphName="O" x="0" y="0" flags="0x1000"/>
      <component glyphName="dieresis" x="108" y="200" flags="0x1000"/>
    </TTGlyph>
    <TTGlyph name="Ograve" xMin="48" yMin="-10" xMax="418" yMax="912">
      <component glyphName=".ttfautohint" x="48" y="0" flags="0x0"/>
      <component glyphName="O" x="0" y="0" flags="0x1000"/>
      <component glyphName="grave" x="108" y="200" flags="0x1000"/>
    </TTGlyph>
    <TTGlyph name="Ohm" xMin="58" yMin="0" xMax="431" yMax="710">
      <component glyphName=".ttfautohint" x="58" y="0" flags="0x0"/>
      <component glyphName="Omega" x="0" y="0" flags="0x1000"/>
    </TTGlyph>
    <TTGlyph name="Ohungarumlaut" xMin="48" yMin="-10" xMax="418" yMax="920">
      <component glyphName=".ttfautohint" x="48" y="0" flags="0x0"/>
      <component glyphName="O" x="0" y="0" flags="0x1000"/>
      <component glyphName="hungarumlaut" x="132" y="200" flags="0x1000"/>
    </TTGlyph>
    <TTGlyph name="Omacron" xMin="48" yMin="-10" xMax="418" yMax="848">
      <component glyphName=".ttfautohint" x="48" y="0" flags="0x0"/>
      <component glyphName="O" x="0" y="0" flags="0x1000"/>
      <component glyphName="macron" x="108" y="200" flags="0x1000"/>
    </TTGlyph>
    <TTGlyph name="Omega" xMin="58" yMin="0" xMax="431" yMax="710">
      <contour>
        <pt x="310" y="27" on="0"/>
        <pt x="368" y="140" on="0"/>
        <pt x="406" y="286" on="0"/>
        <pt x="406" y="360" on="1"/>
        <pt x="406" y="483" on="0"/>
        <pt x="374" y="625" on="0"/>
        <pt x="307" y="686" on="0"/>
        <pt x="252" y="686" on="1"/>
        <pt x="166" y="686" on="0"/>
        <pt x="84" y="532" on="0"/>
        <pt x="84" y="353" on="1"/>
        <pt x="84" y="281" on="0"/>
        <pt x="118" y="135" on="0"/>
        <pt x="173" y="24" on="0"/>
        <pt x="203" y="0" on="1"/>
        <pt x="60" y="0" on="1"/>
        <pt x="58" y="8" on="0"/>
        <pt x="58" y="10" on="1"/>
        <pt x="58" y="24" on="0"/>
        <pt x="70" y="24" on="1"/>
        <pt x="151" y="24" on="1"/>
        <pt x="115" y="75" on="0"/>
        <pt x="60" y="249" on="0"/>
        <pt x="60" y="367" on="1"/>
        <pt x="60" y="547" on="0"/>
        <pt x="155" y="710" on="0"/>
        <pt x="253" y="710" on="1"/>
        <pt x="318" y="710" on="0"/>
        <pt x="395" y="643" on="0"/>
        <pt x="430" y="496" on="0"/>
        <pt x="430" y="373" on="1"/>
        <pt x="430" y="249" on="0"/>
        <pt x="369" y="69" on="0"/>
        <pt x="333" y="24" on="1"/>
        <pt x="429" y="24" on="1"/>
        <pt x="431" y="18" on="0"/>
        <pt x="431" y="13" on="1"/>
        <pt x="431" y="0" on="0"/>
        <pt x="419" y="0" on="1"/>
        <pt x="280" y="0" on="1"/>
      </contour>
    </TTGlyph>
    <TTGlyph name="Oslash" xMin="48" yMin="-17" xMax="418" yMax="719">
      <contour>
        <pt x="418" y="570" on="0"/>
        <pt x="418" y="355" on="1"/>
        <pt x="418" y="223" on="0"/>
        <pt x="379" y="63" on="0"/>
        <pt x="297" y="-10" on="0"/>
        <pt x="230" y="-10" on="1"/>
        <pt x="154" y="-10" on="0"/>
        <pt x="114" y="36" on="1"/>
        <pt x="92" y="-17" on="1"/>
        <pt x="89" y="-17" on="1"/>
        <pt x="75" y="-17" on="0"/>
        <pt x="73" y="-7" on="1"/>
        <pt x="99" y="56" on="1"/>
        <pt x="48" y="136" on="0"/>
        <pt x="48" y="355" on="1"/>
        <pt x="48" y="543" on="0"/>
        <pt x="140" y="710" on="0"/>
        <pt x="239" y="710" on="1"/>
        <pt x="310" y="710" on="0"/>
        <pt x="351" y="668" on="1"/>
        <pt x="371" y="719" on="1"/>
        <pt x="372" y="719" on="0"/>
        <pt x="381" y="718" on="0"/>
        <pt x="389" y="713" on="0"/>
        <pt x="390" y="709" on="1"/>
        <pt x="366" y="649" on="1"/>
      </contour>
      <contour>
        <pt x="304" y="686" on="0"/>
        <pt x="240" y="686" on="1"/>
        <pt x="183" y="686" on="0"/>
        <pt x="109" y="619" on="0"/>
        <pt x="72" y="468" on="0"/>
        <pt x="72" y="343" on="1"/>
        <pt x="72" y="157" on="0"/>
        <pt x="113" y="82" on="1"/>
        <pt x="338" y="644" on="1"/>
      </contour>
      <contour>
        <pt x="288" y="14" on="0"/>
        <pt x="360" y="81" on="0"/>
        <pt x="394" y="231" on="0"/>
        <pt x="394" y="358" on="1"/>
        <pt x="394" y="550" on="0"/>
        <pt x="353" y="623" on="1"/>
        <pt x="127" y="60" on="1"/>
        <pt x="163" y="14" on="0"/>
        <pt x="229" y="14" on="1"/>
      </contour>
    </TTGlyph>
    <TTGlyph name="Otilde" xMin="48" yMin="-10" xMax="418" yMax="874">
      <component glyphName=".ttfautohint" x="48" y="0" flags="0x0"/>
      <component glyphName="O" x="0" y="0" flags="0x1000"/>
      <component glyphName="tilde" x="108" y="200" flags="0x1000"/>
    </TTGlyph>
    <TTGlyph name="P" xMin="68" yMin="0" xMax="351" yMax="700">
      <contour>
        <pt x="274" y="700" on="0"/>
        <pt x="351" y="597" on="0"/>
        <pt x="351" y="518" on="1"/>
        <pt x="351" y="417" on="0"/>
        <pt x="262" y="310" on="0"/>
        <pt x="179" y="310" on="1"/>
        <pt x="92" y="310" on="1"/>
        <pt x="92" y="10" on="1"/>
        <pt x="92" y="3" on="0"/>
        <pt x="86" y="0" on="0"/>
        <pt x="68" y="0" on="1"/>
        <pt x="68" y="690" on="1"/>
        <pt x="68" y="700" on="0"/>
        <pt x="78" y="700" on="1"/>
        <pt x="187" y="700" on="1"/>
      </contour>
      <contour>
        <pt x="253" y="334" on="0"/>
        <pt x="327" y="432" on="0"/>
        <pt x="327" y="518" on="1"/>
        <pt x="327" y="676" on="0"/>
        <pt x="182" y="676" on="1"/>
        <pt x="92" y="676" on="1"/>
        <pt x="92" y="334" on="1"/>
        <pt x="178" y="334" on="1"/>
      </contour>
    </TTGlyph>
    <TTGlyph name="Pi" xMin="77" yMin="0" xMax="388" yMax="700">
      <component glyphName=".ttfautohint" x="77" y="0" flags="0x0"/>
      <component glyphName="uni041F" x="0" y="0" flags="0x1000"/>
    </TTGlyph>
    <TTGlyph name="Q" xMin="48" yMin="-129" xMax="418" yMax="710">
      <contour>
        <pt x="363" y="-107" on="0"/>
        <pt x="389" y="-90" on="1"/>
        <pt x="395" y="-96" on="0"/>
        <pt x="395" y="-105" on="1"/>
        <pt x="395" y="-114" on="0"/>
        <pt x="349" y="-129" on="0"/>
        <pt x="319" y="-129" on="1"/>
        <pt x="282" y="-129" on="0"/>
        <pt x="239" y="-75" on="0"/>
        <pt x="227" y="-10" on="1"/>
        <pt x="163" y="-9" on="0"/>
        <pt x="85" y="60" on="0"/>
        <pt x="48" y="219" on="0"/>
        <pt x="48" y="355" on="1"/>
        <pt x="48" y="543" on="0"/>
        <pt x="142" y="710" on="0"/>
        <pt x="241" y="710" on="1"/>
        <pt x="306" y="710" on="0"/>
        <pt x="383" y="641" on="0"/>
        <pt x="418" y="486" on="0"/>
        <pt x="418" y="355" on="1"/>
        <pt x="418" y="230" on="0"/>
        <pt x="383" y="74" on="0"/>
        <pt x="311" y="-3" on="0"/>
        <pt x="252" y="-9" on="1"/>
        <pt x="263" y="-66" on="0"/>
        <pt x="294" y="-107" on="0"/>
        <pt x="322" y="-107" on="1"/>
      </contour>
      <contour>
        <pt x="72" y="222" on="0"/>
        <pt x="105" y="78" on="0"/>
        <pt x="173" y="14" on="0"/>
        <pt x="229" y="14" on="1"/>
        <pt x="288" y="14" on="0"/>
        <pt x="360" y="81" on="0"/>
        <pt x="394" y="231" on="0"/>
        <pt x="394" y="358" on="1"/>
        <pt x="394" y="481" on="0"/>
        <pt x="362" y="624" on="0"/>
        <pt x="295" y="686" on="0"/>
        <pt x="240" y="686" on="1"/>
        <pt x="183" y="686" on="0"/>
        <pt x="109" y="619" on="0"/>
        <pt x="72" y="468" on="0"/>
        <pt x="72" y="343" on="1"/>
      </contour>
    </TTGlyph>
    <TTGlyph name="R" xMin="68" yMin="0" xMax="351" yMax="700">
      <contour>
        <pt x="274" y="700" on="0"/>
        <pt x="351" y="597" on="0"/>
        <pt x="351" y="518" on="1"/>
        <pt x="351" y="433" on="0"/>
        <pt x="288" y="330" on="0"/>
        <pt x="229" y="316" on="1"/>
        <pt x="260" y="273" on="0"/>
        <pt x="327" y="118" on="0"/>
        <pt x="340" y="12" on="1"/>
        <pt x="340" y="8" on="1"/>
        <pt x="340" y="1" on="0"/>
        <pt x="330" y="0" on="1"/>
        <pt x="317" y="0" on="1"/>
        <pt x="298" y="128" on="0"/>
        <pt x="228" y="282" on="0"/>
        <pt x="202" y="311" on="1"/>
        <pt x="195" y="310" on="0"/>
        <pt x="179" y="310" on="1"/>
        <pt x="92" y="310" on="1"/>
        <pt x="92" y="10" on="1"/>
        <pt x="92" y="3" on="0"/>
        <pt x="86" y="0" on="0"/>
        <pt x="68" y="0" on="1"/>
        <pt x="68" y="690" on="1"/>
        <pt x="68" y="693" on="0"/>
        <pt x="72" y="700" on="0"/>
        <pt x="78" y="700" on="1"/>
        <pt x="187" y="700" on="1"/>
      </contour>
      <contour>
        <pt x="253" y="334" on="0"/>
        <pt x="327" y="432" on="0"/>
        <pt x="327" y="518" on="1"/>
        <pt x="327" y="676" on="0"/>
        <pt x="182" y="676" on="1"/>
        <pt x="92" y="676" on="1"/>
        <pt x="92" y="334" on="1"/>
        <pt x="178" y="334" on="1"/>
      </contour>
    </TTGlyph>
    <TTGlyph name="Racute" xMin="68" yMin="0" xMax="351" yMax="912">
      <component glyphName=".ttfautohint" x="68" y="0" flags="0x0"/>
      <component glyphName="R" x="0" y="0" flags="0x1000"/>
      <component glyphName="acute" x="48" y="200" flags="0x1000"/>
    </TTGlyph>
    <TTGlyph name="Rcaron" xMin="58" yMin="0" xMax="351" yMax="922">
      <component glyphName=".ttfautohint" x="58" y="0" flags="0x0"/>
      <component glyphName="R" x="0" y="0" flags="0x1000"/>
      <component glyphName="caron" x="48" y="200" flags="0x1000"/>
    </TTGlyph>
    <TTGlyph name="Rcommaaccent" xMin="68" yMin="-235" xMax="351" yMax="700">
      <component glyphName=".ttfautohint" x="68" y="0" flags="0x0"/>
      <component glyphName="R" x="0" y="0" flags="0x1000"/>
      <component glyphName="commaaccentcomb" x="68" y="0" flags="0x1000"/>
    </TTGlyph>
    <TTGlyph name="S" xMin="42" yMin="-10" xMax="345" yMax="710">
      <contour>
        <pt x="84" y="482" on="0"/>
        <pt x="46" y="547" on="0"/>
        <pt x="46" y="584" on="1"/>
        <pt x="46" y="640" on="0"/>
        <pt x="134" y="710" on="0"/>
        <pt x="208" y="710" on="1"/>
        <pt x="247" y="710" on="0"/>
        <pt x="302" y="698" on="0"/>
        <pt x="329" y="680" on="0"/>
        <pt x="329" y="672" on="1"/>
        <pt x="329" y="662" on="0"/>
        <pt x="320" y="655" on="1"/>
        <pt x="282" y="687" on="0"/>
        <pt x="202" y="687" on="1"/>
        <pt x="143" y="687" on="0"/>
        <pt x="70" y="630" on="0"/>
        <pt x="70" y="585" on="1"/>
        <pt x="70" y="553" on="0"/>
        <pt x="103" y="499" on="0"/>
        <pt x="135" y="467" on="1"/>
        <pt x="266" y="344" on="1"/>
        <pt x="310" y="300" on="0"/>
        <pt x="345" y="220" on="0"/>
        <pt x="345" y="166" on="1"/>
        <pt x="345" y="84" on="0"/>
        <pt x="259" y="-10" on="0"/>
        <pt x="174" y="-10" on="1"/>
        <pt x="131" y="-10" on="0"/>
        <pt x="72" y="6" on="0"/>
        <pt x="42" y="28" on="0"/>
        <pt x="42" y="36" on="1"/>
        <pt x="42" y="48" on="0"/>
        <pt x="54" y="52" on="1"/>
        <pt x="94" y="14" on="0"/>
        <pt x="176" y="14" on="1"/>
        <pt x="249" y="14" on="0"/>
        <pt x="321" y="93" on="0"/>
        <pt x="321" y="161" on="1"/>
        <pt x="321" y="212" on="0"/>
        <pt x="284" y="291" on="0"/>
        <pt x="238" y="337" on="1"/>
        <pt x="121" y="445" on="1"/>
      </contour>
    </TTGlyph>
    <TTGlyph name="Sacute" xMin="42" yMin="-10" xMax="345" yMax="912">
      <component glyphName=".ttfautohint" x="42" y="0" flags="0x0"/>
      <component glyphName="S" x="0" y="0" flags="0x1000"/>
      <component glyphName="acute" x="67" y="200" flags="0x1000"/>
    </TTGlyph>
    <TTGlyph name="Scaron" xMin="42" yMin="-10" xMax="345" yMax="922">
      <component glyphName=".ttfautohint" x="42" y="0" flags="0x0"/>
      <component glyphName="S" x="0" y="0" flags="0x1000"/>
      <component glyphName="caron" x="67" y="200" flags="0x1000"/>
    </TTGlyph>
    <TTGlyph name="Scedilla" xMin="42" yMin="-177" xMax="345" yMax="710">
      <contour>
        <pt x="310" y="300" on="0"/>
        <pt x="345" y="220" on="0"/>
        <pt x="345" y="166" on="1"/>
        <pt x="345" y="92" on="0"/>
        <pt x="273" y="-1" on="0"/>
        <pt x="202" y="-9" on="1"/>
        <pt x="191" y="-61" on="1"/>
        <pt x="192" y="-61" on="0"/>
        <pt x="202" y="-59" on="0"/>
        <pt x="210" y="-59" on="1"/>
        <pt x="229" y="-59" on="0"/>
        <pt x="257" y="-84" on="0"/>
        <pt x="257" y="-110" on="1"/>
        <pt x="257" y="-177" on="0"/>
        <pt x="195" y="-177" on="1"/>
        <pt x="179" y="-177" on="0"/>
        <pt x="150" y="-172" on="0"/>
        <pt x="146" y="-171" on="1"/>
        <pt x="146" y="-166" on="0"/>
        <pt x="151" y="-146" on="0"/>
        <pt x="157" y="-146" on="1"/>
        <pt x="160" y="-146" on="0"/>
        <pt x="186" y="-154" on="0"/>
        <pt x="195" y="-154" on="1"/>
        <pt x="233" y="-154" on="0"/>
        <pt x="233" y="-116" on="1"/>
        <pt x="233" y="-80" on="0"/>
        <pt x="196" y="-80" on="1"/>
        <pt x="186" y="-80" on="0"/>
        <pt x="164" y="-84" on="0"/>
        <pt x="161" y="-85" on="1"/>
        <pt x="177" y="-10" on="1"/>
        <pt x="174" y="-10" on="1"/>
        <pt x="131" y="-10" on="0"/>
        <pt x="72" y="6" on="0"/>
        <pt x="42" y="28" on="0"/>
        <pt x="42" y="36" on="1"/>
        <pt x="42" y="48" on="0"/>
        <pt x="54" y="52" on="1"/>
        <pt x="94" y="14" on="0"/>
        <pt x="176" y="14" on="1"/>
        <pt x="249" y="14" on="0"/>
        <pt x="321" y="93" on="0"/>
        <pt x="321" y="161" on="1"/>
        <pt x="321" y="212" on="0"/>
        <pt x="284" y="291" on="0"/>
        <pt x="238" y="337" on="1"/>
        <pt x="121" y="445" on="1"/>
        <pt x="84" y="482" on="0"/>
        <pt x="46" y="547" on="0"/>
        <pt x="46" y="584" on="1"/>
        <pt x="46" y="640" on="0"/>
        <pt x="134" y="710" on="0"/>
        <pt x="208" y="710" on="1"/>
        <pt x="247" y="710" on="0"/>
        <pt x="302" y="698" on="0"/>
        <pt x="329" y="680" on="0"/>
        <pt x="329" y="672" on="1"/>
        <pt x="329" y="662" on="0"/>
        <pt x="320" y="655" on="1"/>
        <pt x="282" y="687" on="0"/>
        <pt x="202" y="687" on="1"/>
        <pt x="143" y="687" on="0"/>
        <pt x="70" y="630" on="0"/>
        <pt x="70" y="585" on="1"/>
        <pt x="70" y="553" on="0"/>
        <pt x="103" y="499" on="0"/>
        <pt x="135" y="467" on="1"/>
        <pt x="266" y="344" on="1"/>
      </contour>
    </TTGlyph>
    <TTGlyph name="Scommaaccent" xMin="42" yMin="-235" xMax="345" yMax="710">
      <component glyphName=".ttfautohint" x="42" y="0" flags="0x0"/>
      <component glyphName="S" x="0" y="0" flags="0x1000"/>
      <component glyphName="commaaccentcomb" x="66" y="0" flags="0x1000"/>
    </TTGlyph>
    <TTGlyph name="T" xMin="5" yMin="0" xMax="355" yMax="700">
      <contour>
        <pt x="355" y="686" on="1"/>
        <pt x="355" y="676" on="0"/>
        <pt x="345" y="676" on="1"/>
        <pt x="190" y="676" on="1"/>
        <pt x="190" y="9" on="1"/>
        <pt x="190" y="2" on="0"/>
        <pt x="184" y="0" on="0"/>
        <pt x="166" y="0" on="1"/>
        <pt x="166" y="676" on="1"/>
        <pt x="5" y="676" on="1"/>
        <pt x="5" y="690" on="1"/>
        <pt x="5" y="700" on="0"/>
        <pt x="15" y="700" on="1"/>
        <pt x="355" y="700" on="1"/>
      </contour>
    </TTGlyph>
    <TTGlyph name="Tcaron" xMin="5" yMin="0" xMax="355" yMax="922">
      <component glyphName=".ttfautohint" x="5" y="0" flags="0x0"/>
      <component glyphName="T" x="0" y="0" flags="0x1000"/>
      <component glyphName="caron" x="55" y="200" flags="0x1000"/>
    </TTGlyph>
    <TTGlyph name="Tcedilla" xMin="5" yMin="-177" xMax="355" yMax="700">
      <contour>
        <pt x="355" y="686" on="1"/>
        <pt x="355" y="676" on="0"/>
        <pt x="345" y="676" on="1"/>
        <pt x="190" y="676" on="1"/>
        <pt x="190" y="9" on="1"/>
        <pt x="190" y="4" on="0"/>
        <pt x="189" y="3" on="1"/>
        <pt x="191" y="3" on="1"/>
        <pt x="177" y="-61" on="1"/>
        <pt x="178" y="-61" on="0"/>
        <pt x="188" y="-59" on="0"/>
        <pt x="196" y="-59" on="1"/>
        <pt x="215" y="-59" on="0"/>
        <pt x="243" y="-84" on="0"/>
        <pt x="243" y="-110" on="1"/>
        <pt x="243" y="-177" on="0"/>
        <pt x="181" y="-177" on="1"/>
        <pt x="165" y="-177" on="0"/>
        <pt x="136" y="-172" on="0"/>
        <pt x="132" y="-171" on="1"/>
        <pt x="132" y="-166" on="0"/>
        <pt x="137" y="-146" on="0"/>
        <pt x="143" y="-146" on="1"/>
        <pt x="146" y="-146" on="0"/>
        <pt x="172" y="-154" on="0"/>
        <pt x="181" y="-154" on="1"/>
        <pt x="219" y="-154" on="0"/>
        <pt x="219" y="-116" on="1"/>
        <pt x="219" y="-80" on="0"/>
        <pt x="182" y="-80" on="1"/>
        <pt x="172" y="-80" on="0"/>
        <pt x="150" y="-84" on="0"/>
        <pt x="147" y="-85" on="1"/>
        <pt x="166" y="3" on="1"/>
        <pt x="166" y="676" on="1"/>
        <pt x="5" y="676" on="1"/>
        <pt x="5" y="690" on="1"/>
        <pt x="5" y="700" on="0"/>
        <pt x="15" y="700" on="1"/>
        <pt x="355" y="700" on="1"/>
      </contour>
    </TTGlyph>
    <TTGlyph name="Thorn" xMin="68" yMin="0" xMax="351" yMax="700">
      <contour>
        <pt x="274" y="559" on="0"/>
        <pt x="351" y="456" on="0"/>
        <pt x="351" y="377" on="1"/>
        <pt x="351" y="276" on="0"/>
        <pt x="262" y="169" on="0"/>
        <pt x="179" y="169" on="1"/>
        <pt x="92" y="169" on="1"/>
        <pt x="92" y="10" on="1"/>
        <pt x="92" y="3" on="0"/>
        <pt x="86" y="0" on="0"/>
        <pt x="68" y="0" on="1"/>
        <pt x="68" y="692" on="1"/>
        <pt x="68" y="700" on="0"/>
        <pt x="85" y="700" on="1"/>
        <pt x="92" y="700" on="1"/>
        <pt x="92" y="559" on="1"/>
        <pt x="187" y="559" on="1"/>
      </contour>
      <contour>
        <pt x="178" y="193" on="1"/>
        <pt x="253" y="193" on="0"/>
        <pt x="327" y="291" on="0"/>
        <pt x="327" y="377" on="1"/>
        <pt x="327" y="535" on="0"/>
        <pt x="182" y="535" on="1"/>
        <pt x="92" y="535" on="1"/>
        <pt x="92" y="193" on="1"/>
      </contour>
    </TTGlyph>
    <TTGlyph name="U" xMin="68" yMin="-10" xMax="416" yMax="700">
      <contour>
        <pt x="92" y="161" on="0"/>
        <pt x="113" y="71" on="0"/>
        <pt x="182" y="14" on="0"/>
        <pt x="250" y="14" on="1"/>
        <pt x="290" y="14" on="0"/>
        <pt x="372" y="31" on="0"/>
        <pt x="392" y="41" on="1"/>
        <pt x="392" y="691" on="1"/>
        <pt x="392" y="698" on="0"/>
        <pt x="399" y="700" on="0"/>
        <pt x="416" y="700" on="1"/>
        <pt x="416" y="23" on="1"/>
        <pt x="395" y="10" on="0"/>
        <pt x="299" y="-10" on="0"/>
        <pt x="250" y="-10" on="1"/>
        <pt x="171" y="-10" on="0"/>
        <pt x="92" y="53" on="0"/>
        <pt x="68" y="152" on="0"/>
        <pt x="68" y="227" on="1"/>
        <pt x="68" y="690" on="1"/>
        <pt x="68" y="698" on="0"/>
        <pt x="74" y="700" on="0"/>
        <pt x="92" y="700" on="1"/>
        <pt x="92" y="227" on="1"/>
      </contour>
    </TTGlyph>
    <TTGlyph name="Uacute" xMin="68" yMin="-10" xMax="416" yMax="912">
      <component glyphName=".ttfautohint" x="68" y="0" flags="0x0"/>
      <component glyphName="U" x="0" y="0" flags="0x1000"/>
      <component glyphName="acute" x="117" y="200" flags="0x1000"/>
    </TTGlyph>
    <TTGlyph name="Ucircumflex" xMin="68" yMin="-10" xMax="416" yMax="899">
      <component glyphName=".ttfautohint" x="68" y="0" flags="0x0"/>
      <component glyphName="U" x="0" y="0" flags="0x1000"/>
      <component glyphName="circumflex" x="117" y="200" flags="0x1000"/>
    </TTGlyph>
    <TTGlyph name="Udieresis" xMin="68" yMin="-10" xMax="416" yMax="870">
      <component glyphName=".ttfautohint" x="68" y="0" flags="0x0"/>
      <component glyphName="U" x="0" y="0" flags="0x1000"/>
      <component glyphName="dieresis" x="117" y="200" flags="0x1000"/>
    </TTGlyph>
    <TTGlyph name="Ugrave" xMin="68" yMin="-10" xMax="416" yMax="912">
      <component glyphName=".ttfautohint" x="68" y="0" flags="0x0"/>
      <component glyphName="U" x="0" y="0" flags="0x1000"/>
      <component glyphName="grave" x="117" y="200" flags="0x1000"/>
    </TTGlyph>
    <TTGlyph name="Uhungarumlaut" xMin="68" yMin="-10" xMax="416" yMax="920">
      <component glyphName=".ttfautohint" x="68" y="0" flags="0x0"/>
      <component glyphName="U" x="0" y="0" flags="0x1000"/>
      <component glyphName="hungarumlaut" x="141" y="200" flags="0x1000"/>
    </TTGlyph>
    <TTGlyph name="Umacron" xMin="68" yMin="-10" xMax="416" yMax="848">
      <component glyphName=".ttfautohint" x="68" y="0" flags="0x0"/>
      <component glyphName="U" x="0" y="0" flags="0x1000"/>
      <component glyphName="macron" x="117" y="200" flags="0x1000"/>
    </TTGlyph>
    <TTGlyph name="Uogonek" xMin="68" yMin="-195" xMax="416" yMax="700">
      <contour>
        <pt x="381" y="2" on="0"/>
        <pt x="325" y="-83" on="0"/>
        <pt x="325" y="-118" on="1"/>
        <pt x="325" y="-172" on="0"/>
        <pt x="372" y="-172" on="1"/>
        <pt x="389" y="-172" on="0"/>
        <pt x="406" y="-162" on="1"/>
        <pt x="412" y="-172" on="0"/>
        <pt x="412" y="-178" on="1"/>
        <pt x="412" y="-186" on="0"/>
        <pt x="388" y="-195" on="0"/>
        <pt x="371" y="-195" on="1"/>
        <pt x="338" y="-195" on="0"/>
        <pt x="301" y="-155" on="0"/>
        <pt x="301" y="-118" on="1"/>
        <pt x="301" y="-91" on="0"/>
        <pt x="335" y="-23" on="0"/>
        <pt x="359" y="3" on="1"/>
        <pt x="310" y="-10" on="0"/>
        <pt x="250" y="-10" on="1"/>
        <pt x="171" y="-10" on="0"/>
        <pt x="92" y="53" on="0"/>
        <pt x="68" y="152" on="0"/>
        <pt x="68" y="227" on="1"/>
        <pt x="68" y="690" on="1"/>
        <pt x="68" y="698" on="0"/>
        <pt x="74" y="700" on="0"/>
        <pt x="92" y="700" on="1"/>
        <pt x="92" y="227" on="1"/>
        <pt x="92" y="161" on="0"/>
        <pt x="113" y="71" on="0"/>
        <pt x="182" y="14" on="0"/>
        <pt x="250" y="14" on="1"/>
        <pt x="290" y="14" on="0"/>
        <pt x="372" y="30" on="0"/>
        <pt x="392" y="40" on="1"/>
        <pt x="392" y="691" on="1"/>
        <pt x="392" y="698" on="0"/>
        <pt x="399" y="700" on="0"/>
        <pt x="416" y="700" on="1"/>
        <pt x="416" y="23" on="1"/>
      </contour>
    </TTGlyph>
    <TTGlyph name="Uring" xMin="68" yMin="-10" xMax="416" yMax="934">
      <component glyphName=".ttfautohint" x="68" y="0" flags="0x0"/>
      <component glyphName="U" x="0" y="0" flags="0x1000"/>
      <component glyphName="ring" x="117" y="200" flags="0x1000"/>
    </TTGlyph>
    <TTGlyph name="V" xMin="5" yMin="-10" xMax="417" yMax="700">
      <contour>
        <pt x="223" y="-9" on="0"/>
        <pt x="216" y="-10" on="0"/>
        <pt x="211" y="-10" on="1"/>
        <pt x="206" y="-10" on="0"/>
        <pt x="190" y="48" on="1"/>
        <pt x="141" y="219" on="0"/>
        <pt x="29" y="610" on="0"/>
        <pt x="7" y="686" on="1"/>
        <pt x="5" y="692" on="0"/>
        <pt x="5" y="695" on="1"/>
        <pt x="5" y="700" on="0"/>
        <pt x="11" y="700" on="1"/>
        <pt x="27" y="700" on="1"/>
        <pt x="171" y="201" on="1"/>
        <pt x="197" y="113" on="0"/>
        <pt x="216" y="27" on="1"/>
        <pt x="232" y="104" on="0"/>
        <pt x="258" y="201" on="1"/>
        <pt x="390" y="686" on="1"/>
        <pt x="394" y="700" on="0"/>
        <pt x="400" y="700" on="1"/>
        <pt x="417" y="700" on="1"/>
        <pt x="224" y="-9" on="1"/>
      </contour>
    </TTGlyph>
    <TTGlyph name="W" xMin="5" yMin="-11" xMax="626" yMax="700">
      <contour>
        <pt x="473" y="-9" on="1"/>
        <pt x="472" y="-9" on="0"/>
        <pt x="466" y="-11" on="0"/>
        <pt x="460" y="-11" on="1"/>
        <pt x="456" y="-11" on="0"/>
        <pt x="446" y="34" on="1"/>
        <pt x="342" y="474" on="1"/>
        <pt x="314" y="615" on="1"/>
        <pt x="288" y="476" on="1"/>
        <pt x="183" y="-9" on="1"/>
        <pt x="182" y="-9" on="0"/>
        <pt x="175" y="-10" on="0"/>
        <pt x="169" y="-10" on="1"/>
        <pt x="165" y="-10" on="0"/>
        <pt x="152" y="50" on="1"/>
        <pt x="128" y="159" on="0"/>
        <pt x="24" y="611" on="0"/>
        <pt x="6" y="686" on="1"/>
        <pt x="5" y="694" on="1"/>
        <pt x="5" y="700" on="0"/>
        <pt x="10" y="700" on="1"/>
        <pt x="27" y="700" on="1"/>
        <pt x="142" y="200" on="1"/>
        <pt x="157" y="134" on="0"/>
        <pt x="174" y="41" on="1"/>
        <pt x="176" y="41" on="1"/>
        <pt x="183" y="102" on="0"/>
        <pt x="204" y="200" on="1"/>
        <pt x="299" y="646" on="1"/>
        <pt x="303" y="660" on="0"/>
        <pt x="309" y="660" on="1"/>
        <pt x="327" y="660" on="1"/>
        <pt x="434" y="200" on="1"/>
        <pt x="439" y="180" on="0"/>
        <pt x="458" y="84" on="1"/>
        <pt x="465" y="43" on="1"/>
        <pt x="467" y="43" on="1"/>
        <pt x="476" y="93" on="1"/>
        <pt x="485" y="153" on="0"/>
        <pt x="495" y="200" on="1"/>
        <pt x="599" y="686" on="1"/>
        <pt x="603" y="700" on="0"/>
        <pt x="609" y="700" on="1"/>
        <pt x="626" y="700" on="1"/>
      </contour>
    </TTGlyph>
    <TTGlyph name="Wacute" xMin="5" yMin="-11" xMax="626" yMax="912">
      <component glyphName=".ttfautohint" x="5" y="0" flags="0x0"/>
      <component glyphName="W" x="0" y="0" flags="0x1000"/>
      <component glyphName="acute" x="190" y="200" flags="0x1000"/>
    </TTGlyph>
    <TTGlyph name="Wcircumflex" xMin="5" yMin="-11" xMax="626" yMax="899">
      <component glyphName=".ttfautohint" x="5" y="0" flags="0x0"/>
      <component glyphName="W" x="0" y="0" flags="0x1000"/>
      <component glyphName="circumflex" x="190" y="200" flags="0x1000"/>
    </TTGlyph>
    <TTGlyph name="Wdieresis" xMin="5" yMin="-11" xMax="626" yMax="870">
      <component glyphName=".ttfautohint" x="5" y="0" flags="0x0"/>
      <component glyphName="W" x="0" y="0" flags="0x1000"/>
      <component glyphName="dieresis" x="190" y="200" flags="0x1000"/>
    </TTGlyph>
    <TTGlyph name="Wgrave" xMin="5" yMin="-11" xMax="626" yMax="912">
      <component glyphName=".ttfautohint" x="5" y="0" flags="0x0"/>
      <component glyphName="W" x="0" y="0" flags="0x1000"/>
      <component glyphName="grave" x="190" y="200" flags="0x1000"/>
    </TTGlyph>
    <TTGlyph name="X" xMin="12" yMin="0" xMax="416" yMax="700">
      <contour>
        <pt x="420" y="0" on="0"/>
        <pt x="411" y="0" on="1"/>
        <pt x="389" y="0" on="1"/>
        <pt x="305" y="169" on="1"/>
        <pt x="216" y="347" on="1"/>
        <pt x="147" y="209" on="0"/>
        <pt x="127" y="170" on="1"/>
        <pt x="43" y="4" on="1"/>
        <pt x="40" y="0" on="0"/>
        <pt x="34" y="0" on="1"/>
        <pt x="12" y="0" on="1"/>
        <pt x="200" y="366" on="1"/>
        <pt x="39" y="695" on="1"/>
        <pt x="37" y="698" on="1"/>
        <pt x="37" y="700" on="0"/>
        <pt x="64" y="700" on="1"/>
        <pt x="127" y="571" on="1"/>
        <pt x="198" y="425" on="0"/>
        <pt x="216" y="384" on="1"/>
        <pt x="306" y="571" on="1"/>
        <pt x="366" y="695" on="1"/>
        <pt x="368" y="699" on="0"/>
        <pt x="379" y="700" on="0"/>
        <pt x="397" y="700" on="1"/>
        <pt x="232" y="361" on="1"/>
        <pt x="416" y="9" on="1"/>
      </contour>
    </TTGlyph>
    <TTGlyph name="Y" xMin="5" yMin="0" xMax="352" yMax="700">
      <contour>
        <pt x="192" y="10" on="1"/>
        <pt x="192" y="3" on="0"/>
        <pt x="186" y="0" on="0"/>
        <pt x="168" y="0" on="1"/>
        <pt x="168" y="287" on="1"/>
        <pt x="6" y="695" on="1"/>
        <pt x="5" y="697" on="1"/>
        <pt x="5" y="700" on="0"/>
        <pt x="32" y="700" on="1"/>
        <pt x="91" y="551" on="1"/>
        <pt x="114" y="493" on="0"/>
        <pt x="171" y="335" on="0"/>
        <pt x="180" y="311" on="1"/>
        <pt x="189" y="335" on="0"/>
        <pt x="240" y="474" on="0"/>
        <pt x="269" y="551" on="1"/>
        <pt x="324" y="695" on="1"/>
        <pt x="325" y="699" on="0"/>
        <pt x="337" y="700" on="0"/>
        <pt x="352" y="700" on="1"/>
        <pt x="192" y="287" on="1"/>
      </contour>
    </TTGlyph>
    <TTGlyph name="Yacute" xMin="5" yMin="0" xMax="352" yMax="912">
      <component glyphName=".ttfautohint" x="5" y="0" flags="0x0"/>
      <component glyphName="Y" x="0" y="0" flags="0x1000"/>
      <component glyphName="acute" x="54" y="200" flags="0x1000"/>
    </TTGlyph>
    <TTGlyph name="Ycircumflex" xMin="5" yMin="0" xMax="352" yMax="899">
      <component glyphName=".ttfautohint" x="5" y="0" flags="0x0"/>
      <component glyphName="Y" x="0" y="0" flags="0x1000"/>
      <component glyphName="circumflex" x="54" y="200" flags="0x1000"/>
    </TTGlyph>
    <TTGlyph name="Ydieresis" xMin="5" yMin="0" xMax="352" yMax="870">
      <component glyphName=".ttfautohint" x="5" y="0" flags="0x0"/>
      <component glyphName="Y" x="0" y="0" flags="0x1000"/>
      <component glyphName="dieresis" x="54" y="200" flags="0x1000"/>
    </TTGlyph>
    <TTGlyph name="Ygrave" xMin="5" yMin="0" xMax="352" yMax="912">
      <component glyphName=".ttfautohint" x="5" y="0" flags="0x0"/>
      <component glyphName="Y" x="0" y="0" flags="0x1000"/>
      <component glyphName="grave" x="54" y="200" flags="0x1000"/>
    </TTGlyph>
    <TTGlyph name="Z" xMin="31" yMin="0" xMax="368" yMax="700">
      <contour>
        <pt x="57" y="700" on="0"/>
        <pt x="67" y="700" on="1"/>
        <pt x="364" y="700" on="1"/>
        <pt x="368" y="696" on="0"/>
        <pt x="368" y="689" on="1"/>
        <pt x="368" y="682" on="0"/>
        <pt x="364" y="673" on="1"/>
        <pt x="60" y="24" on="1"/>
        <pt x="323" y="24" on="1"/>
        <pt x="358" y="24" on="0"/>
        <pt x="368" y="27" on="1"/>
        <pt x="368" y="10" on="1"/>
        <pt x="368" y="0" on="0"/>
        <pt x="358" y="0" on="1"/>
        <pt x="38" y="0" on="1"/>
        <pt x="31" y="2" on="0"/>
        <pt x="31" y="11" on="1"/>
        <pt x="31" y="17" on="0"/>
        <pt x="35" y="27" on="1"/>
        <pt x="337" y="676" on="1"/>
        <pt x="95" y="676" on="1"/>
        <pt x="57" y="676" on="1"/>
        <pt x="57" y="690" on="1"/>
      </contour>
    </TTGlyph>
    <TTGlyph name="Zacute" xMin="31" yMin="0" xMax="368" yMax="912">
      <component glyphName=".ttfautohint" x="31" y="0" flags="0x0"/>
      <component glyphName="Z" x="0" y="0" flags="0x1000"/>
      <component glyphName="acute" x="76" y="200" flags="0x1000"/>
    </TTGlyph>
    <TTGlyph name="Zcaron" xMin="31" yMin="0" xMax="368" yMax="922">
      <component glyphName=".ttfautohint" x="31" y="0" flags="0x0"/>
      <component glyphName="Z" x="0" y="0" flags="0x1000"/>
      <component glyphName="caron" x="76" y="200" flags="0x1000"/>
    </TTGlyph>
    <TTGlyph name="Zdotaccent" xMin="31" yMin="0" xMax="368" yMax="870">
      <component glyphName=".ttfautohint" x="31" y="0" flags="0x0"/>
      <component glyphName="Z" x="0" y="0" flags="0x1000"/>
      <component glyphName="dotaccent" x="76" y="200" flags="0x1000"/>
    </TTGlyph>
    <TTGlyph name="a" xMin="44" yMin="-10" xMax="327" yMax="510">
      <contour>
        <pt x="327" y="188" on="0"/>
        <pt x="321" y="28" on="1"/>
        <pt x="260" y="-10" on="0"/>
        <pt x="190" y="-10" on="1"/>
        <pt x="147" y="-11" on="0"/>
        <pt x="85" y="7" on="0"/>
        <pt x="45" y="72" on="0"/>
        <pt x="45" y="135" on="1"/>
        <pt x="45" y="232" on="0"/>
        <pt x="135" y="297" on="0"/>
        <pt x="212" y="297" on="1"/>
        <pt x="269" y="297" on="0"/>
        <pt x="303" y="287" on="1"/>
        <pt x="303" y="385" on="1"/>
        <pt x="303" y="444" on="0"/>
        <pt x="252" y="486" on="0"/>
        <pt x="204" y="486" on="1"/>
        <pt x="151" y="486" on="0"/>
        <pt x="68" y="470" on="0"/>
        <pt x="48" y="460" on="1"/>
        <pt x="44" y="467" on="0"/>
        <pt x="44" y="473" on="1"/>
        <pt x="44" y="484" on="0"/>
        <pt x="49" y="486" on="1"/>
        <pt x="67" y="495" on="0"/>
        <pt x="159" y="510" on="0"/>
        <pt x="209" y="510" on="1"/>
        <pt x="267" y="510" on="0"/>
        <pt x="327" y="454" on="0"/>
        <pt x="327" y="389" on="1"/>
        <pt x="327" y="323" on="1"/>
      </contour>
      <contour>
        <pt x="264" y="275" on="0"/>
        <pt x="217" y="275" on="1"/>
        <pt x="171" y="275" on="0"/>
        <pt x="109" y="257" on="0"/>
        <pt x="69" y="196" on="0"/>
        <pt x="69" y="136" on="1"/>
        <pt x="69" y="80" on="0"/>
        <pt x="103" y="27" on="0"/>
        <pt x="155" y="14" on="0"/>
        <pt x="197" y="14" on="1"/>
        <pt x="228" y="14" on="0"/>
        <pt x="285" y="33" on="0"/>
        <pt x="297" y="43" on="1"/>
        <pt x="303" y="123" on="0"/>
        <pt x="303" y="264" on="1"/>
      </contour>
    </TTGlyph>
    <TTGlyph name="aacute" xMin="44" yMin="-10" xMax="327" yMax="712">
      <component glyphName=".ttfautohint" x="44" y="0" flags="0x0"/>
      <component glyphName="a" x="0" y="0" flags="0x1000"/>
      <component glyphName="acute" x="60" y="0" flags="0x1000"/>
    </TTGlyph>
    <TTGlyph name="abreve" xMin="44" yMin="-10" xMax="327" yMax="707">
      <component glyphName=".ttfautohint" x="44" y="0" flags="0x0"/>
      <component glyphName="a" x="0" y="0" flags="0x1000"/>
      <component glyphName="breve" x="60" y="0" flags="0x1000"/>
    </TTGlyph>
    <TTGlyph name="acircumflex" xMin="44" yMin="-10" xMax="327" yMax="699">
      <component glyphName=".ttfautohint" x="44" y="0" flags="0x0"/>
      <component glyphName="a" x="0" y="0" flags="0x1000"/>
      <component glyphName="circumflex" x="60" y="0" flags="0x1000"/>
    </TTGlyph>
    <TTGlyph name="acute" xMin="49" yMin="579" xMax="201" yMax="712">
      <contour>
        <pt x="49" y="595" on="1"/>
        <pt x="90" y="634" on="0"/>
        <pt x="175" y="703" on="0"/>
        <pt x="188" y="712" on="1"/>
        <pt x="193" y="712" on="0"/>
        <pt x="200" y="693" on="0"/>
        <pt x="201" y="689" on="1"/>
        <pt x="190" y="679" on="0"/>
        <pt x="107" y="612" on="0"/>
        <pt x="59" y="579" on="1"/>
      </contour>
    </TTGlyph>
    <TTGlyph name="adieresis" xMin="44" yMin="-10" xMax="327" yMax="670">
      <component glyphName=".ttfautohint" x="44" y="0" flags="0x0"/>
      <component glyphName="a" x="0" y="0" flags="0x1000"/>
      <component glyphName="dieresis" x="60" y="0" flags="0x1000"/>
    </TTGlyph>
    <TTGlyph name="ae" xMin="45" yMin="-8" xMax="610" yMax="510">
      <contour>
        <pt x="279" y="-8" on="0"/>
        <pt x="190" y="-8" on="1"/>
        <pt x="147" y="-9" on="0"/>
        <pt x="85" y="8" on="0"/>
        <pt x="45" y="72" on="0"/>
        <pt x="45" y="135" on="1"/>
        <pt x="45" y="232" on="0"/>
        <pt x="135" y="297" on="0"/>
        <pt x="212" y="297" on="1"/>
        <pt x="269" y="297" on="0"/>
        <pt x="303" y="287" on="1"/>
        <pt x="303" y="385" on="1"/>
        <pt x="303" y="445" on="0"/>
        <pt x="250" y="486" on="0"/>
        <pt x="198" y="486" on="1"/>
        <pt x="103" y="486" on="0"/>
        <pt x="52" y="456" on="1"/>
        <pt x="49" y="464" on="0"/>
        <pt x="49" y="470" on="1"/>
        <pt x="49" y="480" on="0"/>
        <pt x="57" y="484" on="1"/>
        <pt x="105" y="510" on="0"/>
        <pt x="206" y="510" on="1"/>
        <pt x="265" y="510" on="0"/>
        <pt x="325" y="458" on="0"/>
        <pt x="327" y="397" on="1"/>
        <pt x="350" y="466" on="0"/>
        <pt x="430" y="510" on="0"/>
        <pt x="485" y="510" on="1"/>
        <pt x="610" y="510" on="0"/>
        <pt x="610" y="359" on="1"/>
        <pt x="610" y="288" on="0"/>
        <pt x="603" y="246" on="1"/>
        <pt x="564" y="238" on="0"/>
        <pt x="511" y="238" on="1"/>
        <pt x="414" y="238" on="0"/>
        <pt x="330" y="258" on="1"/>
        <pt x="329" y="217" on="1"/>
        <pt x="329" y="129" on="0"/>
        <pt x="366" y="42" on="0"/>
        <pt x="425" y="16" on="0"/>
        <pt x="473" y="16" on="1"/>
        <pt x="555" y="16" on="0"/>
        <pt x="601" y="53" on="1"/>
        <pt x="606" y="43" on="0"/>
        <pt x="606" y="29" on="1"/>
        <pt x="606" y="24" on="0"/>
        <pt x="567" y="6" on="0"/>
        <pt x="506" y="-8" on="0"/>
        <pt x="474" y="-8" on="1"/>
        <pt x="417" y="-8" on="0"/>
        <pt x="346" y="23" on="0"/>
        <pt x="327" y="71" on="1"/>
        <pt x="327" y="22" on="1"/>
      </contour>
      <contour>
        <pt x="447" y="486" on="0"/>
        <pt x="387" y="463" on="0"/>
        <pt x="338" y="372" on="0"/>
        <pt x="331" y="281" on="1"/>
        <pt x="456" y="261" on="0"/>
        <pt x="513" y="261" on="1"/>
        <pt x="551" y="261" on="0"/>
        <pt x="582" y="267" on="1"/>
        <pt x="586" y="307" on="0"/>
        <pt x="586" y="347" on="1"/>
        <pt x="584" y="418" on="0"/>
        <pt x="541" y="486" on="0"/>
        <pt x="486" y="486" on="1"/>
      </contour>
      <contour>
        <pt x="264" y="275" on="0"/>
        <pt x="217" y="275" on="1"/>
        <pt x="171" y="275" on="0"/>
        <pt x="109" y="257" on="0"/>
        <pt x="69" y="194" on="0"/>
        <pt x="69" y="131" on="1"/>
        <pt x="69" y="79" on="0"/>
        <pt x="104" y="28" on="0"/>
        <pt x="156" y="14" on="0"/>
        <pt x="197" y="14" on="1"/>
        <pt x="230" y="14" on="0"/>
        <pt x="292" y="30" on="0"/>
        <pt x="303" y="41" on="1"/>
        <pt x="303" y="264" on="1"/>
      </contour>
    </TTGlyph>
    <TTGlyph name="agrave" xMin="44" yMin="-10" xMax="327" yMax="712">
      <component glyphName=".ttfautohint" x="44" y="0" flags="0x0"/>
      <component glyphName="a" x="0" y="0" flags="0x1000"/>
      <component glyphName="grave" x="60" y="0" flags="0x1000"/>
    </TTGlyph>
    <TTGlyph name="amacron" xMin="44" yMin="-10" xMax="327" yMax="648">
      <component glyphName=".ttfautohint" x="44" y="0" flags="0x0"/>
      <component glyphName="a" x="0" y="0" flags="0x1000"/>
      <component glyphName="macron" x="60" y="0" flags="0x1000"/>
    </TTGlyph>
    <TTGlyph name="ampersand" xMin="47" yMin="-10" xMax="503" yMax="706">
      <contour>
        <pt x="378" y="470" on="0"/>
        <pt x="415" y="414" on="0"/>
        <pt x="442" y="323" on="0"/>
        <pt x="442" y="263" on="1"/>
        <pt x="442" y="161" on="0"/>
        <pt x="408" y="95" on="1"/>
        <pt x="467" y="31" on="0"/>
        <pt x="494" y="11" on="1"/>
        <pt x="494" y="8" on="0"/>
        <pt x="485" y="-9" on="0"/>
        <pt x="478" y="-9" on="1"/>
        <pt x="466" y="-9" on="0"/>
        <pt x="393" y="69" on="1"/>
        <pt x="339" y="-10" on="0"/>
        <pt x="228" y="-10" on="1"/>
        <pt x="47" y="-10" on="0"/>
        <pt x="47" y="173" on="1"/>
        <pt x="47" y="233" on="0"/>
        <pt x="117" y="331" on="0"/>
        <pt x="167" y="356" on="1"/>
        <pt x="80" y="492" on="0"/>
        <pt x="80" y="568" on="1"/>
        <pt x="80" y="644" on="0"/>
        <pt x="174" y="706" on="0"/>
        <pt x="247" y="706" on="1"/>
        <pt x="285" y="706" on="0"/>
        <pt x="348" y="692" on="0"/>
        <pt x="385" y="673" on="0"/>
        <pt x="385" y="667" on="1"/>
        <pt x="385" y="661" on="0"/>
        <pt x="381" y="652" on="0"/>
        <pt x="380" y="651" on="1"/>
        <pt x="329" y="684" on="0"/>
        <pt x="247" y="684" on="1"/>
        <pt x="104" y="684" on="0"/>
        <pt x="104" y="566" on="1"/>
        <pt x="104" y="496" on="0"/>
        <pt x="278" y="239" on="0"/>
        <pt x="388" y="116" on="1"/>
        <pt x="419" y="181" on="0"/>
        <pt x="419" y="268" on="1"/>
        <pt x="419" y="346" on="0"/>
        <pt x="354" y="473" on="0"/>
        <pt x="306" y="498" on="1"/>
        <pt x="360" y="503" on="0"/>
        <pt x="402" y="503" on="1"/>
        <pt x="473" y="503" on="0"/>
        <pt x="502" y="501" on="1"/>
        <pt x="503" y="496" on="0"/>
        <pt x="503" y="487" on="1"/>
        <pt x="503" y="482" on="0"/>
        <pt x="488" y="479" on="0"/>
        <pt x="463" y="479" on="1"/>
        <pt x="363" y="481" on="1"/>
      </contour>
      <contour>
        <pt x="325" y="14" on="0"/>
        <pt x="374" y="90" on="1"/>
        <pt x="262" y="213" on="0"/>
        <pt x="181" y="334" on="1"/>
        <pt x="137" y="315" on="0"/>
        <pt x="72" y="227" on="0"/>
        <pt x="72" y="170" on="1"/>
        <pt x="72" y="107" on="0"/>
        <pt x="139" y="14" on="0"/>
        <pt x="226" y="14" on="1"/>
      </contour>
    </TTGlyph>
    <TTGlyph name="ampersand.ss03" xMin="54" yMin="-66" xMax="423" yMax="775">
      <contour>
        <pt x="181" y="360" on="0"/>
        <pt x="78" y="275" on="0"/>
        <pt x="78" y="210" on="1"/>
        <pt x="78" y="156" on="0"/>
        <pt x="157" y="78" on="0"/>
        <pt x="235" y="78" on="1"/>
        <pt x="357" y="78" on="0"/>
        <pt x="412" y="160" on="1"/>
        <pt x="414" y="159" on="0"/>
        <pt x="423" y="148" on="0"/>
        <pt x="423" y="142" on="1"/>
        <pt x="423" y="135" on="0"/>
        <pt x="389" y="96" on="0"/>
        <pt x="318" y="59" on="0"/>
        <pt x="263" y="55" on="1"/>
        <pt x="263" y="-52" on="1"/>
        <pt x="263" y="-61" on="0"/>
        <pt x="255" y="-66" on="0"/>
        <pt x="241" y="-66" on="1"/>
        <pt x="241" y="54" on="1"/>
        <pt x="237" y="54" on="1"/>
        <pt x="144" y="54" on="0"/>
        <pt x="54" y="141" on="0"/>
        <pt x="54" y="211" on="1"/>
        <pt x="54" y="273" on="0"/>
        <pt x="120" y="352" on="0"/>
        <pt x="173" y="366" on="1"/>
        <pt x="150" y="365" on="0"/>
        <pt x="102" y="393" on="0"/>
        <pt x="70" y="447" on="0"/>
        <pt x="70" y="485" on="1"/>
        <pt x="70" y="560" on="0"/>
        <pt x="173" y="646" on="0"/>
        <pt x="251" y="648" on="1"/>
        <pt x="251" y="761" on="1"/>
        <pt x="251" y="770" on="0"/>
        <pt x="260" y="775" on="0"/>
        <pt x="273" y="775" on="1"/>
        <pt x="273" y="648" on="1"/>
        <pt x="320" y="645" on="0"/>
        <pt x="388" y="615" on="0"/>
        <pt x="423" y="579" on="0"/>
        <pt x="423" y="571" on="1"/>
        <pt x="423" y="563" on="0"/>
        <pt x="415" y="550" on="0"/>
        <pt x="413" y="549" on="1"/>
        <pt x="365" y="623" on="0"/>
        <pt x="259" y="623" on="1"/>
        <pt x="187" y="623" on="0"/>
        <pt x="96" y="553" on="0"/>
        <pt x="96" y="486" on="1"/>
        <pt x="96" y="385" on="0"/>
        <pt x="224" y="385" on="1"/>
        <pt x="246" y="385" on="0"/>
        <pt x="289" y="389" on="0"/>
        <pt x="295" y="390" on="1"/>
        <pt x="289" y="363" on="1"/>
      </contour>
    </TTGlyph>
    <TTGlyph name="ampersand.ss04" xMin="54" yMin="-7" xMax="632" yMax="690">
      <contour>
        <pt x="456" y="434" on="0"/>
        <pt x="323" y="417" on="0"/>
        <pt x="148" y="401" on="0"/>
        <pt x="79" y="401" on="1"/>
        <pt x="79" y="300" on="0"/>
        <pt x="116" y="205" on="0"/>
        <pt x="174" y="182" on="0"/>
        <pt x="224" y="182" on="1"/>
        <pt x="263" y="182" on="0"/>
        <pt x="311" y="211" on="0"/>
        <pt x="331" y="241" on="0"/>
        <pt x="346" y="270" on="1"/>
        <pt x="348" y="268" on="0"/>
        <pt x="357" y="256" on="0"/>
        <pt x="357" y="248" on="1"/>
        <pt x="357" y="237" on="0"/>
        <pt x="328" y="194" on="0"/>
        <pt x="267" y="159" on="0"/>
        <pt x="221" y="159" on="1"/>
        <pt x="165" y="159" on="0"/>
        <pt x="95" y="191" on="0"/>
        <pt x="54" y="294" on="0"/>
        <pt x="54" y="396" on="1"/>
        <pt x="54" y="549" on="0"/>
        <pt x="141" y="690" on="0"/>
        <pt x="243" y="690" on="1"/>
        <pt x="351" y="690" on="0"/>
        <pt x="351" y="535" on="1"/>
        <pt x="347" y="443" on="1"/>
        <pt x="394" y="447" on="0"/>
        <pt x="465" y="457" on="0"/>
        <pt x="474" y="458" on="1"/>
        <pt x="474" y="598" on="1"/>
        <pt x="474" y="608" on="0"/>
        <pt x="482" y="614" on="0"/>
        <pt x="500" y="614" on="1"/>
        <pt x="500" y="461" on="1"/>
        <pt x="547" y="467" on="0"/>
        <pt x="617" y="478" on="0"/>
        <pt x="626" y="480" on="1"/>
        <pt x="626" y="459" on="0"/>
        <pt x="619" y="458" on="1"/>
        <pt x="609" y="456" on="0"/>
        <pt x="538" y="444" on="0"/>
        <pt x="500" y="440" on="1"/>
        <pt x="500" y="153" on="1"/>
        <pt x="500" y="95" on="0"/>
        <pt x="509" y="38" on="0"/>
        <pt x="533" y="16" on="0"/>
        <pt x="557" y="16" on="1"/>
        <pt x="579" y="16" on="0"/>
        <pt x="612" y="21" on="0"/>
        <pt x="628" y="27" on="0"/>
        <pt x="630" y="28" on="1"/>
        <pt x="630" y="27" on="0"/>
        <pt x="632" y="18" on="0"/>
        <pt x="632" y="12" on="1"/>
        <pt x="632" y="4" on="0"/>
        <pt x="593" y="-7" on="0"/>
        <pt x="558" y="-7" on="1"/>
        <pt x="525" y="-7" on="0"/>
        <pt x="491" y="15" on="0"/>
        <pt x="474" y="85" on="0"/>
        <pt x="474" y="157" on="1"/>
        <pt x="474" y="437" on="1"/>
      </contour>
      <contour>
        <pt x="328" y="607" on="0"/>
        <pt x="280" y="669" on="0"/>
        <pt x="235" y="669" on="1"/>
        <pt x="199" y="669" on="0"/>
        <pt x="137" y="642" on="0"/>
        <pt x="84" y="534" on="0"/>
        <pt x="80" y="424" on="1"/>
        <pt x="129" y="424" on="0"/>
        <pt x="238" y="431" on="0"/>
        <pt x="315" y="439" on="0"/>
        <pt x="325" y="440" on="1"/>
        <pt x="328" y="523" on="1"/>
      </contour>
    </TTGlyph>
    <TTGlyph name="aogonek" xMin="44" yMin="-195" xMax="327" yMax="510">
      <contour>
        <pt x="303" y="444" on="0"/>
        <pt x="252" y="486" on="0"/>
        <pt x="204" y="486" on="1"/>
        <pt x="151" y="486" on="0"/>
        <pt x="68" y="470" on="0"/>
        <pt x="48" y="460" on="1"/>
        <pt x="44" y="467" on="0"/>
        <pt x="44" y="473" on="1"/>
        <pt x="44" y="484" on="0"/>
        <pt x="49" y="486" on="1"/>
        <pt x="67" y="495" on="0"/>
        <pt x="159" y="510" on="0"/>
        <pt x="209" y="510" on="1"/>
        <pt x="267" y="510" on="0"/>
        <pt x="327" y="454" on="0"/>
        <pt x="327" y="389" on="1"/>
        <pt x="327" y="323" on="1"/>
        <pt x="327" y="188" on="0"/>
        <pt x="321" y="28" on="1"/>
        <pt x="236" y="-30" on="0"/>
        <pt x="236" y="-108" on="1"/>
        <pt x="236" y="-140" on="0"/>
        <pt x="258" y="-171" on="0"/>
        <pt x="283" y="-171" on="1"/>
        <pt x="299" y="-171" on="0"/>
        <pt x="317" y="-162" on="1"/>
        <pt x="320" y="-165" on="0"/>
        <pt x="321" y="-169" on="1"/>
        <pt x="323" y="-177" on="1"/>
        <pt x="323" y="-195" on="0"/>
        <pt x="282" y="-195" on="1"/>
        <pt x="212" y="-195" on="0"/>
        <pt x="212" y="-108" on="1"/>
        <pt x="212" y="-56" on="0"/>
        <pt x="252" y="-3" on="1"/>
        <pt x="224" y="-10" on="0"/>
        <pt x="178" y="-10" on="1"/>
        <pt x="117" y="-10" on="0"/>
        <pt x="45" y="49" on="0"/>
        <pt x="45" y="135" on="1"/>
        <pt x="45" y="232" on="0"/>
        <pt x="135" y="297" on="0"/>
        <pt x="212" y="297" on="1"/>
        <pt x="269" y="297" on="0"/>
        <pt x="303" y="287" on="1"/>
        <pt x="303" y="385" on="1"/>
      </contour>
      <contour>
        <pt x="171" y="275" on="0"/>
        <pt x="109" y="257" on="0"/>
        <pt x="69" y="196" on="0"/>
        <pt x="69" y="136" on="1"/>
        <pt x="69" y="80" on="0"/>
        <pt x="103" y="27" on="0"/>
        <pt x="155" y="14" on="0"/>
        <pt x="197" y="14" on="1"/>
        <pt x="228" y="14" on="0"/>
        <pt x="285" y="33" on="0"/>
        <pt x="297" y="43" on="1"/>
        <pt x="303" y="123" on="0"/>
        <pt x="303" y="264" on="1"/>
        <pt x="264" y="275" on="0"/>
        <pt x="217" y="275" on="1"/>
      </contour>
    </TTGlyph>
    <TTGlyph name="apple" xMin="60" yMin="-10" xMax="780" yMax="710">
      <contour>
        <pt x="528" y="710" on="0"/>
        <pt x="691" y="621" on="0"/>
        <pt x="780" y="458" on="0"/>
        <pt x="780" y="350" on="1"/>
        <pt x="780" y="242" on="0"/>
        <pt x="691" y="79" on="0"/>
        <pt x="528" y="-10" on="0"/>
        <pt x="420" y="-10" on="1"/>
        <pt x="312" y="-10" on="0"/>
        <pt x="149" y="79" on="0"/>
        <pt x="60" y="242" on="0"/>
        <pt x="60" y="350" on="1"/>
        <pt x="60" y="458" on="0"/>
        <pt x="149" y="621" on="0"/>
        <pt x="312" y="710" on="0"/>
        <pt x="420" y="710" on="1"/>
      </contour>
      <contour>
        <pt x="403" y="579" on="0"/>
        <pt x="368" y="545" on="0"/>
        <pt x="368" y="516" on="1"/>
        <pt x="368" y="487" on="0"/>
        <pt x="399" y="446" on="0"/>
        <pt x="433" y="417" on="1"/>
        <pt x="476" y="382" on="0"/>
        <pt x="496" y="356" on="1"/>
        <pt x="513" y="379" on="0"/>
        <pt x="559" y="418" on="1"/>
        <pt x="593" y="445" on="0"/>
        <pt x="625" y="486" on="0"/>
        <pt x="625" y="516" on="1"/>
        <pt x="625" y="545" on="0"/>
        <pt x="589" y="579" on="0"/>
        <pt x="563" y="579" on="1"/>
        <pt x="520" y="579" on="0"/>
        <pt x="496" y="535" on="1"/>
        <pt x="472" y="579" on="0"/>
        <pt x="429" y="579" on="1"/>
      </contour>
      <contour>
        <pt x="314" y="540" on="0"/>
        <pt x="319" y="540" on="1"/>
        <pt x="333" y="539" on="1"/>
        <pt x="339" y="539" on="0"/>
        <pt x="350" y="549" on="0"/>
        <pt x="350" y="556" on="1"/>
        <pt x="350" y="574" on="0"/>
        <pt x="329" y="574" on="1"/>
        <pt x="321" y="574" on="0"/>
        <pt x="302" y="571" on="0"/>
        <pt x="295" y="571" on="1"/>
        <pt x="286" y="571" on="0"/>
        <pt x="267" y="574" on="0"/>
        <pt x="259" y="574" on="1"/>
        <pt x="236" y="574" on="0"/>
        <pt x="236" y="556" on="1"/>
        <pt x="236" y="550" on="0"/>
        <pt x="247" y="539" on="0"/>
        <pt x="254" y="539" on="1"/>
        <pt x="268" y="540" on="1"/>
        <pt x="273" y="540" on="0"/>
        <pt x="273" y="528" on="1"/>
        <pt x="273" y="416" on="1"/>
        <pt x="273" y="404" on="0"/>
        <pt x="268" y="404" on="1"/>
        <pt x="254" y="405" on="1"/>
        <pt x="246" y="405" on="0"/>
        <pt x="236" y="395" on="0"/>
        <pt x="236" y="388" on="1"/>
        <pt x="236" y="380" on="0"/>
        <pt x="247" y="368" on="0"/>
        <pt x="257" y="368" on="1"/>
        <pt x="268" y="368" on="0"/>
        <pt x="289" y="373" on="0"/>
        <pt x="296" y="373" on="1"/>
        <pt x="302" y="373" on="0"/>
        <pt x="321" y="368" on="0"/>
        <pt x="329" y="368" on="1"/>
        <pt x="350" y="368" on="0"/>
        <pt x="350" y="388" on="1"/>
        <pt x="350" y="405" on="0"/>
        <pt x="333" y="405" on="1"/>
        <pt x="319" y="404" on="1"/>
        <pt x="314" y="404" on="0"/>
        <pt x="314" y="416" on="1"/>
        <pt x="314" y="528" on="1"/>
      </contour>
      <contour>
        <pt x="647" y="294" on="0"/>
        <pt x="647" y="311" on="1"/>
        <pt x="647" y="330" on="0"/>
        <pt x="627" y="330" on="1"/>
        <pt x="619" y="330" on="0"/>
        <pt x="603" y="327" on="0"/>
        <pt x="595" y="327" on="1"/>
        <pt x="588" y="327" on="0"/>
        <pt x="571" y="330" on="0"/>
        <pt x="563" y="330" on="1"/>
        <pt x="552" y="330" on="0"/>
        <pt x="541" y="318" on="0"/>
        <pt x="541" y="311" on="1"/>
        <pt x="541" y="304" on="0"/>
        <pt x="551" y="294" on="0"/>
        <pt x="559" y="294" on="1"/>
        <pt x="567" y="294" on="1"/>
        <pt x="578" y="294" on="0"/>
        <pt x="578" y="282" on="1"/>
        <pt x="578" y="184" on="1"/>
        <pt x="508" y="312" on="1"/>
        <pt x="506" y="318" on="1"/>
        <pt x="504" y="330" on="0"/>
        <pt x="487" y="330" on="1"/>
        <pt x="482" y="330" on="0"/>
        <pt x="469" y="328" on="0"/>
        <pt x="461" y="328" on="1"/>
        <pt x="451" y="328" on="0"/>
        <pt x="438" y="330" on="0"/>
        <pt x="435" y="330" on="1"/>
        <pt x="422" y="330" on="0"/>
        <pt x="418" y="319" on="1"/>
        <pt x="413" y="330" on="0"/>
        <pt x="401" y="330" on="1"/>
        <pt x="393" y="330" on="0"/>
        <pt x="374" y="327" on="0"/>
        <pt x="365" y="327" on="1"/>
        <pt x="355" y="327" on="0"/>
        <pt x="339" y="330" on="0"/>
        <pt x="333" y="330" on="1"/>
        <pt x="314" y="330" on="0"/>
        <pt x="314" y="311" on="1"/>
        <pt x="314" y="293" on="0"/>
        <pt x="333" y="293" on="1"/>
        <pt x="338" y="294" on="1"/>
        <pt x="319" y="259" on="1"/>
        <pt x="308" y="239" on="1"/>
        <pt x="274" y="294" on="1"/>
        <pt x="276" y="294" on="1"/>
        <pt x="298" y="294" on="0"/>
        <pt x="298" y="311" on="1"/>
        <pt x="298" y="330" on="0"/>
        <pt x="278" y="330" on="1"/>
        <pt x="271" y="330" on="0"/>
        <pt x="253" y="326" on="0"/>
        <pt x="247" y="326" on="1"/>
        <pt x="241" y="326" on="0"/>
        <pt x="218" y="330" on="0"/>
        <pt x="212" y="330" on="1"/>
        <pt x="192" y="330" on="0"/>
        <pt x="192" y="311" on="1"/>
        <pt x="192" y="293" on="0"/>
        <pt x="213" y="293" on="1"/>
        <pt x="223" y="294" on="1"/>
        <pt x="227" y="294" on="0"/>
        <pt x="228" y="293" on="1"/>
        <pt x="286" y="199" on="1"/>
        <pt x="286" y="165" on="1"/>
        <pt x="286" y="157" on="0"/>
        <pt x="280" y="157" on="1"/>
        <pt x="277" y="157" on="0"/>
        <pt x="270" y="160" on="0"/>
        <pt x="267" y="160" on="1"/>
        <pt x="249" y="160" on="0"/>
        <pt x="249" y="141" on="1"/>
        <pt x="249" y="124" on="0"/>
        <pt x="270" y="124" on="1"/>
        <pt x="277" y="124" on="0"/>
        <pt x="299" y="128" on="0"/>
        <pt x="305" y="128" on="1"/>
        <pt x="311" y="128" on="0"/>
        <pt x="334" y="124" on="0"/>
        <pt x="341" y="124" on="1"/>
        <pt x="363" y="124" on="0"/>
        <pt x="363" y="142" on="1"/>
        <pt x="363" y="160" on="0"/>
        <pt x="347" y="160" on="1"/>
        <pt x="342" y="160" on="0"/>
        <pt x="334" y="157" on="0"/>
        <pt x="332" y="157" on="1"/>
        <pt x="326" y="157" on="0"/>
        <pt x="326" y="165" on="1"/>
        <pt x="326" y="201" on="1"/>
        <pt x="384" y="292" on="1"/>
        <pt x="386" y="295" on="0"/>
        <pt x="388" y="295" on="1"/>
        <pt x="392" y="295" on="0"/>
        <pt x="398" y="294" on="0"/>
        <pt x="401" y="294" on="1"/>
        <pt x="413" y="294" on="0"/>
        <pt x="417" y="303" on="1"/>
        <pt x="424" y="294" on="0"/>
        <pt x="432" y="294" on="1"/>
        <pt x="437" y="294" on="0"/>
        <pt x="443" y="295" on="0"/>
        <pt x="445" y="295" on="1"/>
        <pt x="451" y="295" on="0"/>
        <pt x="451" y="282" on="1"/>
        <pt x="451" y="169" on="1"/>
        <pt x="451" y="157" on="0"/>
        <pt x="445" y="157" on="1"/>
        <pt x="442" y="157" on="0"/>
        <pt x="436" y="159" on="0"/>
        <pt x="432" y="159" on="1"/>
        <pt x="415" y="159" on="0"/>
        <pt x="415" y="142" on="1"/>
        <pt x="415" y="124" on="0"/>
        <pt x="435" y="124" on="1"/>
        <pt x="442" y="124" on="0"/>
        <pt x="464" y="128" on="0"/>
        <pt x="472" y="128" on="1"/>
        <pt x="480" y="128" on="0"/>
        <pt x="498" y="124" on="0"/>
        <pt x="505" y="124" on="1"/>
        <pt x="526" y="124" on="0"/>
        <pt x="526" y="141" on="1"/>
        <pt x="526" y="159" on="0"/>
        <pt x="509" y="159" on="1"/>
        <pt x="505" y="159" on="0"/>
        <pt x="499" y="157" on="0"/>
        <pt x="496" y="157" on="1"/>
        <pt x="490" y="157" on="0"/>
        <pt x="490" y="170" on="1"/>
        <pt x="490" y="267" on="1"/>
        <pt x="558" y="144" on="1"/>
        <pt x="571" y="120" on="0"/>
        <pt x="589" y="120" on="1"/>
        <pt x="616" y="120" on="0"/>
        <pt x="616" y="164" on="1"/>
        <pt x="616" y="282" on="1"/>
        <pt x="616" y="294" on="0"/>
        <pt x="623" y="294" on="1"/>
        <pt x="628" y="294" on="1"/>
      </contour>
    </TTGlyph>
    <TTGlyph name="approxequal" xMin="14" yMin="176" xMax="387" yMax="376">
      <contour>
        <pt x="28" y="337" on="0"/>
        <pt x="84" y="376" on="0"/>
        <pt x="125" y="376" on="1"/>
        <pt x="147" y="376" on="0"/>
        <pt x="177" y="362" on="0"/>
        <pt x="199" y="348" on="1"/>
        <pt x="241" y="320" on="0"/>
        <pt x="276" y="320" on="1"/>
        <pt x="333" y="320" on="0"/>
        <pt x="363" y="367" on="1"/>
        <pt x="368" y="373" on="0"/>
        <pt x="373" y="373" on="1"/>
        <pt x="382" y="373" on="0"/>
        <pt x="387" y="361" on="1"/>
        <pt x="384" y="358" on="0"/>
        <pt x="379" y="349" on="0"/>
        <pt x="375" y="344" on="1"/>
        <pt x="337" y="296" on="0"/>
        <pt x="274" y="296" on="1"/>
        <pt x="247" y="296" on="0"/>
        <pt x="210" y="312" on="0"/>
        <pt x="186" y="327" on="1"/>
        <pt x="149" y="352" on="0"/>
        <pt x="122" y="352" on="1"/>
        <pt x="70" y="352" on="0"/>
        <pt x="36" y="307" on="1"/>
        <pt x="31" y="302" on="0"/>
        <pt x="27" y="302" on="1"/>
        <pt x="19" y="302" on="0"/>
        <pt x="14" y="314" on="1"/>
      </contour>
      <contour>
        <pt x="28" y="217" on="0"/>
        <pt x="84" y="256" on="0"/>
        <pt x="125" y="256" on="1"/>
        <pt x="147" y="256" on="0"/>
        <pt x="177" y="242" on="0"/>
        <pt x="199" y="228" on="1"/>
        <pt x="241" y="200" on="0"/>
        <pt x="276" y="200" on="1"/>
        <pt x="333" y="200" on="0"/>
        <pt x="363" y="247" on="1"/>
        <pt x="368" y="253" on="0"/>
        <pt x="373" y="253" on="1"/>
        <pt x="382" y="253" on="0"/>
        <pt x="387" y="241" on="1"/>
        <pt x="368" y="213" on="0"/>
        <pt x="318" y="176" on="0"/>
        <pt x="274" y="176" on="1"/>
        <pt x="247" y="176" on="0"/>
        <pt x="210" y="192" on="0"/>
        <pt x="186" y="207" on="1"/>
        <pt x="149" y="232" on="0"/>
        <pt x="122" y="232" on="1"/>
        <pt x="92" y="232" on="0"/>
        <pt x="47" y="203" on="0"/>
        <pt x="36" y="187" on="1"/>
        <pt x="31" y="182" on="0"/>
        <pt x="27" y="182" on="1"/>
        <pt x="19" y="182" on="0"/>
        <pt x="14" y="194" on="1"/>
      </contour>
    </TTGlyph>
    <TTGlyph name="aring" xMin="44" yMin="-10" xMax="327" yMax="734">
      <component glyphName=".ttfautohint" x="44" y="0" flags="0x0"/>
      <component glyphName="a" x="0" y="0" flags="0x1000"/>
      <component glyphName="ring" x="60" y="0" flags="0x1000"/>
    </TTGlyph>
    <TTGlyph name="asciicircum" xMin="68" yMin="218" xMax="358" yMax="373">
      <contour>
        <pt x="86" y="218" on="0"/>
        <pt x="80" y="218" on="1"/>
        <pt x="70" y="218" on="0"/>
        <pt x="68" y="232" on="1"/>
        <pt x="216" y="373" on="1"/>
        <pt x="353" y="242" on="1"/>
        <pt x="358" y="237" on="0"/>
        <pt x="358" y="232" on="1"/>
        <pt x="358" y="220" on="0"/>
        <pt x="344" y="218" on="1"/>
        <pt x="215" y="342" on="1"/>
        <pt x="98" y="229" on="1"/>
      </contour>
    </TTGlyph>
    <TTGlyph name="asciitilde" xMin="14" yMin="236" xMax="387" yMax="316">
      <contour>
        <pt x="28" y="277" on="0"/>
        <pt x="84" y="316" on="0"/>
        <pt x="125" y="316" on="1"/>
        <pt x="147" y="316" on="0"/>
        <pt x="177" y="302" on="0"/>
        <pt x="199" y="288" on="1"/>
        <pt x="241" y="260" on="0"/>
        <pt x="276" y="260" on="1"/>
        <pt x="333" y="260" on="0"/>
        <pt x="363" y="307" on="1"/>
        <pt x="368" y="313" on="0"/>
        <pt x="373" y="313" on="1"/>
        <pt x="382" y="313" on="0"/>
        <pt x="387" y="301" on="1"/>
        <pt x="368" y="273" on="0"/>
        <pt x="318" y="236" on="0"/>
        <pt x="274" y="236" on="1"/>
        <pt x="247" y="236" on="0"/>
        <pt x="210" y="252" on="0"/>
        <pt x="186" y="267" on="1"/>
        <pt x="149" y="292" on="0"/>
        <pt x="122" y="292" on="1"/>
        <pt x="92" y="292" on="0"/>
        <pt x="47" y="263" on="0"/>
        <pt x="36" y="247" on="1"/>
        <pt x="31" y="242" on="0"/>
        <pt x="27" y="242" on="1"/>
        <pt x="19" y="242" on="0"/>
        <pt x="14" y="254" on="1"/>
      </contour>
    </TTGlyph>
    <TTGlyph name="asterisk" xMin="26" yMin="257" xMax="448" yMax="680">
      <contour>
        <pt x="241" y="491" on="0"/>
        <pt x="226" y="494" on="1"/>
        <pt x="218" y="673" on="1"/>
        <pt x="218" y="680" on="0"/>
        <pt x="231" y="680" on="1"/>
        <pt x="240" y="680" on="0"/>
        <pt x="249" y="675" on="1"/>
        <pt x="241" y="501" on="1"/>
      </contour>
      <contour>
        <pt x="203" y="476" on="1"/>
        <pt x="203" y="471" on="0"/>
        <pt x="197" y="466" on="0"/>
        <pt x="193" y="467" on="1"/>
        <pt x="26" y="526" on="1"/>
        <pt x="25" y="537" on="0"/>
        <pt x="44" y="557" on="0"/>
        <pt x="51" y="553" on="1"/>
        <pt x="202" y="480" on="1"/>
      </contour>
      <contour>
        <pt x="440" y="550" on="0"/>
        <pt x="448" y="537" on="0"/>
        <pt x="448" y="531" on="1"/>
        <pt x="448" y="524" on="0"/>
        <pt x="442" y="522" on="1"/>
        <pt x="268" y="464" on="1"/>
        <pt x="263" y="469" on="0"/>
        <pt x="263" y="475" on="1"/>
        <pt x="263" y="482" on="0"/>
        <pt x="271" y="485" on="1"/>
        <pt x="435" y="552" on="1"/>
      </contour>
      <contour>
        <pt x="247" y="424" on="0"/>
        <pt x="247" y="427" on="1"/>
        <pt x="247" y="433" on="0"/>
        <pt x="257" y="436" on="1"/>
        <pt x="367" y="281" on="1"/>
        <pt x="371" y="275" on="0"/>
        <pt x="357" y="259" on="0"/>
        <pt x="345" y="257" on="1"/>
        <pt x="248" y="423" on="1"/>
      </contour>
      <contour>
        <pt x="206" y="434" on="0"/>
        <pt x="209" y="434" on="1"/>
        <pt x="214" y="434" on="0"/>
        <pt x="219" y="427" on="1"/>
        <pt x="112" y="271" on="1"/>
        <pt x="109" y="267" on="0"/>
        <pt x="105" y="267" on="1"/>
        <pt x="99" y="267" on="0"/>
        <pt x="88" y="279" on="0"/>
        <pt x="85" y="286" on="1"/>
        <pt x="203" y="431" on="1"/>
      </contour>
    </TTGlyph>
    <TTGlyph name="at" xMin="60" yMin="-188" xMax="715" yMax="687">
      <contour>
        <pt x="504" y="66" on="0"/>
        <pt x="502" y="52" on="1"/>
        <pt x="523" y="25" on="0"/>
        <pt x="555" y="25" on="1"/>
        <pt x="579" y="25" on="0"/>
        <pt x="640" y="67" on="0"/>
        <pt x="693" y="212" on="0"/>
        <pt x="693" y="352" on="1"/>
        <pt x="693" y="515" on="0"/>
        <pt x="561" y="665" on="0"/>
        <pt x="415" y="665" on="1"/>
        <pt x="83" y="665" on="0"/>
        <pt x="83" y="263" on="1"/>
        <pt x="83" y="75" on="0"/>
        <pt x="165" y="-112" on="0"/>
        <pt x="298" y="-166" on="0"/>
        <pt x="401" y="-166" on="1"/>
        <pt x="484" y="-166" on="0"/>
        <pt x="591" y="-130" on="0"/>
        <pt x="635" y="-103" on="1"/>
        <pt x="636" y="-105" on="0"/>
        <pt x="642" y="-120" on="0"/>
        <pt x="642" y="-127" on="1"/>
        <pt x="642" y="-132" on="0"/>
        <pt x="576" y="-163" on="0"/>
        <pt x="468" y="-188" on="0"/>
        <pt x="403" y="-188" on="1"/>
        <pt x="291" y="-188" on="0"/>
        <pt x="149" y="-133" on="0"/>
        <pt x="60" y="64" on="0"/>
        <pt x="60" y="265" on="1"/>
        <pt x="60" y="687" on="0"/>
        <pt x="417" y="687" on="1"/>
        <pt x="573" y="687" on="0"/>
        <pt x="715" y="525" on="0"/>
        <pt x="715" y="349" on="1"/>
        <pt x="715" y="134" on="0"/>
        <pt x="608" y="3" on="0"/>
        <pt x="555" y="3" on="1"/>
        <pt x="515" y="3" on="0"/>
        <pt x="492" y="30" on="1"/>
        <pt x="447" y="2" on="0"/>
        <pt x="374" y="1" on="1"/>
        <pt x="368" y="1" on="1"/>
        <pt x="312" y="1" on="0"/>
        <pt x="250" y="58" on="0"/>
        <pt x="250" y="136" on="1"/>
        <pt x="250" y="232" on="0"/>
        <pt x="343" y="306" on="0"/>
        <pt x="426" y="306" on="1"/>
        <pt x="468" y="306" on="0"/>
        <pt x="490" y="301" on="1"/>
        <pt x="493" y="367" on="1"/>
        <pt x="495" y="426" on="0"/>
        <pt x="442" y="468" on="0"/>
        <pt x="390" y="468" on="1"/>
        <pt x="318" y="468" on="0"/>
        <pt x="274" y="443" on="1"/>
        <pt x="271" y="449" on="0"/>
        <pt x="271" y="457" on="1"/>
        <pt x="271" y="465" on="0"/>
        <pt x="280" y="471" on="1"/>
        <pt x="319" y="492" on="0"/>
        <pt x="399" y="492" on="1"/>
        <pt x="459" y="492" on="0"/>
        <pt x="517" y="436" on="0"/>
        <pt x="515" y="371" on="1"/>
        <pt x="507" y="139" on="1"/>
      </contour>
      <contour>
        <pt x="460" y="285" on="0"/>
        <pt x="423" y="285" on="1"/>
        <pt x="352" y="285" on="0"/>
        <pt x="272" y="219" on="0"/>
        <pt x="272" y="136" on="1"/>
        <pt x="272" y="67" on="0"/>
        <pt x="330" y="22" on="0"/>
        <pt x="383" y="22" on="1"/>
        <pt x="414" y="22" on="0"/>
        <pt x="481" y="45" on="0"/>
        <pt x="482" y="56" on="1"/>
        <pt x="490" y="279" on="1"/>
      </contour>
    </TTGlyph>
    <TTGlyph name="atilde" xMin="44" yMin="-10" xMax="327" yMax="674">
      <component glyphName=".ttfautohint" x="44" y="0" flags="0x0"/>
      <component glyphName="a" x="0" y="0" flags="0x1000"/>
      <component glyphName="tilde" x="60" y="0" flags="0x1000"/>
    </TTGlyph>
    <TTGlyph name="b" xMin="70" yMin="-10" xMax="380" yMax="735">
      <contour>
        <pt x="70" y="730" on="0"/>
        <pt x="80" y="735" on="0"/>
        <pt x="94" y="735" on="1"/>
        <pt x="94" y="463" on="1"/>
        <pt x="154" y="510" on="0"/>
        <pt x="240" y="510" on="1"/>
        <pt x="380" y="508" on="0"/>
        <pt x="380" y="324" on="1"/>
        <pt x="380" y="-10" on="0"/>
        <pt x="185" y="-10" on="1"/>
        <pt x="109" y="-10" on="0"/>
        <pt x="70" y="20" on="1"/>
        <pt x="70" y="720" on="1"/>
      </contour>
      <contour>
        <pt x="123" y="14" on="0"/>
        <pt x="186" y="14" on="1"/>
        <pt x="356" y="14" on="0"/>
        <pt x="356" y="311" on="1"/>
        <pt x="356" y="409" on="0"/>
        <pt x="297" y="486" on="0"/>
        <pt x="231" y="486" on="1"/>
        <pt x="150" y="486" on="0"/>
        <pt x="94" y="433" on="1"/>
        <pt x="94" y="37" on="1"/>
      </contour>
    </TTGlyph>
    <TTGlyph name="backslash" xMin="10" yMin="-30" xMax="263" yMax="765">
      <contour>
        <pt x="263" y="-24" on="1"/>
        <pt x="263" y="-30" on="0"/>
        <pt x="240" y="-30" on="1"/>
        <pt x="11" y="755" on="1"/>
        <pt x="10" y="759" on="1"/>
        <pt x="10" y="765" on="0"/>
        <pt x="33" y="765" on="1"/>
        <pt x="262" y="-21" on="1"/>
      </contour>
    </TTGlyph>
    <TTGlyph name="bar" xMin="183" yMin="-200" xMax="206" yMax="815">
      <contour>
        <pt x="206" y="-197" on="0"/>
        <pt x="197" y="-200" on="0"/>
        <pt x="183" y="-200" on="1"/>
        <pt x="183" y="805" on="1"/>
        <pt x="183" y="812" on="0"/>
        <pt x="191" y="815" on="0"/>
        <pt x="206" y="815" on="1"/>
        <pt x="206" y="-191" on="1"/>
      </contour>
    </TTGlyph>
    <TTGlyph name="braceleft" xMin="65" yMin="-151" xMax="277" yMax="744">
      <contour>
        <pt x="277" y="739" on="0"/>
        <pt x="277" y="730" on="1"/>
        <pt x="277" y="719" on="0"/>
        <pt x="266" y="719" on="1"/>
        <pt x="204" y="717" on="0"/>
        <pt x="142" y="680" on="0"/>
        <pt x="142" y="625" on="1"/>
        <pt x="142" y="605" on="0"/>
        <pt x="148" y="549" on="1"/>
        <pt x="156" y="473" on="0"/>
        <pt x="156" y="418" on="1"/>
        <pt x="156" y="367" on="0"/>
        <pt x="121" y="315" on="0"/>
        <pt x="90" y="302" on="1"/>
        <pt x="123" y="292" on="0"/>
        <pt x="156" y="250" on="0"/>
        <pt x="156" y="209" on="1"/>
        <pt x="156" y="153" on="0"/>
        <pt x="148" y="75" on="1"/>
        <pt x="142" y="11" on="0"/>
        <pt x="142" y="-15" on="1"/>
        <pt x="142" y="-66" on="0"/>
        <pt x="171" y="-113" on="0"/>
        <pt x="219" y="-125" on="0"/>
        <pt x="272" y="-129" on="1"/>
        <pt x="274" y="-137" on="0"/>
        <pt x="274" y="-139" on="1"/>
        <pt x="274" y="-151" on="0"/>
        <pt x="263" y="-151" on="1"/>
        <pt x="186" y="-151" on="0"/>
        <pt x="118" y="-94" on="0"/>
        <pt x="118" y="-18" on="1"/>
        <pt x="118" y="24" on="0"/>
        <pt x="125" y="83" on="1"/>
        <pt x="132" y="167" on="0"/>
        <pt x="132" y="203" on="1"/>
        <pt x="132" y="243" on="0"/>
        <pt x="98" y="279" on="0"/>
        <pt x="67" y="285" on="1"/>
        <pt x="65" y="290" on="0"/>
        <pt x="65" y="299" on="1"/>
        <pt x="65" y="312" on="0"/>
        <pt x="77" y="318" on="1"/>
        <pt x="98" y="330" on="0"/>
        <pt x="119" y="347" on="0"/>
        <pt x="132" y="384" on="0"/>
        <pt x="132" y="417" on="1"/>
        <pt x="132" y="447" on="0"/>
        <pt x="125" y="529" on="1"/>
        <pt x="118" y="587" on="0"/>
        <pt x="118" y="629" on="1"/>
        <pt x="118" y="692" on="0"/>
        <pt x="199" y="744" on="0"/>
        <pt x="273" y="744" on="1"/>
      </contour>
    </TTGlyph>
    <TTGlyph name="braceright" xMin="19" yMin="-151" xMax="231" yMax="744">
      <contour>
        <pt x="19" y="-146" on="0"/>
        <pt x="19" y="-137" on="1"/>
        <pt x="19" y="-126" on="0"/>
        <pt x="30" y="-126" on="1"/>
        <pt x="92" y="-124" on="0"/>
        <pt x="154" y="-87" on="0"/>
        <pt x="154" y="-32" on="1"/>
        <pt x="154" y="-12" on="0"/>
        <pt x="148" y="44" on="1"/>
        <pt x="140" y="120" on="0"/>
        <pt x="140" y="175" on="1"/>
        <pt x="140" y="226" on="0"/>
        <pt x="175" y="278" on="0"/>
        <pt x="206" y="291" on="1"/>
        <pt x="173" y="301" on="0"/>
        <pt x="140" y="343" on="0"/>
        <pt x="140" y="384" on="1"/>
        <pt x="140" y="440" on="0"/>
        <pt x="148" y="518" on="1"/>
        <pt x="154" y="582" on="0"/>
        <pt x="154" y="608" on="1"/>
        <pt x="154" y="659" on="0"/>
        <pt x="125" y="706" on="0"/>
        <pt x="77" y="718" on="0"/>
        <pt x="24" y="722" on="1"/>
        <pt x="22" y="730" on="0"/>
        <pt x="22" y="732" on="1"/>
        <pt x="22" y="744" on="0"/>
        <pt x="33" y="744" on="1"/>
        <pt x="110" y="744" on="0"/>
        <pt x="178" y="687" on="0"/>
        <pt x="178" y="611" on="1"/>
        <pt x="178" y="570" on="0"/>
        <pt x="171" y="510" on="1"/>
        <pt x="164" y="426" on="0"/>
        <pt x="164" y="390" on="1"/>
        <pt x="164" y="350" on="0"/>
        <pt x="198" y="314" on="0"/>
        <pt x="229" y="308" on="1"/>
        <pt x="231" y="303" on="0"/>
        <pt x="231" y="294" on="1"/>
        <pt x="231" y="281" on="0"/>
        <pt x="219" y="275" on="1"/>
        <pt x="198" y="263" on="0"/>
        <pt x="177" y="246" on="0"/>
        <pt x="164" y="209" on="0"/>
        <pt x="164" y="176" on="1"/>
        <pt x="164" y="146" on="0"/>
        <pt x="171" y="64" on="1"/>
        <pt x="178" y="6" on="0"/>
        <pt x="178" y="-36" on="1"/>
        <pt x="178" y="-99" on="0"/>
        <pt x="97" y="-151" on="0"/>
        <pt x="23" y="-151" on="1"/>
      </contour>
    </TTGlyph>
    <TTGlyph name="bracketleft" xMin="183" yMin="-197" xMax="439" yMax="821">
      <contour>
        <pt x="439" y="807" on="0"/>
        <pt x="434" y="801" on="0"/>
        <pt x="421" y="801" on="1"/>
        <pt x="206" y="801" on="1"/>
        <pt x="206" y="-174" on="1"/>
        <pt x="437" y="-174" on="1"/>
        <pt x="437" y="-190" on="0"/>
        <pt x="428" y="-197" on="0"/>
        <pt x="418" y="-197" on="1"/>
        <pt x="183" y="-197" on="1"/>
        <pt x="183" y="808" on="1"/>
        <pt x="183" y="816" on="0"/>
        <pt x="191" y="821" on="0"/>
        <pt x="203" y="821" on="1"/>
        <pt x="439" y="821" on="1"/>
      </contour>
    </TTGlyph>
    <TTGlyph name="bracketright" xMin="11" yMin="-200" xMax="267" yMax="822">
      <contour>
        <pt x="11" y="-186" on="0"/>
        <pt x="16" y="-180" on="0"/>
        <pt x="29" y="-180" on="1"/>
        <pt x="244" y="-180" on="1"/>
        <pt x="244" y="799" on="1"/>
        <pt x="13" y="799" on="1"/>
        <pt x="13" y="815" on="0"/>
        <pt x="22" y="822" on="0"/>
        <pt x="32" y="822" on="1"/>
        <pt x="267" y="822" on="1"/>
        <pt x="267" y="-187" on="1"/>
        <pt x="267" y="-195" on="0"/>
        <pt x="259" y="-200" on="0"/>
        <pt x="247" y="-200" on="1"/>
        <pt x="11" y="-200" on="1"/>
      </contour>
    </TTGlyph>
    <TTGlyph name="breve" xMin="11" yMin="585" xMax="240" yMax="707">
      <contour>
        <pt x="63" y="609" on="0"/>
        <pt x="126" y="609" on="1"/>
        <pt x="163" y="609" on="0"/>
        <pt x="200" y="656" on="0"/>
        <pt x="215" y="697" on="1"/>
        <pt x="218" y="705" on="0"/>
        <pt x="226" y="705" on="1"/>
        <pt x="238" y="705" on="0"/>
        <pt x="240" y="693" on="1"/>
        <pt x="208" y="585" on="0"/>
        <pt x="125" y="585" on="1"/>
        <pt x="90" y="585" on="0"/>
        <pt x="38" y="628" on="0"/>
        <pt x="11" y="682" on="0"/>
        <pt x="11" y="694" on="1"/>
        <pt x="11" y="705" on="0"/>
        <pt x="30" y="707" on="1"/>
      </contour>
    </TTGlyph>
    <TTGlyph name="breve.cyr" xMin="0" yMin="586" xMax="249" yMax="707">
      <contour>
        <pt x="31" y="667" on="0"/>
        <pt x="78" y="607" on="0"/>
        <pt x="125" y="607" on="1"/>
        <pt x="167" y="607" on="0"/>
        <pt x="205" y="649" on="0"/>
        <pt x="219" y="697" on="1"/>
        <pt x="222" y="706" on="0"/>
        <pt x="231" y="706" on="1"/>
        <pt x="237" y="706" on="0"/>
        <pt x="248" y="698" on="0"/>
        <pt x="249" y="693" on="1"/>
        <pt x="231" y="640" on="0"/>
        <pt x="176" y="586" on="0"/>
        <pt x="124" y="586" on="1"/>
        <pt x="81" y="586" on="0"/>
        <pt x="27" y="623" on="0"/>
        <pt x="2" y="672" on="0"/>
        <pt x="0" y="694" on="1"/>
        <pt x="0" y="695" on="1"/>
        <pt x="0" y="705" on="0"/>
        <pt x="24" y="707" on="1"/>
      </contour>
    </TTGlyph>
    <TTGlyph name="brokenbar" xMin="100" yMin="-197" xMax="124" yMax="742">
      <contour>
        <pt x="124" y="334" on="0"/>
        <pt x="112" y="334" on="1"/>
        <pt x="105" y="334" on="0"/>
        <pt x="100" y="336" on="1"/>
        <pt x="100" y="732" on="1"/>
        <pt x="100" y="742" on="0"/>
        <pt x="112" y="742" on="1"/>
        <pt x="119" y="742" on="0"/>
        <pt x="124" y="740" on="1"/>
        <pt x="124" y="342" on="1"/>
      </contour>
      <contour>
        <pt x="124" y="-197" on="0"/>
        <pt x="112" y="-197" on="1"/>
        <pt x="105" y="-197" on="0"/>
        <pt x="100" y="-195" on="1"/>
        <pt x="100" y="211" on="1"/>
        <pt x="100" y="221" on="0"/>
        <pt x="112" y="221" on="1"/>
        <pt x="119" y="221" on="0"/>
        <pt x="124" y="219" on="1"/>
        <pt x="124" y="-189" on="1"/>
      </contour>
    </TTGlyph>
    <TTGlyph name="bullet" xMin="63" yMin="228" xMax="156" yMax="330">
      <contour>
        <pt x="63" y="301" on="0"/>
        <pt x="88" y="330" on="0"/>
        <pt x="108" y="330" on="1"/>
        <pt x="129" y="330" on="0"/>
        <pt x="156" y="301" on="0"/>
        <pt x="156" y="280" on="1"/>
        <pt x="156" y="257" on="0"/>
        <pt x="129" y="228" on="0"/>
        <pt x="108" y="228" on="1"/>
        <pt x="87" y="228" on="0"/>
        <pt x="63" y="257" on="0"/>
        <pt x="63" y="280" on="1"/>
      </contour>
    </TTGlyph>
    <TTGlyph name="bulletoperator" xMin="63" yMin="228" xMax="156" yMax="330">
      <component glyphName=".ttfautohint" x="63" y="228" flags="0x0"/>
      <component glyphName="bullet" x="0" y="0" flags="0x1000"/>
    </TTGlyph>
    <TTGlyph name="c" xMin="50" yMin="-10" xMax="318" yMax="510">
      <contour>
        <pt x="316" y="466" on="0"/>
        <pt x="310" y="458" on="1"/>
        <pt x="276" y="486" on="0"/>
        <pt x="225" y="486" on="1"/>
        <pt x="160" y="486" on="0"/>
        <pt x="74" y="385" on="0"/>
        <pt x="74" y="234" on="1"/>
        <pt x="74" y="144" on="0"/>
        <pt x="107" y="47" on="0"/>
        <pt x="163" y="13" on="0"/>
        <pt x="205" y="13" on="1"/>
        <pt x="241" y="13" on="0"/>
        <pt x="296" y="37" on="0"/>
        <pt x="312" y="53" on="1"/>
        <pt x="318" y="46" on="0"/>
        <pt x="318" y="35" on="1"/>
        <pt x="318" y="27" on="0"/>
        <pt x="287" y="5" on="0"/>
        <pt x="233" y="-10" on="0"/>
        <pt x="201" y="-10" on="1"/>
        <pt x="154" y="-10" on="0"/>
        <pt x="89" y="26" on="0"/>
        <pt x="50" y="135" on="0"/>
        <pt x="50" y="239" on="1"/>
        <pt x="50" y="400" on="0"/>
        <pt x="153" y="510" on="0"/>
        <pt x="232" y="510" on="1"/>
        <pt x="264" y="510" on="0"/>
        <pt x="316" y="488" on="0"/>
        <pt x="316" y="476" on="1"/>
      </contour>
    </TTGlyph>
    <TTGlyph name="cacute" xMin="50" yMin="-10" xMax="318" yMax="712">
      <component glyphName=".ttfautohint" x="50" y="0" flags="0x0"/>
      <component glyphName="c" x="0" y="0" flags="0x1000"/>
      <component glyphName="acute" x="78" y="0" flags="0x1000"/>
    </TTGlyph>
    <TTGlyph name="caron" xMin="10" yMin="586" xMax="240" yMax="722">
      <contour>
        <pt x="125" y="586" on="0"/>
        <pt x="27" y="684" on="0"/>
        <pt x="10" y="702" on="1"/>
        <pt x="11" y="704" on="0"/>
        <pt x="21" y="716" on="0"/>
        <pt x="27" y="716" on="1"/>
        <pt x="32" y="716" on="0"/>
        <pt x="117" y="627" on="0"/>
        <pt x="132" y="611" on="1"/>
        <pt x="164" y="650" on="0"/>
        <pt x="219" y="712" on="0"/>
        <pt x="228" y="722" on="1"/>
        <pt x="240" y="713" on="0"/>
        <pt x="240" y="706" on="1"/>
        <pt x="240" y="699" on="0"/>
        <pt x="141" y="586" on="0"/>
        <pt x="133" y="586" on="1"/>
      </contour>
    </TTGlyph>
    <TTGlyph name="ccaron" xMin="50" yMin="-10" xMax="318" yMax="722">
      <component glyphName=".ttfautohint" x="50" y="0" flags="0x0"/>
      <component glyphName="c" x="0" y="0" flags="0x1000"/>
      <component glyphName="caron" x="78" y="0" flags="0x1000"/>
    </TTGlyph>
    <TTGlyph name="ccedilla" xMin="50" yMin="-177" xMax="318" yMax="510">
      <contour>
        <pt x="150" y="-9" on="0"/>
        <pt x="88" y="29" on="0"/>
        <pt x="50" y="138" on="0"/>
        <pt x="50" y="239" on="1"/>
        <pt x="50" y="400" on="0"/>
        <pt x="153" y="510" on="0"/>
        <pt x="232" y="510" on="1"/>
        <pt x="264" y="510" on="0"/>
        <pt x="316" y="488" on="0"/>
        <pt x="316" y="476" on="1"/>
        <pt x="316" y="465" on="0"/>
        <pt x="310" y="458" on="1"/>
        <pt x="276" y="486" on="0"/>
        <pt x="225" y="486" on="1"/>
        <pt x="160" y="486" on="0"/>
        <pt x="74" y="385" on="0"/>
        <pt x="74" y="234" on="1"/>
        <pt x="74" y="144" on="0"/>
        <pt x="107" y="47" on="0"/>
        <pt x="163" y="13" on="0"/>
        <pt x="205" y="13" on="1"/>
        <pt x="241" y="13" on="0"/>
        <pt x="296" y="37" on="0"/>
        <pt x="312" y="53" on="1"/>
        <pt x="318" y="45" on="0"/>
        <pt x="318" y="35" on="1"/>
        <pt x="318" y="23" on="0"/>
        <pt x="261" y="-6" on="0"/>
        <pt x="221" y="-9" on="1"/>
        <pt x="210" y="-61" on="1"/>
        <pt x="211" y="-61" on="0"/>
        <pt x="221" y="-59" on="0"/>
        <pt x="229" y="-59" on="1"/>
        <pt x="248" y="-59" on="0"/>
        <pt x="276" y="-84" on="0"/>
        <pt x="276" y="-110" on="1"/>
        <pt x="276" y="-177" on="0"/>
        <pt x="214" y="-177" on="1"/>
        <pt x="198" y="-177" on="0"/>
        <pt x="169" y="-172" on="0"/>
        <pt x="165" y="-171" on="1"/>
        <pt x="165" y="-166" on="0"/>
        <pt x="170" y="-146" on="0"/>
        <pt x="176" y="-146" on="1"/>
        <pt x="179" y="-146" on="0"/>
        <pt x="205" y="-154" on="0"/>
        <pt x="214" y="-154" on="1"/>
        <pt x="252" y="-154" on="0"/>
        <pt x="252" y="-116" on="1"/>
        <pt x="252" y="-80" on="0"/>
        <pt x="215" y="-80" on="1"/>
        <pt x="205" y="-80" on="0"/>
        <pt x="183" y="-84" on="0"/>
        <pt x="180" y="-85" on="1"/>
        <pt x="196" y="-10" on="1"/>
      </contour>
    </TTGlyph>
    <TTGlyph name="cedilla" xMin="80" yMin="-177" xMax="191" yMax="3">
      <contour>
        <pt x="126" y="-61" on="0"/>
        <pt x="136" y="-59" on="0"/>
        <pt x="144" y="-59" on="1"/>
        <pt x="163" y="-59" on="0"/>
        <pt x="191" y="-84" on="0"/>
        <pt x="191" y="-110" on="1"/>
        <pt x="191" y="-177" on="0"/>
        <pt x="129" y="-177" on="1"/>
        <pt x="113" y="-177" on="0"/>
        <pt x="84" y="-172" on="0"/>
        <pt x="80" y="-171" on="1"/>
        <pt x="80" y="-166" on="0"/>
        <pt x="85" y="-146" on="0"/>
        <pt x="92" y="-146" on="1"/>
        <pt x="95" y="-146" on="0"/>
        <pt x="120" y="-154" on="0"/>
        <pt x="129" y="-154" on="1"/>
        <pt x="167" y="-154" on="0"/>
        <pt x="167" y="-116" on="1"/>
        <pt x="167" y="-80" on="0"/>
        <pt x="130" y="-80" on="1"/>
        <pt x="120" y="-80" on="0"/>
        <pt x="98" y="-84" on="0"/>
        <pt x="95" y="-85" on="1"/>
        <pt x="114" y="3" on="1"/>
        <pt x="139" y="3" on="1"/>
        <pt x="125" y="-61" on="1"/>
      </contour>
    </TTGlyph>
    <TTGlyph name="cent" xMin="101" yMin="-148" xMax="369" yMax="652">
      <contour>
        <pt x="283" y="509" on="1"/>
        <pt x="313" y="509" on="0"/>
        <pt x="367" y="487" on="0"/>
        <pt x="367" y="479" on="1"/>
        <pt x="367" y="465" on="0"/>
        <pt x="361" y="458" on="1"/>
        <pt x="342" y="472" on="0"/>
        <pt x="313" y="485" on="0"/>
        <pt x="285" y="485" on="1"/>
        <pt x="240" y="485" on="0"/>
        <pt x="172" y="446" on="0"/>
        <pt x="127" y="328" on="0"/>
        <pt x="127" y="217" on="1"/>
        <pt x="127" y="126" on="0"/>
        <pt x="159" y="38" on="0"/>
        <pt x="216" y="13" on="0"/>
        <pt x="266" y="13" on="1"/>
        <pt x="315" y="13" on="0"/>
        <pt x="363" y="53" on="1"/>
        <pt x="369" y="45" on="0"/>
        <pt x="369" y="35" on="1"/>
        <pt x="369" y="29" on="0"/>
        <pt x="339" y="7" on="0"/>
        <pt x="290" y="-10" on="0"/>
        <pt x="264" y="-10" on="1"/>
        <pt x="260" y="-10" on="1"/>
        <pt x="260" y="-133" on="1"/>
        <pt x="260" y="-142" on="0"/>
        <pt x="253" y="-148" on="0"/>
        <pt x="239" y="-148" on="1"/>
        <pt x="239" y="-10" on="1"/>
        <pt x="193" y="-8" on="0"/>
        <pt x="135" y="26" on="0"/>
        <pt x="101" y="125" on="0"/>
        <pt x="101" y="221" on="1"/>
        <pt x="101" y="377" on="0"/>
        <pt x="188" y="501" on="0"/>
        <pt x="256" y="508" on="1"/>
        <pt x="256" y="637" on="1"/>
        <pt x="256" y="646" on="0"/>
        <pt x="265" y="652" on="0"/>
        <pt x="278" y="652" on="1"/>
        <pt x="278" y="509" on="1"/>
      </contour>
    </TTGlyph>
    <TTGlyph name="circumflex" xMin="11" yMin="580" xMax="239" yMax="699">
      <contour>
        <pt x="123" y="699" on="0"/>
        <pt x="129" y="699" on="1"/>
        <pt x="136" y="699" on="0"/>
        <pt x="143" y="692" on="1"/>
        <pt x="239" y="596" on="1"/>
        <pt x="237" y="593" on="0"/>
        <pt x="225" y="580" on="0"/>
        <pt x="217" y="580" on="1"/>
        <pt x="128" y="675" on="1"/>
        <pt x="114" y="660" on="0"/>
        <pt x="34" y="581" on="0"/>
        <pt x="30" y="581" on="1"/>
        <pt x="21" y="581" on="0"/>
        <pt x="11" y="592" on="0"/>
        <pt x="11" y="594" on="1"/>
        <pt x="121" y="697" on="1"/>
      </contour>
    </TTGlyph>
    <TTGlyph name="colon" xMin="62" yMin="-4" xMax="118" yMax="417">
      <contour>
        <pt x="62" y="400" on="0"/>
        <pt x="77" y="417" on="0"/>
        <pt x="89" y="417" on="1"/>
        <pt x="101" y="417" on="0"/>
        <pt x="118" y="399" on="0"/>
        <pt x="118" y="387" on="1"/>
        <pt x="118" y="373" on="0"/>
        <pt x="102" y="356" on="0"/>
        <pt x="89" y="356" on="1"/>
        <pt x="76" y="356" on="0"/>
        <pt x="62" y="373" on="0"/>
        <pt x="62" y="387" on="1"/>
      </contour>
      <contour>
        <pt x="62" y="40" on="0"/>
        <pt x="77" y="57" on="0"/>
        <pt x="89" y="57" on="1"/>
        <pt x="101" y="57" on="0"/>
        <pt x="118" y="39" on="0"/>
        <pt x="118" y="27" on="1"/>
        <pt x="118" y="13" on="0"/>
        <pt x="102" y="-4" on="0"/>
        <pt x="89" y="-4" on="1"/>
        <pt x="76" y="-4" on="0"/>
        <pt x="62" y="13" on="0"/>
        <pt x="62" y="27" on="1"/>
      </contour>
    </TTGlyph>
    <TTGlyph name="comma" xMin="53" yMin="-115" xMax="120" yMax="58">
      <contour>
        <pt x="69" y="58" on="0"/>
        <pt x="95" y="58" on="1"/>
        <pt x="108" y="58" on="0"/>
        <pt x="120" y="44" on="0"/>
        <pt x="120" y="24" on="1"/>
        <pt x="120" y="-1" on="0"/>
        <pt x="99" y="-66" on="0"/>
        <pt x="73" y="-115" on="0"/>
        <pt x="66" y="-115" on="1"/>
        <pt x="62" y="-115" on="0"/>
        <pt x="54" y="-107" on="0"/>
        <pt x="53" y="-103" on="1"/>
        <pt x="85" y="-48" on="0"/>
        <pt x="84" y="1" on="1"/>
        <pt x="69" y="10" on="0"/>
        <pt x="69" y="30" on="1"/>
      </contour>
    </TTGlyph>
    <TTGlyph name="commaaccentcomb" xMin="84" yMin="-235" xMax="151" yMax="-62">
      <contour>
        <pt x="100" y="-62" on="0"/>
        <pt x="126" y="-62" on="1"/>
        <pt x="139" y="-62" on="0"/>
        <pt x="151" y="-76" on="0"/>
        <pt x="151" y="-96" on="1"/>
        <pt x="151" y="-121" on="0"/>
        <pt x="130" y="-186" on="0"/>
        <pt x="104" y="-235" on="0"/>
        <pt x="97" y="-235" on="1"/>
        <pt x="93" y="-235" on="0"/>
        <pt x="85" y="-227" on="0"/>
        <pt x="84" y="-223" on="1"/>
        <pt x="116" y="-168" on="0"/>
        <pt x="115" y="-119" on="1"/>
        <pt x="100" y="-110" on="0"/>
        <pt x="100" y="-90" on="1"/>
      </contour>
    </TTGlyph>
    <TTGlyph name="copyright" xMin="42" yMin="321" xMax="415" yMax="761">
      <contour>
        <pt x="42" y="761" on="0"/>
        <pt x="234" y="761" on="1"/>
        <pt x="326" y="761" on="0"/>
        <pt x="415" y="662" on="0"/>
        <pt x="415" y="539" on="1"/>
        <pt x="415" y="433" on="0"/>
        <pt x="317" y="321" on="0"/>
        <pt x="230" y="321" on="1"/>
        <pt x="167" y="321" on="0"/>
        <pt x="87" y="354" on="0"/>
        <pt x="42" y="449" on="0"/>
        <pt x="42" y="539" on="1"/>
      </contour>
      <contour>
        <pt x="65" y="428" on="0"/>
        <pt x="143" y="345" on="0"/>
        <pt x="222" y="345" on="1"/>
        <pt x="302" y="345" on="0"/>
        <pt x="392" y="447" on="0"/>
        <pt x="392" y="542" on="1"/>
        <pt x="392" y="650" on="0"/>
        <pt x="313" y="737" on="0"/>
        <pt x="236" y="737" on="1"/>
        <pt x="65" y="737" on="0"/>
        <pt x="65" y="533" on="1"/>
      </contour>
      <contour>
        <pt x="287" y="660" on="0"/>
        <pt x="281" y="645" on="0"/>
        <pt x="280" y="644" on="1"/>
        <pt x="260" y="656" on="0"/>
        <pt x="246" y="656" on="1"/>
        <pt x="213" y="656" on="0"/>
        <pt x="171" y="603" on="0"/>
        <pt x="171" y="525" on="1"/>
        <pt x="171" y="482" on="0"/>
        <pt x="186" y="439" on="0"/>
        <pt x="212" y="425" on="0"/>
        <pt x="234" y="425" on="1"/>
        <pt x="257" y="425" on="0"/>
        <pt x="281" y="441" on="1"/>
        <pt x="289" y="429" on="0"/>
        <pt x="289" y="424" on="1"/>
        <pt x="289" y="419" on="0"/>
        <pt x="251" y="401" on="0"/>
        <pt x="231" y="401" on="1"/>
        <pt x="202" y="401" on="0"/>
        <pt x="167" y="417" on="0"/>
        <pt x="146" y="470" on="0"/>
        <pt x="146" y="525" on="1"/>
        <pt x="146" y="619" on="0"/>
        <pt x="199" y="680" on="0"/>
        <pt x="241" y="680" on="1"/>
        <pt x="256" y="680" on="0"/>
        <pt x="288" y="668" on="0"/>
        <pt x="288" y="664" on="1"/>
      </contour>
    </TTGlyph>
    <TTGlyph name="currency" xMin="20" yMin="51" xMax="500" yMax="531">
      <contour>
        <pt x="487" y="57" on="0"/>
        <pt x="480" y="54" on="0"/>
        <pt x="475" y="59" on="1"/>
        <pt x="400" y="134" on="1"/>
        <pt x="349" y="78" on="0"/>
        <pt x="258" y="78" on="1"/>
        <pt x="169" y="78" on="0"/>
        <pt x="120" y="133" on="1"/>
        <pt x="38" y="51" on="1"/>
        <pt x="24" y="65" on="0"/>
        <pt x="24" y="70" on="1"/>
        <pt x="24" y="73" on="0"/>
        <pt x="28" y="77" on="1"/>
        <pt x="104" y="153" on="1"/>
        <pt x="68" y="209" on="0"/>
        <pt x="68" y="294" on="1"/>
        <pt x="68" y="376" on="0"/>
        <pt x="103" y="431" on="1"/>
        <pt x="20" y="513" on="1"/>
        <pt x="32" y="525" on="0"/>
        <pt x="40" y="529" on="0"/>
        <pt x="45" y="524" on="1"/>
        <pt x="119" y="451" on="1"/>
        <pt x="172" y="510" on="0"/>
        <pt x="268" y="510" on="1"/>
        <pt x="355" y="510" on="0"/>
        <pt x="404" y="452" on="1"/>
        <pt x="483" y="531" on="1"/>
        <pt x="495" y="519" on="0"/>
        <pt x="498" y="511" on="0"/>
        <pt x="493" y="506" on="1"/>
        <pt x="419" y="432" on="1"/>
        <pt x="452" y="375" on="0"/>
        <pt x="452" y="294" on="1"/>
        <pt x="452" y="210" on="0"/>
        <pt x="416" y="154" on="1"/>
        <pt x="500" y="70" on="1"/>
      </contour>
      <contour>
        <pt x="338" y="102" on="0"/>
        <pt x="430" y="205" on="0"/>
        <pt x="430" y="298" on="1"/>
        <pt x="430" y="387" on="0"/>
        <pt x="345" y="486" on="0"/>
        <pt x="269" y="486" on="1"/>
        <pt x="185" y="486" on="0"/>
        <pt x="90" y="380" on="0"/>
        <pt x="90" y="285" on="1"/>
        <pt x="90" y="199" on="0"/>
        <pt x="178" y="102" on="0"/>
        <pt x="256" y="102" on="1"/>
      </contour>
    </TTGlyph>
    <TTGlyph name="d" xMin="50" yMin="-10" xMax="352" yMax="735">
      <contour>
        <pt x="327" y="730" on="0"/>
        <pt x="337" y="735" on="0"/>
        <pt x="352" y="735" on="1"/>
        <pt x="352" y="20" on="1"/>
        <pt x="299" y="-10" on="0"/>
        <pt x="213" y="-10" on="1"/>
        <pt x="160" y="-10" on="0"/>
        <pt x="92" y="24" on="0"/>
        <pt x="50" y="134" on="0"/>
        <pt x="50" y="241" on="1"/>
        <pt x="50" y="330" on="0"/>
        <pt x="99" y="451" on="0"/>
        <pt x="182" y="510" on="0"/>
        <pt x="233" y="510" on="1"/>
        <pt x="292" y="510" on="0"/>
        <pt x="327" y="486" on="1"/>
        <pt x="327" y="720" on="1"/>
      </contour>
      <contour>
        <pt x="307" y="474" on="0"/>
        <pt x="269" y="486" on="0"/>
        <pt x="236" y="486" on="1"/>
        <pt x="190" y="486" on="0"/>
        <pt x="117" y="430" on="0"/>
        <pt x="74" y="319" on="0"/>
        <pt x="74" y="241" on="1"/>
        <pt x="74" y="142" on="0"/>
        <pt x="110" y="44" on="0"/>
        <pt x="170" y="15" on="0"/>
        <pt x="220" y="14" on="1"/>
        <pt x="288" y="14" on="0"/>
        <pt x="327" y="39" on="1"/>
        <pt x="327" y="458" on="1"/>
      </contour>
    </TTGlyph>
    <TTGlyph name="dagger" xMin="45" yMin="-5" xMax="388" yMax="707">
      <contour>
        <pt x="202" y="707" on="0"/>
        <pt x="217" y="707" on="1"/>
        <pt x="225" y="707" on="0"/>
        <pt x="231" y="700" on="1"/>
        <pt x="226" y="517" on="1"/>
        <pt x="226" y="510" on="0"/>
        <pt x="217" y="510" on="1"/>
        <pt x="211" y="510" on="0"/>
        <pt x="207" y="514" on="1"/>
        <pt x="202" y="695" on="1"/>
      </contour>
      <contour>
        <pt x="53" y="477" on="0"/>
        <pt x="45" y="486" on="0"/>
        <pt x="45" y="491" on="1"/>
        <pt x="45" y="499" on="0"/>
        <pt x="52" y="506" on="1"/>
        <pt x="185" y="501" on="1"/>
        <pt x="192" y="501" on="0"/>
        <pt x="192" y="492" on="1"/>
        <pt x="192" y="486" on="0"/>
        <pt x="188" y="482" on="1"/>
        <pt x="57" y="477" on="1"/>
      </contour>
      <contour>
        <pt x="388" y="506" on="0"/>
        <pt x="388" y="491" on="1"/>
        <pt x="388" y="483" on="0"/>
        <pt x="381" y="477" on="1"/>
        <pt x="248" y="482" on="1"/>
        <pt x="241" y="482" on="0"/>
        <pt x="241" y="491" on="1"/>
        <pt x="241" y="497" on="0"/>
        <pt x="245" y="501" on="1"/>
        <pt x="376" y="506" on="1"/>
      </contour>
      <contour>
        <pt x="231" y="2" on="0"/>
        <pt x="222" y="-5" on="0"/>
        <pt x="217" y="-5" on="1"/>
        <pt x="208" y="-5" on="0"/>
        <pt x="202" y="2" on="1"/>
        <pt x="207" y="463" on="1"/>
        <pt x="207" y="470" on="0"/>
        <pt x="216" y="470" on="1"/>
        <pt x="222" y="470" on="0"/>
        <pt x="226" y="466" on="1"/>
        <pt x="231" y="7" on="1"/>
      </contour>
    </TTGlyph>
    <TTGlyph name="daggerdbl" xMin="45" yMin="-2" xMax="388" yMax="707">
      <contour>
        <pt x="202" y="707" on="0"/>
        <pt x="217" y="707" on="1"/>
        <pt x="225" y="707" on="0"/>
        <pt x="231" y="700" on="1"/>
        <pt x="226" y="517" on="1"/>
        <pt x="226" y="510" on="0"/>
        <pt x="217" y="510" on="1"/>
        <pt x="211" y="510" on="0"/>
        <pt x="207" y="514" on="1"/>
        <pt x="202" y="695" on="1"/>
      </contour>
      <contour>
        <pt x="53" y="477" on="0"/>
        <pt x="45" y="486" on="0"/>
        <pt x="45" y="491" on="1"/>
        <pt x="45" y="499" on="0"/>
        <pt x="52" y="506" on="1"/>
        <pt x="185" y="501" on="1"/>
        <pt x="192" y="501" on="0"/>
        <pt x="192" y="492" on="1"/>
        <pt x="192" y="486" on="0"/>
        <pt x="188" y="482" on="1"/>
        <pt x="57" y="477" on="1"/>
      </contour>
      <contour>
        <pt x="388" y="506" on="0"/>
        <pt x="388" y="491" on="1"/>
        <pt x="388" y="483" on="0"/>
        <pt x="381" y="477" on="1"/>
        <pt x="248" y="482" on="1"/>
        <pt x="241" y="482" on="0"/>
        <pt x="241" y="491" on="1"/>
        <pt x="241" y="497" on="0"/>
        <pt x="245" y="501" on="1"/>
        <pt x="376" y="506" on="1"/>
      </contour>
      <contour>
        <pt x="206" y="468" on="0"/>
        <pt x="216" y="468" on="1"/>
        <pt x="221" y="468" on="0"/>
        <pt x="227" y="465" on="1"/>
        <pt x="227" y="247" on="1"/>
        <pt x="227" y="235" on="0"/>
        <pt x="216" y="235" on="1"/>
        <pt x="214" y="235" on="0"/>
        <pt x="206" y="237" on="1"/>
        <pt x="206" y="457" on="1"/>
      </contour>
      <contour>
        <pt x="45" y="199" on="0"/>
        <pt x="45" y="214" on="1"/>
        <pt x="45" y="222" on="0"/>
        <pt x="52" y="228" on="1"/>
        <pt x="185" y="223" on="1"/>
        <pt x="192" y="223" on="0"/>
        <pt x="192" y="214" on="1"/>
        <pt x="192" y="208" on="0"/>
        <pt x="188" y="204" on="1"/>
        <pt x="57" y="199" on="1"/>
      </contour>
      <contour>
        <pt x="381" y="228" on="0"/>
        <pt x="388" y="219" on="0"/>
        <pt x="388" y="214" on="1"/>
        <pt x="388" y="206" on="0"/>
        <pt x="381" y="199" on="1"/>
        <pt x="248" y="204" on="1"/>
        <pt x="241" y="204" on="0"/>
        <pt x="241" y="213" on="1"/>
        <pt x="241" y="219" on="0"/>
        <pt x="245" y="223" on="1"/>
        <pt x="376" y="228" on="1"/>
      </contour>
      <contour>
        <pt x="231" y="-2" on="0"/>
        <pt x="216" y="-2" on="1"/>
        <pt x="208" y="-2" on="0"/>
        <pt x="202" y="5" on="1"/>
        <pt x="207" y="188" on="1"/>
        <pt x="207" y="195" on="0"/>
        <pt x="216" y="195" on="1"/>
        <pt x="222" y="195" on="0"/>
        <pt x="226" y="191" on="1"/>
        <pt x="231" y="10" on="1"/>
      </contour>
    </TTGlyph>
    <TTGlyph name="dcaron" xMin="50" yMin="-10" xMax="457" yMax="735">
      <contour>
        <pt x="327" y="730" on="0"/>
        <pt x="337" y="735" on="0"/>
        <pt x="352" y="735" on="1"/>
        <pt x="352" y="20" on="1"/>
        <pt x="299" y="-10" on="0"/>
        <pt x="213" y="-10" on="1"/>
        <pt x="160" y="-10" on="0"/>
        <pt x="92" y="24" on="0"/>
        <pt x="50" y="134" on="0"/>
        <pt x="50" y="241" on="1"/>
        <pt x="50" y="330" on="0"/>
        <pt x="99" y="451" on="0"/>
        <pt x="182" y="510" on="0"/>
        <pt x="233" y="510" on="1"/>
        <pt x="292" y="510" on="0"/>
        <pt x="327" y="486" on="1"/>
        <pt x="327" y="720" on="1"/>
      </contour>
      <contour>
        <pt x="406" y="702" on="0"/>
        <pt x="432" y="702" on="1"/>
        <pt x="445" y="702" on="0"/>
        <pt x="457" y="688" on="0"/>
        <pt x="457" y="668" on="1"/>
        <pt x="457" y="642" on="0"/>
        <pt x="441" y="561" on="0"/>
        <pt x="420" y="499" on="0"/>
        <pt x="413" y="499" on="1"/>
        <pt x="409" y="499" on="0"/>
        <pt x="401" y="507" on="0"/>
        <pt x="400" y="511" on="1"/>
        <pt x="411" y="536" on="0"/>
        <pt x="422" y="616" on="0"/>
        <pt x="421" y="645" on="1"/>
        <pt x="406" y="654" on="0"/>
        <pt x="406" y="674" on="1"/>
      </contour>
      <contour>
        <pt x="307" y="474" on="0"/>
        <pt x="269" y="486" on="0"/>
        <pt x="236" y="486" on="1"/>
        <pt x="190" y="486" on="0"/>
        <pt x="117" y="430" on="0"/>
        <pt x="74" y="319" on="0"/>
        <pt x="74" y="241" on="1"/>
        <pt x="74" y="142" on="0"/>
        <pt x="110" y="44" on="0"/>
        <pt x="170" y="15" on="0"/>
        <pt x="220" y="14" on="1"/>
        <pt x="288" y="14" on="0"/>
        <pt x="327" y="39" on="1"/>
        <pt x="327" y="458" on="1"/>
      </contour>
    </TTGlyph>
    <TTGlyph name="dcroat" xMin="50" yMin="-10" xMax="436" yMax="735">
      <contour>
        <pt x="436" y="633" on="0"/>
        <pt x="436" y="625" on="1"/>
        <pt x="435" y="613" on="0"/>
        <pt x="425" y="613" on="1"/>
        <pt x="352" y="613" on="1"/>
        <pt x="352" y="20" on="1"/>
        <pt x="299" y="-10" on="0"/>
        <pt x="213" y="-10" on="1"/>
        <pt x="160" y="-10" on="0"/>
        <pt x="92" y="24" on="0"/>
        <pt x="50" y="134" on="0"/>
        <pt x="50" y="241" on="1"/>
        <pt x="50" y="330" on="0"/>
        <pt x="99" y="451" on="0"/>
        <pt x="182" y="510" on="0"/>
        <pt x="233" y="510" on="1"/>
        <pt x="292" y="510" on="0"/>
        <pt x="327" y="486" on="1"/>
        <pt x="327" y="613" on="1"/>
        <pt x="195" y="613" on="1"/>
        <pt x="194" y="618" on="0"/>
        <pt x="194" y="626" on="1"/>
        <pt x="196" y="638" on="0"/>
        <pt x="205" y="638" on="1"/>
        <pt x="327" y="638" on="1"/>
        <pt x="327" y="720" on="1"/>
        <pt x="327" y="730" on="0"/>
        <pt x="337" y="735" on="0"/>
        <pt x="352" y="735" on="1"/>
        <pt x="352" y="638" on="1"/>
        <pt x="435" y="638" on="1"/>
      </contour>
      <contour>
        <pt x="307" y="474" on="0"/>
        <pt x="269" y="486" on="0"/>
        <pt x="236" y="486" on="1"/>
        <pt x="190" y="486" on="0"/>
        <pt x="117" y="430" on="0"/>
        <pt x="74" y="319" on="0"/>
        <pt x="74" y="241" on="1"/>
        <pt x="74" y="142" on="0"/>
        <pt x="110" y="44" on="0"/>
        <pt x="170" y="15" on="0"/>
        <pt x="220" y="14" on="1"/>
        <pt x="288" y="14" on="0"/>
        <pt x="327" y="39" on="1"/>
        <pt x="327" y="458" on="1"/>
      </contour>
    </TTGlyph>
    <TTGlyph name="degree" xMin="113" yMin="573" xMax="277" yMax="740">
      <contour>
        <pt x="113" y="698" on="0"/>
        <pt x="159" y="740" on="0"/>
        <pt x="199" y="740" on="1"/>
        <pt x="239" y="740" on="0"/>
        <pt x="277" y="701" on="0"/>
        <pt x="277" y="656" on="1"/>
        <pt x="277" y="616" on="0"/>
        <pt x="232" y="573" on="0"/>
        <pt x="192" y="573" on="1"/>
        <pt x="153" y="573" on="0"/>
        <pt x="113" y="607" on="0"/>
        <pt x="113" y="656" on="1"/>
      </contour>
      <contour>
        <pt x="137" y="623" on="0"/>
        <pt x="164" y="597" on="0"/>
        <pt x="192" y="597" on="1"/>
        <pt x="253" y="597" on="0"/>
        <pt x="253" y="657" on="1"/>
        <pt x="253" y="689" on="0"/>
        <pt x="227" y="716" on="0"/>
        <pt x="200" y="716" on="1"/>
        <pt x="168" y="716" on="0"/>
        <pt x="137" y="688" on="0"/>
        <pt x="137" y="653" on="1"/>
      </contour>
    </TTGlyph>
    <TTGlyph name="dieresis" xMin="57" yMin="614" xMax="194" yMax="670">
      <contour>
        <pt x="94" y="670" on="0"/>
        <pt x="94" y="644" on="1"/>
        <pt x="94" y="614" on="0"/>
        <pt x="74" y="614" on="1"/>
        <pt x="57" y="615" on="0"/>
        <pt x="57" y="638" on="1"/>
        <pt x="57" y="670" on="0"/>
        <pt x="76" y="670" on="1"/>
      </contour>
      <contour>
        <pt x="194" y="670" on="0"/>
        <pt x="194" y="644" on="1"/>
        <pt x="194" y="614" on="0"/>
        <pt x="174" y="614" on="1"/>
        <pt x="157" y="615" on="0"/>
        <pt x="157" y="638" on="1"/>
        <pt x="157" y="670" on="0"/>
        <pt x="176" y="670" on="1"/>
      </contour>
    </TTGlyph>
    <TTGlyph name="divide" xMin="51" yMin="120" xMax="401" yMax="437">
      <contour>
        <pt x="194" y="420" on="0"/>
        <pt x="209" y="437" on="0"/>
        <pt x="221" y="437" on="1"/>
        <pt x="233" y="437" on="0"/>
        <pt x="250" y="419" on="0"/>
        <pt x="250" y="407" on="1"/>
        <pt x="250" y="393" on="0"/>
        <pt x="234" y="376" on="0"/>
        <pt x="221" y="376" on="1"/>
        <pt x="208" y="376" on="0"/>
        <pt x="194" y="393" on="0"/>
        <pt x="194" y="407" on="1"/>
      </contour>
      <contour>
        <pt x="51" y="286" on="0"/>
        <pt x="54" y="294" on="0"/>
        <pt x="61" y="294" on="1"/>
        <pt x="401" y="294" on="1"/>
        <pt x="401" y="277" on="0"/>
        <pt x="398" y="269" on="0"/>
        <pt x="391" y="269" on="1"/>
        <pt x="51" y="269" on="1"/>
      </contour>
      <contour>
        <pt x="194" y="164" on="0"/>
        <pt x="209" y="181" on="0"/>
        <pt x="221" y="181" on="1"/>
        <pt x="233" y="181" on="0"/>
        <pt x="250" y="163" on="0"/>
        <pt x="250" y="151" on="1"/>
        <pt x="250" y="137" on="0"/>
        <pt x="234" y="120" on="0"/>
        <pt x="221" y="120" on="1"/>
        <pt x="208" y="120" on="0"/>
        <pt x="194" y="137" on="0"/>
        <pt x="194" y="151" on="1"/>
      </contour>
    </TTGlyph>
    <TTGlyph name="divisionslash" xMin="-129" yMin="-9" xMax="365" yMax="710">
      <component glyphName=".ttfautohint" x="0" y="0" flags="0x0"/>
      <component glyphName="fraction" x="0" y="0" flags="0x1000"/>
    </TTGlyph>
    <TTGlyph name="dollar" xMin="82" yMin="-121" xMax="373" yMax="736">
      <contour>
        <pt x="339" y="262" on="0"/>
        <pt x="373" y="194" on="0"/>
        <pt x="373" y="151" on="1"/>
        <pt x="373" y="5" on="0"/>
        <pt x="233" y="-6" on="1"/>
        <pt x="233" y="-106" on="1"/>
        <pt x="233" y="-115" on="0"/>
        <pt x="226" y="-121" on="0"/>
        <pt x="212" y="-121" on="1"/>
        <pt x="212" y="-7" on="1"/>
        <pt x="209" y="-7" on="1"/>
        <pt x="168" y="-7" on="0"/>
        <pt x="111" y="8" on="0"/>
        <pt x="82" y="28" on="0"/>
        <pt x="82" y="33" on="1"/>
        <pt x="82" y="37" on="0"/>
        <pt x="91" y="48" on="0"/>
        <pt x="96" y="49" on="1"/>
        <pt x="132" y="17" on="0"/>
        <pt x="211" y="17" on="1"/>
        <pt x="350" y="17" on="0"/>
        <pt x="350" y="151" on="1"/>
        <pt x="350" y="188" on="0"/>
        <pt x="314" y="253" on="0"/>
        <pt x="270" y="293" on="1"/>
        <pt x="158" y="388" on="1"/>
        <pt x="122" y="421" on="0"/>
        <pt x="86" y="476" on="0"/>
        <pt x="86" y="507" on="1"/>
        <pt x="86" y="553" on="0"/>
        <pt x="160" y="613" on="0"/>
        <pt x="224" y="617" on="1"/>
        <pt x="224" y="721" on="1"/>
        <pt x="224" y="730" on="0"/>
        <pt x="233" y="736" on="0"/>
        <pt x="246" y="736" on="1"/>
        <pt x="246" y="617" on="1"/>
        <pt x="280" y="617" on="0"/>
        <pt x="331" y="604" on="0"/>
        <pt x="358" y="589" on="0"/>
        <pt x="358" y="587" on="1"/>
        <pt x="358" y="582" on="0"/>
        <pt x="353" y="568" on="0"/>
        <pt x="349" y="566" on="1"/>
        <pt x="311" y="593" on="0"/>
        <pt x="236" y="593" on="1"/>
        <pt x="177" y="593" on="0"/>
        <pt x="109" y="549" on="0"/>
        <pt x="109" y="504" on="1"/>
        <pt x="109" y="464" on="0"/>
        <pt x="171" y="407" on="1"/>
        <pt x="297" y="300" on="1"/>
      </contour>
    </TTGlyph>
    <TTGlyph name="dotaccent" xMin="107" yMin="614" xMax="144" yMax="670">
      <contour>
        <pt x="107" y="670" on="0"/>
        <pt x="126" y="670" on="1"/>
        <pt x="144" y="670" on="0"/>
        <pt x="144" y="644" on="1"/>
        <pt x="144" y="614" on="0"/>
        <pt x="124" y="614" on="1"/>
        <pt x="107" y="615" on="0"/>
        <pt x="107" y="638" on="1"/>
      </contour>
    </TTGlyph>
    <TTGlyph name="dotlessi" xMin="71" yMin="0" xMax="95" yMax="500">
      <contour>
        <pt x="95" y="3" on="0"/>
        <pt x="89" y="0" on="0"/>
        <pt x="71" y="0" on="1"/>
        <pt x="71" y="485" on="1"/>
        <pt x="71" y="496" on="0"/>
        <pt x="80" y="500" on="0"/>
        <pt x="95" y="500" on="1"/>
        <pt x="95" y="10" on="1"/>
      </contour>
    </TTGlyph>
    <TTGlyph name="dotlessj" xMin="-125" yMin="-194" xMax="101" yMax="500">
      <contour>
        <pt x="101" y="-116" on="0"/>
        <pt x="54" y="-194" on="0"/>
        <pt x="-14" y="-194" on="1"/>
        <pt x="-46" y="-194" on="0"/>
        <pt x="-97" y="-181" on="0"/>
        <pt x="-125" y="-163" on="0"/>
        <pt x="-125" y="-155" on="1"/>
        <pt x="-125" y="-145" on="0"/>
        <pt x="-119" y="-137" on="1"/>
        <pt x="-76" y="-170" on="0"/>
        <pt x="-11" y="-170" on="1"/>
        <pt x="27" y="-170" on="0"/>
        <pt x="65" y="-138" on="0"/>
        <pt x="77" y="-79" on="0"/>
        <pt x="77" y="-28" on="1"/>
        <pt x="77" y="485" on="1"/>
        <pt x="77" y="496" on="0"/>
        <pt x="85" y="500" on="0"/>
        <pt x="101" y="500" on="1"/>
        <pt x="101" y="-37" on="1"/>
      </contour>
    </TTGlyph>
    <TTGlyph name="e" xMin="47" yMin="-10" xMax="352" yMax="510">
      <contour>
        <pt x="297" y="14" on="0"/>
        <pt x="343" y="51" on="1"/>
        <pt x="348" y="41" on="0"/>
        <pt x="348" y="32" on="1"/>
        <pt x="348" y="24" on="0"/>
        <pt x="310" y="4" on="0"/>
        <pt x="249" y="-10" on="0"/>
        <pt x="216" y="-10" on="1"/>
        <pt x="160" y="-10" on="0"/>
        <pt x="89" y="22" on="0"/>
        <pt x="47" y="123" on="0"/>
        <pt x="47" y="221" on="1"/>
        <pt x="47" y="344" on="0"/>
        <pt x="101" y="471" on="0"/>
        <pt x="178" y="510" on="0"/>
        <pt x="227" y="510" on="1"/>
        <pt x="352" y="510" on="0"/>
        <pt x="352" y="354" on="1"/>
        <pt x="352" y="288" on="0"/>
        <pt x="345" y="246" on="1"/>
        <pt x="251" y="228" on="0"/>
        <pt x="104" y="228" on="1"/>
        <pt x="71" y="228" on="1"/>
        <pt x="71" y="217" on="1"/>
        <pt x="71" y="129" on="0"/>
        <pt x="108" y="41" on="0"/>
        <pt x="168" y="14" on="0"/>
        <pt x="215" y="14" on="1"/>
      </contour>
      <contour>
        <pt x="187" y="486" on="0"/>
        <pt x="124" y="459" on="0"/>
        <pt x="76" y="356" on="0"/>
        <pt x="72" y="252" on="1"/>
        <pt x="112" y="251" on="1"/>
        <pt x="246" y="251" on="0"/>
        <pt x="324" y="267" on="1"/>
        <pt x="328" y="307" on="0"/>
        <pt x="328" y="342" on="1"/>
        <pt x="326" y="414" on="0"/>
        <pt x="283" y="486" on="0"/>
        <pt x="228" y="486" on="1"/>
      </contour>
    </TTGlyph>
    <TTGlyph name="eacute" xMin="47" yMin="-10" xMax="352" yMax="712">
      <component glyphName=".ttfautohint" x="47" y="0" flags="0x0"/>
      <component glyphName="e" x="0" y="0" flags="0x1000"/>
      <component glyphName="acute" x="70" y="0" flags="0x1000"/>
    </TTGlyph>
    <TTGlyph name="ecaron" xMin="47" yMin="-10" xMax="352" yMax="722">
      <component glyphName=".ttfautohint" x="47" y="0" flags="0x0"/>
      <component glyphName="e" x="0" y="0" flags="0x1000"/>
      <component glyphName="caron" x="70" y="0" flags="0x1000"/>
    </TTGlyph>
    <TTGlyph name="ecircumflex" xMin="47" yMin="-10" xMax="352" yMax="699">
      <component glyphName=".ttfautohint" x="47" y="0" flags="0x0"/>
      <component glyphName="e" x="0" y="0" flags="0x1000"/>
      <component glyphName="circumflex" x="70" y="0" flags="0x1000"/>
    </TTGlyph>
    <TTGlyph name="edieresis" xMin="47" yMin="-10" xMax="352" yMax="670">
      <component glyphName=".ttfautohint" x="47" y="0" flags="0x0"/>
      <component glyphName="e" x="0" y="0" flags="0x1000"/>
      <component glyphName="dieresis" x="70" y="0" flags="0x1000"/>
    </TTGlyph>
    <TTGlyph name="edotaccent" xMin="47" yMin="-10" xMax="352" yMax="670">
      <component glyphName=".ttfautohint" x="47" y="0" flags="0x0"/>
      <component glyphName="e" x="0" y="0" flags="0x1000"/>
      <component glyphName="dotaccent" x="70" y="0" flags="0x1000"/>
    </TTGlyph>
    <TTGlyph name="egrave" xMin="47" yMin="-10" xMax="352" yMax="712">
      <component glyphName=".ttfautohint" x="47" y="0" flags="0x0"/>
      <component glyphName="e" x="0" y="0" flags="0x1000"/>
      <component glyphName="grave" x="70" y="0" flags="0x1000"/>
    </TTGlyph>
    <TTGlyph name="eight" xMin="49" yMin="-9" xMax="409" yMax="706">
      <contour>
        <pt x="372" y="303" on="0"/>
        <pt x="409" y="234" on="0"/>
        <pt x="409" y="180" on="1"/>
        <pt x="409" y="88" on="0"/>
        <pt x="321" y="-9" on="0"/>
        <pt x="235" y="-9" on="1"/>
        <pt x="144" y="-9" on="0"/>
        <pt x="49" y="92" on="0"/>
        <pt x="49" y="179" on="1"/>
        <pt x="49" y="246" on="0"/>
        <pt x="133" y="355" on="0"/>
        <pt x="193" y="379" on="1"/>
        <pt x="148" y="397" on="0"/>
        <pt x="127" y="411" on="1"/>
        <pt x="92" y="433" on="0"/>
        <pt x="56" y="502" on="0"/>
        <pt x="56" y="541" on="1"/>
        <pt x="56" y="622" on="0"/>
        <pt x="156" y="706" on="0"/>
        <pt x="230" y="706" on="1"/>
        <pt x="298" y="706" on="0"/>
        <pt x="399" y="639" on="0"/>
        <pt x="399" y="545" on="1"/>
        <pt x="399" y="441" on="0"/>
        <pt x="264" y="375" on="1"/>
        <pt x="308" y="355" on="0"/>
        <pt x="337" y="331" on="1"/>
      </contour>
      <contour>
        <pt x="79" y="470" on="0"/>
        <pt x="152" y="424" on="1"/>
        <pt x="168" y="414" on="0"/>
        <pt x="207" y="399" on="1"/>
        <pt x="234" y="388" on="1"/>
        <pt x="294" y="412" on="0"/>
        <pt x="376" y="494" on="0"/>
        <pt x="376" y="544" on="1"/>
        <pt x="376" y="682" on="0"/>
        <pt x="230" y="682" on="1"/>
        <pt x="166" y="682" on="0"/>
        <pt x="79" y="612" on="0"/>
        <pt x="79" y="542" on="1"/>
      </contour>
      <contour>
        <pt x="308" y="14" on="0"/>
        <pt x="387" y="104" on="0"/>
        <pt x="387" y="179" on="1"/>
        <pt x="387" y="226" on="0"/>
        <pt x="348" y="291" on="0"/>
        <pt x="313" y="319" on="1"/>
        <pt x="289" y="339" on="0"/>
        <pt x="225" y="366" on="1"/>
        <pt x="161" y="347" on="0"/>
        <pt x="73" y="242" on="0"/>
        <pt x="73" y="178" on="1"/>
        <pt x="73" y="105" on="0"/>
        <pt x="156" y="14" on="0"/>
        <pt x="235" y="14" on="1"/>
      </contour>
    </TTGlyph>
    <TTGlyph name="ellipsis" xMin="53" yMin="-4" xMax="393" yMax="57">
      <component glyphName=".ttfautohint" x="53" y="0" flags="0x0"/>
      <component glyphName="period" x="-10" y="0" flags="0x1000"/>
      <component glyphName="period" x="132" y="0" flags="0x1000"/>
      <component glyphName="period" x="274" y="0" flags="0x1000"/>
    </TTGlyph>
    <TTGlyph name="emacron" xMin="47" yMin="-10" xMax="352" yMax="648">
      <component glyphName=".ttfautohint" x="47" y="0" flags="0x0"/>
      <component glyphName="e" x="0" y="0" flags="0x1000"/>
      <component glyphName="macron" x="70" y="0" flags="0x1000"/>
    </TTGlyph>
    <TTGlyph name="emdash" xMin="6" yMin="269" xMax="694" yMax="294">
      <contour>
        <pt x="6" y="286" on="0"/>
        <pt x="9" y="294" on="0"/>
        <pt x="16" y="294" on="1"/>
        <pt x="694" y="294" on="1"/>
        <pt x="694" y="277" on="0"/>
        <pt x="691" y="269" on="0"/>
        <pt x="684" y="269" on="1"/>
        <pt x="6" y="269" on="1"/>
      </contour>
    </TTGlyph>
    <TTGlyph name="endash" xMin="50" yMin="269" xMax="400" yMax="294">
      <contour>
        <pt x="50" y="286" on="0"/>
        <pt x="53" y="294" on="0"/>
        <pt x="60" y="294" on="1"/>
        <pt x="400" y="294" on="1"/>
        <pt x="400" y="277" on="0"/>
        <pt x="397" y="269" on="0"/>
        <pt x="390" y="269" on="1"/>
        <pt x="50" y="269" on="1"/>
      </contour>
    </TTGlyph>
    <TTGlyph name="eogonek" xMin="47" yMin="-195" xMax="352" yMax="510">
      <contour>
        <pt x="352" y="510" on="0"/>
        <pt x="352" y="354" on="1"/>
        <pt x="352" y="288" on="0"/>
        <pt x="345" y="246" on="1"/>
        <pt x="251" y="228" on="0"/>
        <pt x="104" y="228" on="1"/>
        <pt x="71" y="228" on="1"/>
        <pt x="71" y="133" on="0"/>
        <pt x="108" y="40" on="0"/>
        <pt x="168" y="14" on="0"/>
        <pt x="215" y="14" on="1"/>
        <pt x="297" y="14" on="0"/>
        <pt x="343" y="51" on="1"/>
        <pt x="348" y="41" on="0"/>
        <pt x="348" y="32" on="1"/>
        <pt x="348" y="28" on="0"/>
        <pt x="333" y="16" on="1"/>
        <pt x="306" y="-3" on="0"/>
        <pt x="264" y="-80" on="0"/>
        <pt x="264" y="-118" on="1"/>
        <pt x="264" y="-171" on="0"/>
        <pt x="311" y="-171" on="1"/>
        <pt x="327" y="-171" on="0"/>
        <pt x="345" y="-162" on="1"/>
        <pt x="348" y="-165" on="0"/>
        <pt x="349" y="-169" on="1"/>
        <pt x="351" y="-177" on="1"/>
        <pt x="351" y="-195" on="0"/>
        <pt x="310" y="-195" on="1"/>
        <pt x="240" y="-195" on="0"/>
        <pt x="240" y="-118" on="1"/>
        <pt x="240" y="-61" on="0"/>
        <pt x="286" y="-1" on="1"/>
        <pt x="250" y="-10" on="0"/>
        <pt x="216" y="-10" on="1"/>
        <pt x="160" y="-10" on="0"/>
        <pt x="89" y="22" on="0"/>
        <pt x="47" y="123" on="0"/>
        <pt x="47" y="221" on="1"/>
        <pt x="47" y="344" on="0"/>
        <pt x="101" y="471" on="0"/>
        <pt x="178" y="510" on="0"/>
        <pt x="227" y="510" on="1"/>
      </contour>
      <contour>
        <pt x="187" y="486" on="0"/>
        <pt x="124" y="459" on="0"/>
        <pt x="76" y="356" on="0"/>
        <pt x="72" y="252" on="1"/>
        <pt x="112" y="251" on="1"/>
        <pt x="246" y="251" on="0"/>
        <pt x="324" y="267" on="1"/>
        <pt x="328" y="307" on="0"/>
        <pt x="328" y="342" on="1"/>
        <pt x="326" y="414" on="0"/>
        <pt x="283" y="486" on="0"/>
        <pt x="228" y="486" on="1"/>
      </contour>
    </TTGlyph>
    <TTGlyph name="equal" xMin="51" yMin="189" xMax="401" yMax="374">
      <contour>
        <pt x="51" y="366" on="0"/>
        <pt x="54" y="374" on="0"/>
        <pt x="61" y="374" on="1"/>
        <pt x="401" y="374" on="1"/>
        <pt x="401" y="357" on="0"/>
        <pt x="398" y="349" on="0"/>
        <pt x="391" y="349" on="1"/>
        <pt x="51" y="349" on="1"/>
      </contour>
      <contour>
        <pt x="51" y="206" on="0"/>
        <pt x="54" y="214" on="0"/>
        <pt x="61" y="214" on="1"/>
        <pt x="401" y="214" on="1"/>
        <pt x="401" y="197" on="0"/>
        <pt x="398" y="189" on="0"/>
        <pt x="391" y="189" on="1"/>
        <pt x="51" y="189" on="1"/>
      </contour>
    </TTGlyph>
    <TTGlyph name="estimated" xMin="70" yMin="18" xMax="740" yMax="621">
      <contour>
        <pt x="192" y="312" on="0"/>
        <pt x="192" y="308" on="1"/>
        <pt x="192" y="144" on="1"/>
        <pt x="192" y="135" on="0"/>
        <pt x="200" y="125" on="1"/>
        <pt x="239" y="83" on="0"/>
        <pt x="346" y="36" on="0"/>
        <pt x="406" y="36" on="1"/>
        <pt x="469" y="36" on="0"/>
        <pt x="582" y="89" on="0"/>
        <pt x="621" y="135" on="1"/>
        <pt x="670" y="135" on="1"/>
        <pt x="624" y="81" on="0"/>
        <pt x="484" y="18" on="0"/>
        <pt x="405" y="18" on="1"/>
        <pt x="314" y="18" on="0"/>
        <pt x="160" y="99" on="0"/>
        <pt x="70" y="237" on="0"/>
        <pt x="70" y="319" on="1"/>
        <pt x="70" y="401" on="0"/>
        <pt x="160" y="540" on="0"/>
        <pt x="314" y="621" on="0"/>
        <pt x="405" y="621" on="1"/>
        <pt x="496" y="621" on="0"/>
        <pt x="650" y="540" on="0"/>
        <pt x="740" y="401" on="0"/>
        <pt x="740" y="319" on="1"/>
        <pt x="740" y="312" on="1"/>
        <pt x="197" y="312" on="1"/>
      </contour>
      <contour>
        <pt x="618" y="509" on="0"/>
        <pt x="609" y="518" on="1"/>
        <pt x="569" y="558" on="0"/>
        <pt x="464" y="603" on="0"/>
        <pt x="406" y="603" on="1"/>
        <pt x="347" y="603" on="0"/>
        <pt x="241" y="556" on="0"/>
        <pt x="201" y="515" on="1"/>
        <pt x="192" y="506" on="0"/>
        <pt x="192" y="495" on="1"/>
        <pt x="192" y="333" on="1"/>
        <pt x="192" y="328" on="0"/>
        <pt x="197" y="328" on="1"/>
        <pt x="613" y="328" on="1"/>
        <pt x="618" y="328" on="0"/>
        <pt x="618" y="333" on="1"/>
        <pt x="618" y="498" on="1"/>
      </contour>
    </TTGlyph>
    <TTGlyph name="eth" xMin="47" yMin="-10" xMax="407" yMax="743">
      <contour>
        <pt x="348" y="590" on="0"/>
        <pt x="407" y="409" on="0"/>
        <pt x="407" y="289" on="1"/>
        <pt x="407" y="151" on="0"/>
        <pt x="333" y="-10" on="0"/>
        <pt x="229" y="-10" on="1"/>
        <pt x="139" y="-10" on="0"/>
        <pt x="47" y="119" on="0"/>
        <pt x="47" y="256" on="1"/>
        <pt x="47" y="381" on="0"/>
        <pt x="141" y="508" on="0"/>
        <pt x="231" y="508" on="1"/>
        <pt x="321" y="508" on="0"/>
        <pt x="368" y="445" on="1"/>
        <pt x="340" y="564" on="0"/>
        <pt x="261" y="649" on="1"/>
        <pt x="167" y="611" on="1"/>
        <pt x="161" y="626" on="0"/>
        <pt x="161" y="631" on="1"/>
        <pt x="161" y="635" on="0"/>
        <pt x="167" y="638" on="1"/>
        <pt x="242" y="669" on="1"/>
        <pt x="209" y="700" on="0"/>
        <pt x="167" y="729" on="1"/>
        <pt x="170" y="743" on="0"/>
        <pt x="181" y="743" on="1"/>
        <pt x="186" y="743" on="0"/>
        <pt x="194" y="738" on="1"/>
        <pt x="235" y="709" on="0"/>
        <pt x="266" y="678" on="1"/>
        <pt x="350" y="712" on="1"/>
        <pt x="356" y="696" on="0"/>
        <pt x="356" y="692" on="1"/>
        <pt x="356" y="688" on="0"/>
        <pt x="350" y="685" on="1"/>
        <pt x="285" y="659" on="1"/>
      </contour>
      <contour>
        <pt x="322" y="14" on="0"/>
        <pt x="383" y="169" on="0"/>
        <pt x="383" y="300" on="1"/>
        <pt x="383" y="347" on="0"/>
        <pt x="377" y="391" on="1"/>
        <pt x="326" y="484" on="0"/>
        <pt x="232" y="484" on="1"/>
        <pt x="155" y="484" on="0"/>
        <pt x="71" y="370" on="0"/>
        <pt x="71" y="256" on="1"/>
        <pt x="71" y="14" on="0"/>
        <pt x="229" y="14" on="1"/>
      </contour>
    </TTGlyph>
    <TTGlyph name="exclam" xMin="63" yMin="-4" xMax="119" yMax="707">
      <contour>
        <pt x="80" y="707" on="0"/>
        <pt x="104" y="707" on="1"/>
        <pt x="104" y="175" on="1"/>
        <pt x="104" y="164" on="0"/>
        <pt x="80" y="164" on="1"/>
        <pt x="80" y="700" on="1"/>
      </contour>
      <contour>
        <pt x="63" y="40" on="0"/>
        <pt x="78" y="57" on="0"/>
        <pt x="90" y="57" on="1"/>
        <pt x="102" y="57" on="0"/>
        <pt x="119" y="39" on="0"/>
        <pt x="119" y="27" on="1"/>
        <pt x="119" y="13" on="0"/>
        <pt x="103" y="-4" on="0"/>
        <pt x="90" y="-4" on="1"/>
        <pt x="77" y="-4" on="0"/>
        <pt x="63" y="13" on="0"/>
        <pt x="63" y="27" on="1"/>
      </contour>
    </TTGlyph>
    <TTGlyph name="exclamdown" xMin="63" yMin="-198" xMax="119" yMax="509">
      <contour>
        <pt x="119" y="465" on="0"/>
        <pt x="104" y="448" on="0"/>
        <pt x="92" y="448" on="1"/>
        <pt x="80" y="448" on="0"/>
        <pt x="63" y="466" on="0"/>
        <pt x="63" y="478" on="1"/>
        <pt x="63" y="492" on="0"/>
        <pt x="79" y="509" on="0"/>
        <pt x="92" y="509" on="1"/>
        <pt x="105" y="509" on="0"/>
        <pt x="119" y="492" on="0"/>
        <pt x="119" y="478" on="1"/>
      </contour>
      <contour>
        <pt x="102" y="-198" on="0"/>
        <pt x="78" y="-198" on="1"/>
        <pt x="78" y="334" on="1"/>
        <pt x="78" y="345" on="0"/>
        <pt x="102" y="345" on="1"/>
        <pt x="102" y="-191" on="1"/>
      </contour>
    </TTGlyph>
    <TTGlyph name="f" xMin="17" yMin="0" xMax="338" yMax="740">
      <contour>
        <pt x="17" y="493" on="0"/>
        <pt x="20" y="500" on="0"/>
        <pt x="27" y="500" on="1"/>
        <pt x="102" y="500" on="1"/>
        <pt x="102" y="567" on="1"/>
        <pt x="102" y="670" on="0"/>
        <pt x="192" y="740" on="0"/>
        <pt x="259" y="740" on="1"/>
        <pt x="299" y="740" on="0"/>
        <pt x="338" y="727" on="0"/>
        <pt x="338" y="720" on="1"/>
        <pt x="338" y="715" on="0"/>
        <pt x="334" y="705" on="1"/>
        <pt x="296" y="716" on="0"/>
        <pt x="257" y="716" on="1"/>
        <pt x="220" y="716" on="0"/>
        <pt x="165" y="697" on="0"/>
        <pt x="126" y="629" on="0"/>
        <pt x="126" y="563" on="1"/>
        <pt x="126" y="500" on="1"/>
        <pt x="248" y="500" on="1"/>
        <pt x="248" y="483" on="0"/>
        <pt x="245" y="476" on="0"/>
        <pt x="238" y="476" on="1"/>
        <pt x="126" y="476" on="1"/>
        <pt x="126" y="10" on="1"/>
        <pt x="126" y="0" on="0"/>
        <pt x="116" y="0" on="1"/>
        <pt x="102" y="0" on="1"/>
        <pt x="102" y="476" on="1"/>
        <pt x="17" y="476" on="1"/>
      </contour>
    </TTGlyph>
    <TTGlyph name="f.ss02" xMin="17" yMin="0" xMax="262" yMax="737">
      <contour>
        <pt x="17" y="493" on="0"/>
        <pt x="20" y="500" on="0"/>
        <pt x="27" y="500" on="1"/>
        <pt x="102" y="500" on="1"/>
        <pt x="102" y="628" on="1"/>
        <pt x="102" y="737" on="0"/>
        <pt x="203" y="737" on="1"/>
        <pt x="231" y="737" on="0"/>
        <pt x="262" y="726" on="0"/>
        <pt x="262" y="717" on="1"/>
        <pt x="262" y="712" on="0"/>
        <pt x="259" y="704" on="1"/>
        <pt x="239" y="714" on="0"/>
        <pt x="201" y="714" on="1"/>
        <pt x="167" y="714" on="0"/>
        <pt x="126" y="679" on="0"/>
        <pt x="126" y="623" on="1"/>
        <pt x="126" y="500" on="1"/>
        <pt x="248" y="500" on="1"/>
        <pt x="248" y="483" on="0"/>
        <pt x="245" y="476" on="0"/>
        <pt x="238" y="476" on="1"/>
        <pt x="126" y="476" on="1"/>
        <pt x="126" y="10" on="1"/>
        <pt x="126" y="8" on="0"/>
        <pt x="122" y="0" on="0"/>
        <pt x="116" y="0" on="1"/>
        <pt x="102" y="0" on="1"/>
        <pt x="102" y="476" on="1"/>
        <pt x="17" y="476" on="1"/>
      </contour>
    </TTGlyph>
    <TTGlyph name="f_f" xMin="17" yMin="0" xMax="564" yMax="740">
      <contour>
        <pt x="102" y="678" on="0"/>
        <pt x="196" y="735" on="0"/>
        <pt x="257" y="735" on="1"/>
        <pt x="318" y="735" on="0"/>
        <pt x="366" y="698" on="1"/>
        <pt x="404" y="740" on="0"/>
        <pt x="485" y="740" on="1"/>
        <pt x="522" y="740" on="0"/>
        <pt x="564" y="727" on="0"/>
        <pt x="564" y="718" on="1"/>
        <pt x="564" y="715" on="0"/>
        <pt x="560" y="705" on="1"/>
        <pt x="522" y="716" on="0"/>
        <pt x="483" y="716" on="1"/>
        <pt x="446" y="716" on="0"/>
        <pt x="391" y="697" on="0"/>
        <pt x="352" y="629" on="0"/>
        <pt x="352" y="563" on="1"/>
        <pt x="352" y="500" on="1"/>
        <pt x="474" y="500" on="1"/>
        <pt x="474" y="483" on="0"/>
        <pt x="471" y="476" on="0"/>
        <pt x="464" y="476" on="1"/>
        <pt x="352" y="476" on="1"/>
        <pt x="352" y="10" on="1"/>
        <pt x="352" y="8" on="0"/>
        <pt x="348" y="0" on="0"/>
        <pt x="342" y="0" on="1"/>
        <pt x="328" y="0" on="1"/>
        <pt x="328" y="476" on="1"/>
        <pt x="126" y="476" on="1"/>
        <pt x="126" y="10" on="1"/>
        <pt x="126" y="8" on="0"/>
        <pt x="122" y="0" on="0"/>
        <pt x="116" y="0" on="1"/>
        <pt x="102" y="0" on="1"/>
        <pt x="102" y="476" on="1"/>
        <pt x="17" y="476" on="1"/>
        <pt x="17" y="493" on="0"/>
        <pt x="20" y="500" on="0"/>
        <pt x="27" y="500" on="1"/>
        <pt x="102" y="500" on="1"/>
        <pt x="102" y="579" on="1"/>
      </contour>
      <contour>
        <pt x="328" y="634" on="0"/>
        <pt x="352" y="679" on="1"/>
        <pt x="351" y="677" on="1"/>
        <pt x="330" y="696" on="0"/>
        <pt x="283" y="711" on="0"/>
        <pt x="249" y="711" on="1"/>
        <pt x="200" y="711" on="0"/>
        <pt x="126" y="660" on="0"/>
        <pt x="126" y="575" on="1"/>
        <pt x="126" y="500" on="1"/>
        <pt x="328" y="500" on="1"/>
        <pt x="328" y="567" on="1"/>
      </contour>
    </TTGlyph>
    <TTGlyph name="f_f_i" xMin="19" yMin="0" xMax="572" yMax="740">
      <contour>
        <pt x="104" y="678" on="0"/>
        <pt x="198" y="735" on="0"/>
        <pt x="259" y="735" on="1"/>
        <pt x="316" y="735" on="0"/>
        <pt x="366" y="700" on="1"/>
        <pt x="388" y="725" on="0"/>
        <pt x="448" y="740" on="0"/>
        <pt x="487" y="740" on="1"/>
        <pt x="524" y="740" on="0"/>
        <pt x="572" y="727" on="0"/>
        <pt x="572" y="718" on="1"/>
        <pt x="572" y="713" on="0"/>
        <pt x="568" y="703" on="1"/>
        <pt x="529" y="716" on="0"/>
        <pt x="485" y="716" on="1"/>
        <pt x="448" y="716" on="0"/>
        <pt x="393" y="697" on="0"/>
        <pt x="354" y="629" on="0"/>
        <pt x="354" y="563" on="1"/>
        <pt x="354" y="500" on="1"/>
        <pt x="456" y="500" on="1"/>
        <pt x="456" y="483" on="0"/>
        <pt x="453" y="476" on="0"/>
        <pt x="446" y="476" on="1"/>
        <pt x="354" y="476" on="1"/>
        <pt x="354" y="10" on="1"/>
        <pt x="354" y="8" on="0"/>
        <pt x="350" y="0" on="0"/>
        <pt x="344" y="0" on="1"/>
        <pt x="330" y="0" on="1"/>
        <pt x="330" y="476" on="1"/>
        <pt x="128" y="476" on="1"/>
        <pt x="128" y="10" on="1"/>
        <pt x="128" y="8" on="0"/>
        <pt x="124" y="0" on="0"/>
        <pt x="118" y="0" on="1"/>
        <pt x="104" y="0" on="1"/>
        <pt x="104" y="476" on="1"/>
        <pt x="19" y="476" on="1"/>
        <pt x="19" y="493" on="0"/>
        <pt x="22" y="500" on="0"/>
        <pt x="29" y="500" on="1"/>
        <pt x="104" y="500" on="1"/>
        <pt x="104" y="579" on="1"/>
      </contour>
      <contour>
        <pt x="330" y="639" on="0"/>
        <pt x="352" y="678" on="1"/>
        <pt x="313" y="711" on="0"/>
        <pt x="251" y="711" on="1"/>
        <pt x="202" y="711" on="0"/>
        <pt x="128" y="660" on="0"/>
        <pt x="128" y="575" on="1"/>
        <pt x="128" y="500" on="1"/>
        <pt x="330" y="500" on="1"/>
        <pt x="330" y="567" on="1"/>
      </contour>
      <contour>
        <pt x="555" y="8" on="1"/>
        <pt x="555" y="2" on="0"/>
        <pt x="548" y="0" on="0"/>
        <pt x="531" y="0" on="1"/>
        <pt x="531" y="485" on="1"/>
        <pt x="531" y="496" on="0"/>
        <pt x="540" y="500" on="0"/>
        <pt x="555" y="500" on="1"/>
        <pt x="555" y="10" on="1"/>
      </contour>
    </TTGlyph>
    <TTGlyph name="f_f_l" xMin="19" yMin="0" xMax="565" yMax="739">
      <contour>
        <pt x="565" y="7" on="1"/>
        <pt x="565" y="2" on="0"/>
        <pt x="558" y="0" on="0"/>
        <pt x="541" y="0" on="1"/>
        <pt x="541" y="704" on="1"/>
        <pt x="511" y="715" on="0"/>
        <pt x="470" y="715" on="1"/>
        <pt x="434" y="715" on="0"/>
        <pt x="387" y="700" on="0"/>
        <pt x="354" y="636" on="0"/>
        <pt x="354" y="570" on="1"/>
        <pt x="354" y="500" on="1"/>
        <pt x="456" y="500" on="1"/>
        <pt x="456" y="483" on="0"/>
        <pt x="453" y="476" on="0"/>
        <pt x="446" y="476" on="1"/>
        <pt x="354" y="476" on="1"/>
        <pt x="354" y="10" on="1"/>
        <pt x="354" y="7" on="0"/>
        <pt x="350" y="0" on="0"/>
        <pt x="344" y="0" on="1"/>
        <pt x="330" y="0" on="1"/>
        <pt x="330" y="476" on="1"/>
        <pt x="128" y="476" on="1"/>
        <pt x="128" y="10" on="1"/>
        <pt x="128" y="7" on="0"/>
        <pt x="124" y="0" on="0"/>
        <pt x="118" y="0" on="1"/>
        <pt x="104" y="0" on="1"/>
        <pt x="104" y="476" on="1"/>
        <pt x="19" y="476" on="1"/>
        <pt x="19" y="493" on="0"/>
        <pt x="22" y="500" on="0"/>
        <pt x="29" y="500" on="1"/>
        <pt x="104" y="500" on="1"/>
        <pt x="104" y="579" on="1"/>
        <pt x="104" y="678" on="0"/>
        <pt x="198" y="735" on="0"/>
        <pt x="259" y="735" on="1"/>
        <pt x="316" y="735" on="0"/>
        <pt x="364" y="701" on="1"/>
        <pt x="383" y="725" on="0"/>
        <pt x="435" y="739" on="0"/>
        <pt x="470" y="739" on="1"/>
        <pt x="527" y="739" on="0"/>
        <pt x="565" y="719" on="1"/>
        <pt x="565" y="10" on="1"/>
      </contour>
      <contour>
        <pt x="330" y="637" on="0"/>
        <pt x="350" y="679" on="1"/>
        <pt x="314" y="711" on="0"/>
        <pt x="251" y="711" on="1"/>
        <pt x="202" y="711" on="0"/>
        <pt x="128" y="660" on="0"/>
        <pt x="128" y="575" on="1"/>
        <pt x="128" y="500" on="1"/>
        <pt x="330" y="500" on="1"/>
        <pt x="330" y="567" on="1"/>
      </contour>
    </TTGlyph>
    <TTGlyph name="fi" xMin="11" yMin="0" xMax="338" yMax="740">
      <contour>
        <pt x="11" y="493" on="0"/>
        <pt x="14" y="500" on="0"/>
        <pt x="21" y="500" on="1"/>
        <pt x="96" y="500" on="1"/>
        <pt x="96" y="567" on="1"/>
        <pt x="96" y="643" on="0"/>
        <pt x="143" y="719" on="0"/>
        <pt x="209" y="740" on="0"/>
        <pt x="253" y="740" on="1"/>
        <pt x="290" y="740" on="0"/>
        <pt x="338" y="727" on="0"/>
        <pt x="338" y="718" on="1"/>
        <pt x="338" y="713" on="0"/>
        <pt x="334" y="703" on="1"/>
        <pt x="295" y="716" on="0"/>
        <pt x="251" y="716" on="1"/>
        <pt x="214" y="716" on="0"/>
        <pt x="159" y="697" on="0"/>
        <pt x="120" y="629" on="0"/>
        <pt x="120" y="563" on="1"/>
        <pt x="120" y="500" on="1"/>
        <pt x="222" y="500" on="1"/>
        <pt x="222" y="483" on="0"/>
        <pt x="219" y="476" on="0"/>
        <pt x="212" y="476" on="1"/>
        <pt x="120" y="476" on="1"/>
        <pt x="120" y="10" on="1"/>
        <pt x="120" y="8" on="0"/>
        <pt x="116" y="0" on="0"/>
        <pt x="110" y="0" on="1"/>
        <pt x="96" y="0" on="1"/>
        <pt x="96" y="476" on="1"/>
        <pt x="11" y="476" on="1"/>
      </contour>
      <contour>
        <pt x="321" y="8" on="1"/>
        <pt x="321" y="2" on="0"/>
        <pt x="315" y="0" on="0"/>
        <pt x="297" y="0" on="1"/>
        <pt x="297" y="485" on="1"/>
        <pt x="297" y="496" on="0"/>
        <pt x="306" y="500" on="0"/>
        <pt x="321" y="500" on="1"/>
        <pt x="321" y="10" on="1"/>
      </contour>
    </TTGlyph>
    <TTGlyph name="firsttonechinese" xMin="4" yMin="623" xMax="246" yMax="648">
      <component glyphName=".ttfautohint" x="4" y="623" flags="0x0"/>
      <component glyphName="macron" x="0" y="0" flags="0x1000"/>
    </TTGlyph>
    <TTGlyph name="five" xMin="45" yMin="-100" xMax="395" yMax="600">
      <contour>
        <pt x="388" y="583" on="0"/>
        <pt x="382" y="576" on="0"/>
        <pt x="370" y="576" on="1"/>
        <pt x="104" y="576" on="1"/>
        <pt x="82" y="377" on="1"/>
        <pt x="82" y="378" on="0"/>
        <pt x="129" y="385" on="0"/>
        <pt x="167" y="385" on="1"/>
        <pt x="254" y="388" on="0"/>
        <pt x="395" y="307" on="0"/>
        <pt x="395" y="194" on="1"/>
        <pt x="395" y="51" on="0"/>
        <pt x="292" y="-100" on="0"/>
        <pt x="165" y="-100" on="1"/>
        <pt x="129" y="-100" on="0"/>
        <pt x="74" y="-87" on="0"/>
        <pt x="45" y="-68" on="0"/>
        <pt x="45" y="-61" on="1"/>
        <pt x="45" y="-51" on="0"/>
        <pt x="49" y="-40" on="1"/>
        <pt x="90" y="-76" on="0"/>
        <pt x="169" y="-76" on="1"/>
        <pt x="279" y="-76" on="0"/>
        <pt x="371" y="67" on="0"/>
        <pt x="371" y="198" on="1"/>
        <pt x="371" y="293" on="0"/>
        <pt x="243" y="362" on="0"/>
        <pt x="169" y="362" on="1"/>
        <pt x="141" y="362" on="0"/>
        <pt x="90" y="354" on="0"/>
        <pt x="60" y="345" on="0"/>
        <pt x="56" y="344" on="1"/>
        <pt x="82" y="600" on="1"/>
        <pt x="388" y="600" on="1"/>
      </contour>
    </TTGlyph>
    <TTGlyph name="five.001" xMin="45" yMin="-100" xMax="395" yMax="600">
      <contour>
        <pt x="388" y="583" on="0"/>
        <pt x="382" y="576" on="0"/>
        <pt x="370" y="576" on="1"/>
        <pt x="104" y="576" on="1"/>
        <pt x="82" y="377" on="1"/>
        <pt x="82" y="378" on="0"/>
        <pt x="129" y="385" on="0"/>
        <pt x="167" y="385" on="1"/>
        <pt x="254" y="388" on="0"/>
        <pt x="395" y="307" on="0"/>
        <pt x="395" y="194" on="1"/>
        <pt x="395" y="51" on="0"/>
        <pt x="292" y="-100" on="0"/>
        <pt x="165" y="-100" on="1"/>
        <pt x="129" y="-100" on="0"/>
        <pt x="74" y="-87" on="0"/>
        <pt x="45" y="-68" on="0"/>
        <pt x="45" y="-61" on="1"/>
        <pt x="45" y="-51" on="0"/>
        <pt x="49" y="-40" on="1"/>
        <pt x="90" y="-76" on="0"/>
        <pt x="169" y="-76" on="1"/>
        <pt x="279" y="-76" on="0"/>
        <pt x="371" y="67" on="0"/>
        <pt x="371" y="198" on="1"/>
        <pt x="371" y="293" on="0"/>
        <pt x="243" y="362" on="0"/>
        <pt x="169" y="362" on="1"/>
        <pt x="141" y="362" on="0"/>
        <pt x="90" y="354" on="0"/>
        <pt x="60" y="345" on="0"/>
        <pt x="56" y="344" on="1"/>
        <pt x="82" y="600" on="1"/>
        <pt x="388" y="600" on="1"/>
      </contour>
    </TTGlyph>
    <TTGlyph name="fl" xMin="10" yMin="0" xMax="330" yMax="738">
      <contour>
        <pt x="95" y="643" on="0"/>
        <pt x="140" y="718" on="0"/>
        <pt x="199" y="738" on="0"/>
        <pt x="235" y="738" on="1"/>
        <pt x="290" y="738" on="0"/>
        <pt x="330" y="718" on="1"/>
        <pt x="330" y="10" on="1"/>
        <pt x="330" y="8" on="0"/>
        <pt x="326" y="0" on="0"/>
        <pt x="320" y="0" on="1"/>
        <pt x="306" y="0" on="1"/>
        <pt x="306" y="702" on="1"/>
        <pt x="274" y="714" on="0"/>
        <pt x="233" y="714" on="1"/>
        <pt x="202" y="714" on="0"/>
        <pt x="155" y="698" on="0"/>
        <pt x="119" y="632" on="0"/>
        <pt x="119" y="563" on="1"/>
        <pt x="119" y="500" on="1"/>
        <pt x="241" y="500" on="1"/>
        <pt x="241" y="483" on="0"/>
        <pt x="238" y="476" on="0"/>
        <pt x="231" y="476" on="1"/>
        <pt x="119" y="476" on="1"/>
        <pt x="119" y="10" on="1"/>
        <pt x="119" y="8" on="0"/>
        <pt x="115" y="0" on="0"/>
        <pt x="109" y="0" on="1"/>
        <pt x="95" y="0" on="1"/>
        <pt x="95" y="476" on="1"/>
        <pt x="10" y="476" on="1"/>
        <pt x="10" y="493" on="0"/>
        <pt x="13" y="500" on="0"/>
        <pt x="20" y="500" on="1"/>
        <pt x="95" y="500" on="1"/>
        <pt x="95" y="567" on="1"/>
      </contour>
    </TTGlyph>
    <TTGlyph name="florin" xMin="20" yMin="-195" xMax="468" yMax="737">
      <contour>
        <pt x="232" y="648" on="0"/>
        <pt x="279" y="720" on="0"/>
        <pt x="342" y="737" on="0"/>
        <pt x="389" y="737" on="1"/>
        <pt x="418" y="737" on="0"/>
        <pt x="468" y="726" on="0"/>
        <pt x="468" y="721" on="1"/>
        <pt x="468" y="712" on="0"/>
        <pt x="464" y="702" on="1"/>
        <pt x="426" y="713" on="0"/>
        <pt x="387" y="713" on="1"/>
        <pt x="348" y="713" on="0"/>
        <pt x="295" y="698" on="0"/>
        <pt x="256" y="634" on="0"/>
        <pt x="256" y="568" on="1"/>
        <pt x="256" y="500" on="1"/>
        <pt x="431" y="500" on="1"/>
        <pt x="431" y="483" on="0"/>
        <pt x="428" y="475" on="0"/>
        <pt x="421" y="475" on="1"/>
        <pt x="256" y="475" on="1"/>
        <pt x="256" y="-30" on="1"/>
        <pt x="256" y="-106" on="0"/>
        <pt x="209" y="-178" on="0"/>
        <pt x="146" y="-195" on="0"/>
        <pt x="99" y="-195" on="1"/>
        <pt x="70" y="-195" on="0"/>
        <pt x="20" y="-184" on="0"/>
        <pt x="20" y="-179" on="1"/>
        <pt x="20" y="-170" on="0"/>
        <pt x="24" y="-160" on="1"/>
        <pt x="62" y="-171" on="0"/>
        <pt x="101" y="-171" on="1"/>
        <pt x="140" y="-171" on="0"/>
        <pt x="193" y="-156" on="0"/>
        <pt x="232" y="-92" on="0"/>
        <pt x="232" y="-26" on="1"/>
        <pt x="232" y="475" on="1"/>
        <pt x="81" y="475" on="1"/>
        <pt x="81" y="492" on="0"/>
        <pt x="84" y="500" on="0"/>
        <pt x="91" y="500" on="1"/>
        <pt x="232" y="500" on="1"/>
        <pt x="232" y="572" on="1"/>
      </contour>
    </TTGlyph>
    <TTGlyph name="four" xMin="50" yMin="0" xMax="410" yMax="603">
      <contour>
        <pt x="409" y="206" on="1"/>
        <pt x="409" y="206" on="0"/>
        <pt x="410" y="200" on="0"/>
        <pt x="410" y="194" on="1"/>
        <pt x="410" y="182" on="0"/>
        <pt x="402" y="182" on="1"/>
        <pt x="310" y="182" on="1"/>
        <pt x="310" y="14" on="1"/>
        <pt x="310" y="8" on="1"/>
        <pt x="310" y="2" on="0"/>
        <pt x="303" y="0" on="0"/>
        <pt x="286" y="0" on="1"/>
        <pt x="286" y="182" on="1"/>
        <pt x="53" y="182" on="1"/>
        <pt x="52" y="182" on="0"/>
        <pt x="50" y="186" on="0"/>
        <pt x="50" y="190" on="1"/>
        <pt x="50" y="227" on="0"/>
        <pt x="117" y="379" on="0"/>
        <pt x="227" y="542" on="0"/>
        <pt x="287" y="598" on="1"/>
        <pt x="293" y="603" on="0"/>
        <pt x="302" y="603" on="1"/>
        <pt x="307" y="603" on="0"/>
        <pt x="313" y="599" on="0"/>
        <pt x="310" y="599" on="1"/>
        <pt x="310" y="206" on="1"/>
      </contour>
      <contour>
        <pt x="221" y="496" on="0"/>
        <pt x="98" y="305" on="0"/>
        <pt x="75" y="206" on="1"/>
        <pt x="286" y="206" on="1"/>
        <pt x="291" y="570" on="1"/>
      </contour>
    </TTGlyph>
    <TTGlyph name="four.dnom" xMin="55" yMin="-4" xMax="371" yMax="421">
      <contour>
        <pt x="371" y="97" on="0"/>
        <pt x="371" y="90" on="1"/>
        <pt x="371" y="79" on="0"/>
        <pt x="365" y="79" on="1"/>
        <pt x="286" y="79" on="1"/>
        <pt x="286" y="8" on="1"/>
        <pt x="286" y="-4" on="0"/>
        <pt x="271" y="-4" on="1"/>
        <pt x="265" y="-4" on="0"/>
        <pt x="262" y="-3" on="1"/>
        <pt x="262" y="79" on="1"/>
        <pt x="57" y="79" on="1"/>
        <pt x="55" y="85" on="0"/>
        <pt x="55" y="87" on="1"/>
        <pt x="55" y="92" on="0"/>
        <pt x="63" y="116" on="1"/>
        <pt x="85" y="182" on="0"/>
        <pt x="206" y="365" on="0"/>
        <pt x="262" y="416" on="1"/>
        <pt x="267" y="421" on="0"/>
        <pt x="276" y="421" on="1"/>
        <pt x="282" y="421" on="0"/>
        <pt x="286" y="419" on="1"/>
        <pt x="286" y="103" on="1"/>
        <pt x="369" y="103" on="1"/>
      </contour>
      <contour>
        <pt x="214" y="333" on="0"/>
        <pt x="107" y="174" on="0"/>
        <pt x="86" y="103" on="1"/>
        <pt x="262" y="103" on="1"/>
        <pt x="262" y="380" on="1"/>
      </contour>
    </TTGlyph>
    <TTGlyph name="four.numr" xMin="55" yMin="285" xMax="371" yMax="710">
      <contour>
        <pt x="371" y="386" on="0"/>
        <pt x="371" y="379" on="1"/>
        <pt x="371" y="368" on="0"/>
        <pt x="365" y="368" on="1"/>
        <pt x="286" y="368" on="1"/>
        <pt x="286" y="297" on="1"/>
        <pt x="286" y="285" on="0"/>
        <pt x="271" y="285" on="1"/>
        <pt x="265" y="285" on="0"/>
        <pt x="262" y="286" on="1"/>
        <pt x="262" y="368" on="1"/>
        <pt x="57" y="368" on="1"/>
        <pt x="55" y="374" on="0"/>
        <pt x="55" y="376" on="1"/>
        <pt x="55" y="381" on="0"/>
        <pt x="63" y="405" on="1"/>
        <pt x="85" y="471" on="0"/>
        <pt x="206" y="654" on="0"/>
        <pt x="262" y="705" on="1"/>
        <pt x="267" y="710" on="0"/>
        <pt x="276" y="710" on="1"/>
        <pt x="282" y="710" on="0"/>
        <pt x="286" y="708" on="1"/>
        <pt x="286" y="392" on="1"/>
        <pt x="369" y="392" on="1"/>
      </contour>
      <contour>
        <pt x="214" y="622" on="0"/>
        <pt x="107" y="463" on="0"/>
        <pt x="86" y="392" on="1"/>
        <pt x="262" y="392" on="1"/>
        <pt x="262" y="669" on="1"/>
      </contour>
    </TTGlyph>
    <TTGlyph name="foursuperior" xMin="65" yMin="285" xMax="381" yMax="710">
      <contour>
        <pt x="381" y="386" on="0"/>
        <pt x="381" y="379" on="1"/>
        <pt x="381" y="368" on="0"/>
        <pt x="375" y="368" on="1"/>
        <pt x="296" y="368" on="1"/>
        <pt x="296" y="297" on="1"/>
        <pt x="296" y="285" on="0"/>
        <pt x="281" y="285" on="1"/>
        <pt x="275" y="285" on="0"/>
        <pt x="272" y="286" on="1"/>
        <pt x="272" y="368" on="1"/>
        <pt x="67" y="368" on="1"/>
        <pt x="65" y="374" on="0"/>
        <pt x="65" y="376" on="1"/>
        <pt x="65" y="381" on="0"/>
        <pt x="73" y="405" on="1"/>
        <pt x="95" y="471" on="0"/>
        <pt x="216" y="654" on="0"/>
        <pt x="272" y="705" on="1"/>
        <pt x="277" y="710" on="0"/>
        <pt x="286" y="710" on="1"/>
        <pt x="292" y="710" on="0"/>
        <pt x="296" y="708" on="1"/>
        <pt x="296" y="392" on="1"/>
        <pt x="379" y="392" on="1"/>
      </contour>
      <contour>
        <pt x="224" y="622" on="0"/>
        <pt x="117" y="463" on="0"/>
        <pt x="96" y="392" on="1"/>
        <pt x="272" y="392" on="1"/>
        <pt x="272" y="669" on="1"/>
      </contour>
    </TTGlyph>
    <TTGlyph name="fraction" xMin="-129" yMin="-9" xMax="365" yMax="710">
      <contour>
        <pt x="-110" y="-9" on="0"/>
        <pt x="-115" y="-9" on="1"/>
        <pt x="-120" y="-9" on="0"/>
        <pt x="-129" y="-1" on="0"/>
        <pt x="-129" y="5" on="1"/>
        <pt x="343" y="705" on="1"/>
        <pt x="346" y="710" on="0"/>
        <pt x="351" y="710" on="1"/>
        <pt x="360" y="710" on="0"/>
        <pt x="365" y="697" on="1"/>
        <pt x="-108" y="-6" on="1"/>
      </contour>
    </TTGlyph>
    <TTGlyph name="g" xMin="45" yMin="-198" xMax="397" yMax="510">
      <contour>
        <pt x="393" y="504" on="0"/>
        <pt x="395" y="500" on="0"/>
        <pt x="395" y="496" on="1"/>
        <pt x="395" y="483" on="0"/>
        <pt x="379" y="483" on="1"/>
        <pt x="345" y="483" on="0"/>
        <pt x="303" y="485" on="1"/>
        <pt x="339" y="472" on="0"/>
        <pt x="379" y="402" on="0"/>
        <pt x="379" y="350" on="1"/>
        <pt x="379" y="267" on="0"/>
        <pt x="299" y="154" on="0"/>
        <pt x="217" y="154" on="1"/>
        <pt x="178" y="154" on="0"/>
        <pt x="148" y="165" on="1"/>
        <pt x="124" y="148" on="0"/>
        <pt x="86" y="105" on="0"/>
        <pt x="86" y="91" on="1"/>
        <pt x="86" y="59" on="0"/>
        <pt x="263" y="40" on="1"/>
        <pt x="326" y="33" on="0"/>
        <pt x="397" y="-10" on="0"/>
        <pt x="397" y="-63" on="1"/>
        <pt x="397" y="-97" on="0"/>
        <pt x="353" y="-159" on="0"/>
        <pt x="264" y="-198" on="0"/>
        <pt x="202" y="-198" on="1"/>
        <pt x="112" y="-198" on="0"/>
        <pt x="45" y="-142" on="0"/>
        <pt x="45" y="-94" on="1"/>
        <pt x="45" y="-60" on="0"/>
        <pt x="99" y="14" on="0"/>
        <pt x="134" y="39" on="1"/>
        <pt x="62" y="59" on="0"/>
        <pt x="62" y="89" on="1"/>
        <pt x="62" y="107" on="0"/>
        <pt x="101" y="155" on="0"/>
        <pt x="127" y="175" on="1"/>
        <pt x="61" y="213" on="0"/>
        <pt x="61" y="332" on="1"/>
        <pt x="61" y="388" on="0"/>
        <pt x="105" y="468" on="0"/>
        <pt x="179" y="510" on="0"/>
        <pt x="223" y="510" on="1"/>
        <pt x="239" y="510" on="0"/>
        <pt x="267" y="505" on="1"/>
        <pt x="393" y="505" on="1"/>
      </contour>
      <contour>
        <pt x="85" y="262" on="0"/>
        <pt x="140" y="178" on="0"/>
        <pt x="220" y="178" on="1"/>
        <pt x="265" y="178" on="0"/>
        <pt x="325" y="228" on="0"/>
        <pt x="355" y="307" on="0"/>
        <pt x="355" y="350" on="1"/>
        <pt x="355" y="417" on="0"/>
        <pt x="285" y="486" on="0"/>
        <pt x="223" y="486" on="1"/>
        <pt x="164" y="486" on="0"/>
        <pt x="85" y="405" on="0"/>
        <pt x="85" y="330" on="1"/>
      </contour>
      <contour>
        <pt x="256" y="-174" on="0"/>
        <pt x="333" y="-143" on="0"/>
        <pt x="373" y="-93" on="0"/>
        <pt x="373" y="-64" on="1"/>
        <pt x="373" y="-20" on="0"/>
        <pt x="313" y="12" on="0"/>
        <pt x="261" y="18" on="1"/>
        <pt x="204" y="24" on="0"/>
        <pt x="162" y="33" on="1"/>
        <pt x="127" y="11" on="0"/>
        <pt x="69" y="-63" on="0"/>
        <pt x="69" y="-94" on="1"/>
        <pt x="69" y="-132" on="0"/>
        <pt x="124" y="-174" on="0"/>
        <pt x="202" y="-174" on="1"/>
      </contour>
    </TTGlyph>
    <TTGlyph name="g.ss01" xMin="54" yMin="-200" xMax="361" yMax="509">
      <contour>
        <pt x="361" y="-126" on="0"/>
        <pt x="270" y="-200" on="0"/>
        <pt x="198" y="-200" on="1"/>
        <pt x="161" y="-200" on="0"/>
        <pt x="102" y="-188" on="0"/>
        <pt x="70" y="-170" on="0"/>
        <pt x="70" y="-162" on="1"/>
        <pt x="70" y="-154" on="0"/>
        <pt x="77" y="-147" on="1"/>
        <pt x="105" y="-162" on="0"/>
        <pt x="154" y="-177" on="0"/>
        <pt x="200" y="-177" on="1"/>
        <pt x="256" y="-177" on="0"/>
        <pt x="337" y="-120" on="0"/>
        <pt x="337" y="-45" on="1"/>
        <pt x="337" y="46" on="1"/>
        <pt x="318" y="24" on="0"/>
        <pt x="245" y="-9" on="0"/>
        <pt x="205" y="-9" on="1"/>
        <pt x="137" y="-9" on="0"/>
        <pt x="54" y="94" on="0"/>
        <pt x="54" y="235" on="1"/>
        <pt x="54" y="386" on="0"/>
        <pt x="171" y="509" on="0"/>
        <pt x="254" y="509" on="1"/>
        <pt x="287" y="509" on="0"/>
        <pt x="345" y="486" on="0"/>
        <pt x="361" y="467" on="1"/>
        <pt x="361" y="-49" on="1"/>
      </contour>
      <contour>
        <pt x="329" y="465" on="0"/>
        <pt x="281" y="485" on="0"/>
        <pt x="249" y="485" on="1"/>
        <pt x="179" y="485" on="0"/>
        <pt x="77" y="375" on="0"/>
        <pt x="77" y="227" on="1"/>
        <pt x="77" y="15" on="0"/>
        <pt x="205" y="15" on="1"/>
        <pt x="244" y="15" on="0"/>
        <pt x="314" y="49" on="0"/>
        <pt x="337" y="81" on="1"/>
        <pt x="337" y="453" on="1"/>
      </contour>
    </TTGlyph>
    <TTGlyph name="gbreve" xMin="45" yMin="-198" xMax="397" yMax="707">
      <component glyphName=".ttfautohint" x="45" y="0" flags="0x0"/>
      <component glyphName="g" x="0" y="0" flags="0x1000"/>
      <component glyphName="breve" x="92" y="0" flags="0x1000"/>
    </TTGlyph>
    <TTGlyph name="gcommaaccent" xMin="45" yMin="-198" xMax="397" yMax="735">
      <contour>
        <pt x="204" y="562" on="0"/>
        <pt x="192" y="576" on="0"/>
        <pt x="192" y="596" on="1"/>
        <pt x="192" y="621" on="0"/>
        <pt x="213" y="686" on="0"/>
        <pt x="239" y="735" on="0"/>
        <pt x="246" y="735" on="1"/>
        <pt x="250" y="735" on="0"/>
        <pt x="258" y="727" on="0"/>
        <pt x="259" y="723" on="1"/>
        <pt x="227" y="668" on="0"/>
        <pt x="228" y="619" on="1"/>
        <pt x="243" y="610" on="0"/>
        <pt x="243" y="590" on="1"/>
        <pt x="243" y="562" on="0"/>
        <pt x="217" y="562" on="1"/>
      </contour>
      <contour>
        <pt x="393" y="504" on="0"/>
        <pt x="395" y="500" on="0"/>
        <pt x="395" y="496" on="1"/>
        <pt x="395" y="483" on="0"/>
        <pt x="379" y="483" on="1"/>
        <pt x="345" y="483" on="0"/>
        <pt x="303" y="485" on="1"/>
        <pt x="339" y="472" on="0"/>
        <pt x="379" y="402" on="0"/>
        <pt x="379" y="350" on="1"/>
        <pt x="379" y="267" on="0"/>
        <pt x="299" y="154" on="0"/>
        <pt x="217" y="154" on="1"/>
        <pt x="178" y="154" on="0"/>
        <pt x="148" y="165" on="1"/>
        <pt x="124" y="148" on="0"/>
        <pt x="86" y="105" on="0"/>
        <pt x="86" y="91" on="1"/>
        <pt x="86" y="59" on="0"/>
        <pt x="263" y="40" on="1"/>
        <pt x="326" y="33" on="0"/>
        <pt x="397" y="-10" on="0"/>
        <pt x="397" y="-63" on="1"/>
        <pt x="397" y="-97" on="0"/>
        <pt x="353" y="-159" on="0"/>
        <pt x="264" y="-198" on="0"/>
        <pt x="202" y="-198" on="1"/>
        <pt x="112" y="-198" on="0"/>
        <pt x="45" y="-142" on="0"/>
        <pt x="45" y="-94" on="1"/>
        <pt x="45" y="-60" on="0"/>
        <pt x="99" y="14" on="0"/>
        <pt x="134" y="39" on="1"/>
        <pt x="62" y="59" on="0"/>
        <pt x="62" y="89" on="1"/>
        <pt x="62" y="107" on="0"/>
        <pt x="101" y="155" on="0"/>
        <pt x="127" y="175" on="1"/>
        <pt x="61" y="213" on="0"/>
        <pt x="61" y="332" on="1"/>
        <pt x="61" y="388" on="0"/>
        <pt x="105" y="468" on="0"/>
        <pt x="179" y="510" on="0"/>
        <pt x="223" y="510" on="1"/>
        <pt x="239" y="510" on="0"/>
        <pt x="267" y="505" on="1"/>
        <pt x="393" y="505" on="1"/>
      </contour>
      <contour>
        <pt x="85" y="262" on="0"/>
        <pt x="140" y="178" on="0"/>
        <pt x="220" y="178" on="1"/>
        <pt x="265" y="178" on="0"/>
        <pt x="325" y="228" on="0"/>
        <pt x="355" y="307" on="0"/>
        <pt x="355" y="350" on="1"/>
        <pt x="355" y="417" on="0"/>
        <pt x="285" y="486" on="0"/>
        <pt x="223" y="486" on="1"/>
        <pt x="164" y="486" on="0"/>
        <pt x="85" y="405" on="0"/>
        <pt x="85" y="330" on="1"/>
      </contour>
      <contour>
        <pt x="256" y="-174" on="0"/>
        <pt x="333" y="-143" on="0"/>
        <pt x="373" y="-93" on="0"/>
        <pt x="373" y="-64" on="1"/>
        <pt x="373" y="-20" on="0"/>
        <pt x="313" y="12" on="0"/>
        <pt x="261" y="18" on="1"/>
        <pt x="204" y="24" on="0"/>
        <pt x="162" y="33" on="1"/>
        <pt x="127" y="11" on="0"/>
        <pt x="69" y="-63" on="0"/>
        <pt x="69" y="-94" on="1"/>
        <pt x="69" y="-132" on="0"/>
        <pt x="124" y="-174" on="0"/>
        <pt x="202" y="-174" on="1"/>
      </contour>
    </TTGlyph>
</ttFont>
